SplineFontDB: 3.2
FontName: Monofoki-Italic
FullName: Monofoki Italic
FamilyName: Monofoki
Weight: Regular
Version: 2.2
ItalicAngle: -9
UnderlinePosition: 0
UnderlineWidth: 0
Ascent: 819
Descent: 205
InvalidEm: 0
sfntRevision: 0x00023333
LayerCount: 2
Layer: 0 0 "Back" 1
Layer: 1 0 "Fore" 0
XUID: [1021 977 -1548889699 2549773]
StyleMap: 0x0001
FSType: 0
OS2Version: 3
OS2_WeightWidthSlopeOnly: 0
OS2_UseTypoMetrics: 0
CreationTime: 1593379981
PfmFamily: 17
TTFWeight: 400
TTFWidth: 5
LineGap: 0
VLineGap: 0
Panose: 2 0 5 9 0 0 0 0 0 0
OS2TypoAscent: 750
OS2TypoAOffset: 0
OS2TypoDescent: -250
OS2TypoDOffset: 0
OS2TypoLinegap: 229
OS2WinAscent: 900
OS2WinAOffset: 0
OS2WinDescent: 250
OS2WinDOffset: 0
HheadAscent: 900
HheadAOffset: 0
HheadDescent: -250
HheadDOffset: 0
OS2SubXSize: 665
OS2SubYSize: 716
OS2SubXOff: 22
OS2SubYOff: 143
OS2SupXSize: 665
OS2SupYSize: 716
OS2SupXOff: -76
OS2SupYOff: 491
OS2StrikeYSize: 51
OS2StrikeYPos: 265
OS2CapHeight: 700
OS2XHeight: 500
OS2Vendor: 'PfEd'
OS2CodePages: 6000009f.dfd70000
OS2UnicodeRanges: a00002ff.100078fb.00020028.00000000
Lookup: 260 0 0 "'mark' Mark Positioning lookup 0" { "'mark' Mark Positioning lookup 0 subtable"  } ['mark' ('DFLT' <'dflt' > 'cyrl' <'dflt' > 'grek' <'dflt' > 'latn' <'dflt' > 'mong' <'dflt' > ) ]
MarkAttachClasses: 1
DEI: 91125
LangName: 1033 "" "" "" "FontForge 2.0 : Monofoki Italic : 1-1-1980"
Encoding: UnicodeBmp
UnicodeInterp: none
NameList: AGL For New Fonts
BeginPrivate: 6
BlueValues 31 [-15 0 500 516 700 716 750 766]
BlueShift 1 6
StdHW 4 [78]
StdVW 4 [86]
StemSnapH 10 [73 78 85]
StemSnapV 4 [86]
EndPrivate
AnchorClass2: "Anchor-0" "'mark' Mark Positioning lookup 0 subtable" "Anchor-1" "'mark' Mark Positioning lookup 0 subtable" "Anchor-2" "'mark' Mark Positioning lookup 0 subtable" "Anchor-3" "'mark' Mark Positioning lookup 0 subtable" "Anchor-4" "'mark' Mark Positioning lookup 0 subtable"
BeginChars: 65581 1051

StartChar: .notdef
Encoding: 65536 -1 0
Width: 575
Flags: MW
LayerCount: 2
Fore
SplineSet
51 0 m 1
 51 546 l 1
 524 546 l 1
 524 0 l 1
 51 0 l 1
102 51 m 1
 473 51 l 1
 473 495 l 1
 102 495 l 1
 102 51 l 1
EndSplineSet
EndChar

StartChar: exclam
Encoding: 33 33 2
Width: 575
GlyphClass: 2
Flags: W
LayerCount: 2
Fore
SplineSet
331 700 m 2
 386 700 l 2
 400 700 408 694 408 683 c 0
 408 681 408 678 407 675 c 2
 322 230 l 2
 318 214 308 205 292 205 c 2
 269 205 l 2
 255 205 247 211 247 223 c 0
 247 225 248 227 248 230 c 2
 302 675 l 2
 305 692 315 700 331 700 c 2
302 72 m 2
 295 25 l 2
 292 8 282 0 266 0 c 2
 231 0 l 2
 217 0 209 6 209 18 c 0
 209 20 210 23 210 25 c 2
 217 72 l 2
 220 89 230 97 246 97 c 2
 281 97 l 2
 295 97 303 91 303 79 c 0
 303 77 302 74 302 72 c 2
EndSplineSet
EndChar

StartChar: quotedbl
Encoding: 34 34 3
Width: 575
GlyphClass: 2
Flags: W
LayerCount: 2
Fore
SplineSet
224 750 m 2
 278 750 l 2
 291 750 300 744 300 732 c 0
 300 730 300 728 299 725 c 2
 243 437 l 2
 240 421 230 413 214 413 c 2
 185 413 l 2
 171 413 163 419 163 432 c 2
 163 437 l 1
 195 725 l 2
 197 741 207 750 224 750 c 2
455 750 m 2
 509 750 l 2
 522 750 531 744 531 732 c 0
 531 730 531 728 530 725 c 2
 474 437 l 2
 471 421 461 413 445 413 c 2
 416 413 l 2
 402 413 394 419 394 432 c 2
 394 437 l 1
 426 725 l 2
 428 741 438 750 455 750 c 2
EndSplineSet
EndChar

StartChar: numbersign
Encoding: 35 35 4
Width: 575
GlyphClass: 2
Flags: W
LayerCount: 2
Fore
SplineSet
435 270 m 1
 502 270 l 2
 516 270 524 264 524 252 c 0
 524 250 523 247 523 245 c 2
 519 218 l 2
 516 201 506 193 490 193 c 2
 423 193 l 1
 396 25 l 2
 393 8 383 0 367 0 c 2
 332 0 l 2
 318 0 310 6 310 18 c 0
 310 20 311 23 311 25 c 2
 338 193 l 1
 219 193 l 1
 192 25 l 2
 189 8 179 0 163 0 c 2
 128 0 l 2
 114 0 106 6 106 18 c 0
 106 20 107 23 107 25 c 2
 134 193 l 1
 67 193 l 2
 53 193 45 199 45 211 c 0
 45 213 46 216 46 218 c 2
 50 245 l 2
 53 262 63 270 79 270 c 2
 146 270 l 1
 171 424 l 1
 104 424 l 2
 90 424 82 430 82 442 c 0
 82 444 83 447 83 449 c 2
 87 476 l 2
 90 493 100 501 116 501 c 2
 183 501 l 1
 210 675 l 2
 213 692 223 700 239 700 c 2
 274 700 l 2
 288 700 296 694 296 682 c 0
 296 680 295 677 295 675 c 2
 268 501 l 1
 387 501 l 1
 414 675 l 2
 417 692 427 700 443 700 c 2
 478 700 l 2
 492 700 500 694 500 682 c 0
 500 680 499 677 499 675 c 2
 472 501 l 1
 539 501 l 2
 553 501 561 495 561 483 c 0
 561 481 560 478 560 476 c 2
 556 449 l 2
 553 432 543 424 527 424 c 2
 460 424 l 1
 435 270 l 1
256 424 m 1
 231 270 l 1
 350 270 l 1
 375 424 l 1
 256 424 l 1
EndSplineSet
EndChar

StartChar: dollar
Encoding: 36 36 5
Width: 575
GlyphClass: 2
Flags: W
LayerCount: 2
Fore
SplineSet
515 590 m 2
 501 563 l 2
 496 552 488 547 479 547 c 0
 476 547 472 547 468 549 c 0
 435 562 399 572 361 572 c 0
 278 572 194 524 194 449 c 0
 194 316 507 396 507 220 c 0
 507 106 408 27 290 0 c 1
 268 -140 l 2
 265 -157 255 -165 239 -165 c 2
 204 -165 l 2
 190 -165 182 -159 182 -147 c 0
 182 -145 183 -142 183 -140 c 2
 204 -10 l 1
 201 -10 l 2
 153 -10 107 0 65 20 c 0
 56 24 52 29 52 37 c 0
 52 42 54 47 57 53 c 2
 72 78 l 2
 78 89 86 94 95 94 c 0
 99 94 102 94 106 92 c 0
 150 73 192 69 226 69 c 0
 323 69 419 118 419 204 c 0
 419 322 106 239 106 431 c 0
 106 540 194 618 306 641 c 1
 327 775 l 2
 330 792 340 800 356 800 c 2
 391 800 l 2
 405 800 413 794 413 782 c 0
 413 780 412 777 412 775 c 2
 392 647 l 1
 431 645 476 636 509 621 c 0
 516 617 520 613 520 607 c 0
 520 603 518 597 515 590 c 2
EndSplineSet
EndChar

StartChar: percent
Encoding: 37 37 6
Width: 575
GlyphClass: 2
Flags: W
LayerCount: 2
Fore
SplineSet
491 115 m 2
 476 25 l 2
 473 8 463 0 447 0 c 2
 347 0 l 2
 333 0 325 6 325 18 c 0
 325 20 326 23 326 25 c 2
 341 115 l 2
 344 132 354 140 370 140 c 2
 470 140 l 2
 484 140 492 134 492 122 c 0
 492 120 491 117 491 115 c 2
265 575 m 2
 250 485 l 2
 247 468 237 460 221 460 c 2
 121 460 l 2
 107 460 99 466 99 478 c 0
 99 480 100 483 100 485 c 2
 115 575 l 2
 118 592 128 600 144 600 c 2
 244 600 l 2
 258 600 266 594 266 582 c 0
 266 580 265 577 265 575 c 2
528 534 m 2
 547 509 l 2
 550 504 552 499 552 494 c 0
 552 487 549 480 542 474 c 2
 96 65 l 2
 90 59 84 57 78 57 c 0
 72 57 68 59 64 65 c 2
 45 90 l 2
 42 95 40 100 40 105 c 0
 40 112 43 119 50 125 c 2
 495 534 l 2
 501 540 507 542 513 542 c 0
 519 542 524 540 528 534 c 2
EndSplineSet
EndChar

StartChar: ampersand
Encoding: 38 38 7
Width: 575
GlyphClass: 2
Flags: W
LayerCount: 2
Fore
SplineSet
463 0 m 2
 431 0 l 2
 416 0 410 7 407 21 c 0
 404 41 398 62 389 85 c 1
 325 21 255 -7 192 -7 c 0
 94 -7 38 51 38 143 c 0
 38 241 99 325 185 380 c 1
 146 428 127 475 127 519 c 0
 127 616 217 697 319 697 c 0
 405 697 463 640 463 564 c 0
 463 506 436 453 391 415 c 0
 386 410 380 408 375 408 c 0
 369 408 363 411 357 417 c 2
 341 437 l 2
 336 442 334 448 334 453 c 0
 334 459 337 466 344 471 c 0
 368 491 381 521 381 547 c 0
 381 587 350 618 305 618 c 0
 255 618 213 578 213 529 c 0
 213 500 226 467 259 428 c 0
 313 364 364 298 403 237 c 1
 410 252 417 267 423 284 c 0
 429 297 437 304 449 304 c 0
 451 304 454 303 456 303 c 2
 488 297 l 2
 500 295 505 288 505 279 c 0
 505 275 505 271 503 267 c 0
 486 226 467 190 448 159 c 1
 470 112 484 69 490 27 c 1
 490 25 l 2
 490 9 479 0 463 0 c 2
122 153 m 0
 122 98 153 69 204 69 c 0
 247 69 302 94 352 157 c 1
 323 205 283 260 232 324 c 1
 165 282 122 217 122 153 c 0
EndSplineSet
EndChar

StartChar: quotesingle
Encoding: 39 39 8
Width: 575
GlyphClass: 2
Flags: W
LayerCount: 2
Fore
SplineSet
340 750 m 2
 394 750 l 2
 407 750 416 744 416 732 c 0
 416 730 416 728 415 725 c 2
 359 437 l 2
 356 421 346 413 330 413 c 2
 301 413 l 2
 287 413 279 419 279 432 c 2
 279 437 l 1
 311 725 l 2
 313 741 323 750 340 750 c 2
EndSplineSet
EndChar

StartChar: parenleft
Encoding: 40 40 9
Width: 575
GlyphClass: 2
Flags: W
LayerCount: 2
Fore
SplineSet
536 725 m 2
 532 699 l 2
 529 682 520 674 503 674 c 0
 324 674 198 396 198 184 c 0
 198 18 270 -102 380 -102 c 0
 394 -102 402 -108 402 -120 c 0
 402 -122 401 -124 401 -127 c 2
 397 -153 l 2
 394 -170 384 -178 368 -178 c 0
 214 -178 112 -28 112 178 c 0
 112 442 285 750 515 750 c 0
 529 750 537 744 537 732 c 0
 537 730 536 727 536 725 c 2
EndSplineSet
EndChar

StartChar: parenright
Encoding: 41 41 10
Width: 575
GlyphClass: 2
Flags: W
LayerCount: 2
Fore
SplineSet
40 -153 m 2
 44 -127 l 2
 47 -110 56 -102 73 -102 c 0
 252 -102 378 176 378 388 c 0
 378 554 306 674 196 674 c 0
 182 674 174 680 174 692 c 0
 174 694 175 696 175 699 c 2
 179 725 l 2
 182 742 192 750 208 750 c 0
 362 750 464 600 464 394 c 0
 464 130 291 -178 61 -178 c 0
 47 -178 39 -172 39 -160 c 0
 39 -158 40 -155 40 -153 c 2
EndSplineSet
EndChar

StartChar: asterisk
Encoding: 42 42 11
Width: 575
GlyphClass: 2
Flags: W
LayerCount: 2
Fore
SplineSet
548 395 m 2
 554 361 l 1
 554 356 l 2
 554 343 547 334 533 330 c 2
 384 284 l 1
 462 144 l 2
 464 140 465 135 465 131 c 0
 465 123 461 115 452 109 c 2
 420 89 l 2
 414 85 408 83 403 83 c 0
 396 83 390 87 385 94 c 2
 294 256 l 1
 152 94 l 2
 144 86 137 82 130 82 c 0
 125 82 120 84 115 88 c 2
 90 109 l 2
 84 113 81 119 81 125 c 0
 81 131 84 137 90 144 c 2
 214 284 l 1
 80 330 l 2
 71 333 65 340 65 348 c 0
 65 352 66 356 69 361 c 2
 85 395 l 2
 90 407 99 413 110 413 c 0
 113 413 116 412 120 411 c 2
 268 359 l 1
 295 525 l 2
 297 542 308 550 324 550 c 2
 359 550 l 2
 373 550 380 543 380 530 c 2
 380 525 l 1
 353 359 l 1
 519 411 l 2
 523 412 526 413 529 413 c 0
 539 413 546 407 548 395 c 2
EndSplineSet
EndChar

StartChar: plus
Encoding: 43 43 12
Width: 575
GlyphClass: 2
Flags: W
LayerCount: 2
Fore
SplineSet
334 272 m 1
 307 96 l 2
 304 79 294 71 278 71 c 2
 243 71 l 2
 229 71 221 77 221 89 c 0
 221 91 222 94 222 96 c 2
 249 272 l 1
 80 272 l 2
 66 272 58 278 58 290 c 0
 58 292 59 295 59 297 c 2
 63 324 l 2
 66 341 76 349 92 349 c 2
 261 349 l 1
 288 525 l 2
 291 542 301 550 317 550 c 2
 352 550 l 2
 366 550 374 544 374 532 c 0
 374 530 373 527 373 525 c 2
 346 349 l 1
 515 349 l 2
 529 349 537 343 537 331 c 0
 537 329 536 326 536 324 c 2
 532 297 l 2
 529 280 519 272 503 272 c 2
 334 272 l 1
EndSplineSet
EndChar

StartChar: comma
Encoding: 44 44 13
Width: 575
GlyphClass: 2
Flags: W
LayerCount: 2
Fore
SplineSet
322 -2 m 2
 294 -181 217 -247 38 -247 c 0
 24 -247 16 -241 16 -229 c 0
 16 -227 17 -224 17 -222 c 2
 21 -196 l 2
 24 -179 34 -171 50 -171 c 0
 167 -171 219 -125 237 0 c 1
 197 0 l 2
 183 0 175 6 175 18 c 0
 175 20 176 23 176 25 c 2
 191 115 l 2
 194 132 204 140 220 140 c 2
 320 140 l 2
 334 140 342 134 342 122 c 0
 342 120 341 117 341 115 c 2
 322 -2 l 2
EndSplineSet
EndChar

StartChar: hyphen
Encoding: 45 45 14
Width: 575
GlyphClass: 2
Flags: W
LayerCount: 2
Fore
SplineSet
80 272 m 2
 66 272 58 278 58 290 c 0
 58 292 59 295 59 297 c 2
 63 324 l 2
 66 341 76 349 92 349 c 2
 515 349 l 2
 529 349 537 343 537 331 c 0
 537 329 536 326 536 324 c 2
 532 297 l 2
 529 280 519 272 503 272 c 2
 80 272 l 2
EndSplineSet
EndChar

StartChar: period
Encoding: 46 46 15
Width: 575
GlyphClass: 2
Flags: W
LayerCount: 2
Fore
SplineSet
220 140 m 2
 320 140 l 2
 334 140 342 134 342 122 c 0
 342 120 341 117 341 115 c 2
 326 25 l 2
 323 8 313 0 297 0 c 2
 197 0 l 2
 183 0 175 6 175 18 c 0
 175 20 176 23 176 25 c 2
 191 115 l 2
 194 132 204 140 220 140 c 2
EndSplineSet
EndChar

StartChar: slash
Encoding: 47 47 16
Width: 575
GlyphClass: 2
Flags: W
LayerCount: 2
Fore
SplineSet
579 662 m 2
 112 -60 l 2
 106 -69 98 -74 90 -74 c 0
 86 -74 82 -73 78 -71 c 2
 53 -58 l 2
 45 -54 41 -47 41 -40 c 0
 41 -35 43 -30 46 -25 c 2
 512 697 l 2
 518 706 526 711 535 711 c 0
 539 711 543 710 547 708 c 2
 572 695 l 2
 580 691 584 684 584 677 c 0
 584 672 582 667 579 662 c 2
EndSplineSet
EndChar

StartChar: zero
Encoding: 48 48 17
Width: 575
GlyphClass: 2
Flags: W
LayerCount: 2
Fore
SplineSet
62 251 m 0
 62 462 166 710 361 710 c 0
 479 710 545 616 545 449 c 0
 545 239 441 -10 247 -10 c 0
 128 -10 62 84 62 251 c 0
452 528 m 1
 438 597 402 634 349 634 c 0
 218 634 149 412 147 264 c 1
 452 528 l 1
155 174 m 1
 170 104 206 67 259 67 c 0
 390 67 458 289 460 438 c 1
 155 174 l 1
EndSplineSet
EndChar

StartChar: one
Encoding: 49 49 18
Width: 575
GlyphClass: 2
Flags: W
LayerCount: 2
Fore
SplineSet
335 77 m 1
 438 77 l 2
 452 77 460 71 460 59 c 0
 460 57 459 54 459 52 c 2
 454 25 l 2
 451 8 441 0 425 0 c 2
 70 0 l 2
 56 0 48 6 48 18 c 0
 48 20 49 23 49 25 c 2
 54 52 l 2
 57 69 67 77 83 77 c 2
 250 77 l 1
 320 520 l 1
 153 520 l 2
 139 520 131 526 131 538 c 0
 131 540 132 543 132 545 c 2
 136 572 l 2
 139 589 149 597 165 597 c 0
 263 597 320 618 357 680 c 0
 365 694 375 700 389 700 c 2
 408 700 l 2
 422 700 430 694 430 682 c 0
 430 680 429 677 429 675 c 2
 335 77 l 1
EndSplineSet
EndChar

StartChar: two
Encoding: 50 50 19
Width: 575
GlyphClass: 2
Flags: W
LayerCount: 2
Fore
SplineSet
143 77 m 1
 462 77 l 2
 476 77 484 71 484 59 c 0
 484 57 483 54 483 52 c 2
 478 25 l 2
 475 8 465 0 449 0 c 2
 69 0 l 2
 55 0 48 7 48 20 c 2
 48 25 l 1
 52 48 l 2
 73 183 190 256 268 309 c 0
 363 375 454 438 454 535 c 0
 454 605 406 632 326 632 c 0
 285 632 244 624 197 608 c 0
 193 607 189 606 186 606 c 0
 176 606 169 612 166 623 c 2
 161 649 l 2
 161 651 160 654 160 656 c 0
 160 667 167 676 180 681 c 0
 231 699 287 710 338 710 c 0
 449 710 541 663 541 547 c 0
 541 410 425 327 312 248 c 0
 233 194 160 144 143 77 c 1
EndSplineSet
EndChar

StartChar: three
Encoding: 51 51 20
Width: 575
GlyphClass: 2
Flags: W
LayerCount: 2
Fore
SplineSet
184 637 m 2
 181 665 l 1
 181 670 l 2
 181 683 188 692 203 696 c 0
 240 705 281 710 321 710 c 0
 428 710 527 670 527 553 c 0
 527 466 469 407 384 364 c 1
 435 338 481 287 481 202 c 0
 481 66 353 -10 202 -10 c 0
 160 -10 119 -5 83 4 c 0
 73 7 68 13 68 22 c 0
 68 26 69 30 71 35 c 2
 83 63 l 2
 88 75 97 80 108 80 c 0
 111 80 114 80 117 79 c 0
 146 72 178 68 214 68 c 0
 325 68 396 115 396 204 c 0
 396 279 343 324 262 324 c 2
 211 324 l 2
 197 324 189 330 189 342 c 0
 189 344 190 347 190 349 c 2
 194 376 l 2
 197 393 207 401 223 401 c 2
 274 401 l 2
 375 401 440 459 440 539 c 0
 440 610 390 632 309 632 c 0
 276 632 244 628 213 621 c 0
 209 620 206 620 203 620 c 0
 192 620 186 625 184 637 c 2
EndSplineSet
EndChar

StartChar: four
Encoding: 52 52 21
Width: 575
GlyphClass: 2
Flags: W
LayerCount: 2
Fore
SplineSet
426 221 m 1
 480 221 l 2
 494 221 502 215 502 203 c 0
 502 201 501 198 501 196 c 2
 497 170 l 2
 494 153 484 145 468 145 c 2
 413 145 l 1
 394 25 l 2
 391 8 381 0 365 0 c 2
 330 0 l 2
 316 0 309 7 309 18 c 0
 309 20 310 22 310 25 c 2
 329 145 l 1
 80 145 l 2
 66 145 59 151 59 162 c 0
 59 164 60 166 60 169 c 2
 67 209 l 2
 68 221 72 230 78 240 c 2
 366 677 l 2
 376 694 386 700 406 700 c 2
 442 700 l 2
 455 700 462 695 462 686 c 0
 462 682 461 676 457 670 c 2
 160 221 l 1
 341 221 l 1
 368 392 l 2
 371 409 381 417 397 417 c 2
 432 417 l 2
 446 417 454 411 454 399 c 0
 454 397 453 394 453 392 c 2
 426 221 l 1
EndSplineSet
EndChar

StartChar: five
Encoding: 53 53 22
Width: 575
GlyphClass: 2
Flags: W
LayerCount: 2
Fore
SplineSet
239 431 m 1
 292 431 l 2
 424 431 491 375 491 254 c 0
 491 88 387 -10 205 -10 c 0
 163 -10 131 -8 86 4 c 0
 76 7 71 13 71 22 c 0
 71 26 72 30 74 35 c 2
 86 63 l 2
 91 75 100 80 111 80 c 0
 114 80 117 80 120 79 c 0
 157 69 181 68 217 68 c 0
 339 68 404 135 404 236 c 0
 404 318 361 354 279 354 c 2
 215 354 l 2
 195 354 167 361 167 361 c 2
 154 363 148 369 148 380 c 0
 148 383 148 386 149 389 c 2
 217 677 l 2
 220 692 231 700 247 700 c 2
 502 700 l 2
 516 700 524 694 524 682 c 0
 524 680 523 678 523 675 c 2
 519 649 l 2
 517 633 507 624 490 624 c 2
 284 624 l 1
 239 431 l 1
EndSplineSet
EndChar

StartChar: six
Encoding: 54 54 23
Width: 575
GlyphClass: 2
Flags: W
LayerCount: 2
Fore
SplineSet
502 672 m 2
 491 644 l 2
 486 631 477 624 465 624 c 0
 463 624 460 625 458 625 c 0
 432 630 410 632 393 632 c 0
 313 632 215 586 168 402 c 1
 225 419 271 429 313 429 c 0
 418 429 494 365 494 251 c 0
 494 112 390 -10 242 -10 c 0
 125 -10 55 61 55 223 c 0
 55 461 178 710 403 710 c 0
 427 710 456 707 487 702 c 0
 498 700 504 693 504 683 c 0
 504 680 503 676 502 672 c 2
142 237 m 0
 142 112 193 68 257 68 c 0
 350 68 407 158 407 240 c 0
 407 312 366 351 297 351 c 0
 269 351 217 349 150 317 c 1
 145 284 142 262 142 237 c 0
EndSplineSet
EndChar

StartChar: seven
Encoding: 55 55 24
Width: 575
GlyphClass: 2
Flags: W
LayerCount: 2
Fore
SplineSet
181 700 m 2
 561 700 l 2
 575 700 583 695 583 683 c 0
 583 681 582 678 582 676 c 2
 575 626 l 2
 566 572 547 528 504 465 c 2
 377 280 l 2
 317 191 280 105 266 25 c 0
 263 8 253 0 237 0 c 2
 202 0 l 2
 187 0 181 6 181 19 c 2
 181 25 l 1
 194 106 237 202 309 312 c 2
 427 492 l 2
 467 552 483 587 489 624 c 1
 229 624 l 1
 212 518 l 2
 209 501 199 493 183 493 c 2
 148 493 l 2
 134 493 126 499 126 511 c 0
 126 513 127 516 127 518 c 2
 152 675 l 2
 155 692 165 700 181 700 c 2
EndSplineSet
EndChar

StartChar: eight
Encoding: 56 56 25
Width: 575
GlyphClass: 2
Flags: W
LayerCount: 2
Fore
SplineSet
545 570 m 0
 545 481 472 408 389 359 c 1
 453 321 508 276 508 192 c 0
 508 64 390 -10 247 -10 c 0
 133 -10 41 48 41 142 c 0
 41 235 133 307 229 357 c 1
 172 390 123 433 123 511 c 0
 123 632 233 710 361 710 c 0
 469 710 545 656 545 570 c 0
349 634 m 0
 278 634 210 592 210 528 c 0
 210 474 257 430 330 393 c 1
 393 431 457 498 457 553 c 0
 457 600 414 634 349 634 c 0
128 157 m 0
 128 99 182 67 259 67 c 0
 345 67 422 108 422 183 c 0
 422 251 359 293 290 326 c 1
 210 285 128 229 128 157 c 0
EndSplineSet
EndChar

StartChar: nine
Encoding: 57 57 26
Width: 575
GlyphClass: 2
Flags: W
LayerCount: 2
Fore
SplineSet
71 32 m 2
 82 60 l 2
 87 73 96 80 108 80 c 0
 110 80 113 79 115 79 c 0
 141 74 163 72 180 72 c 0
 260 72 358 118 405 302 c 1
 348 285 302 275 260 275 c 0
 155 275 79 339 79 453 c 0
 79 592 183 714 331 714 c 0
 448 714 518 643 518 481 c 0
 518 243 395 -6 170 -6 c 0
 146 -6 117 -3 86 2 c 0
 75 4 69 11 69 21 c 0
 69 24 70 28 71 32 c 2
431 467 m 0
 431 592 380 636 316 636 c 0
 223 636 166 546 166 464 c 0
 166 392 207 353 276 353 c 0
 304 353 356 355 423 387 c 1
 428 420 431 442 431 467 c 0
EndSplineSet
EndChar

StartChar: colon
Encoding: 58 58 27
Width: 575
GlyphClass: 2
Flags: W
LayerCount: 2
Fore
SplineSet
287 550 m 2
 387 550 l 2
 401 550 409 544 409 532 c 0
 409 530 408 527 408 525 c 2
 393 435 l 2
 390 418 380 410 364 410 c 2
 264 410 l 2
 250 410 242 416 242 428 c 0
 242 430 243 433 243 435 c 2
 258 525 l 2
 261 542 271 550 287 550 c 2
220 140 m 2
 320 140 l 2
 334 140 342 134 342 122 c 0
 342 120 341 117 341 115 c 2
 326 25 l 2
 323 8 313 0 297 0 c 2
 197 0 l 2
 183 0 175 6 175 18 c 0
 175 20 176 23 176 25 c 2
 191 115 l 2
 194 132 204 140 220 140 c 2
EndSplineSet
EndChar

StartChar: semicolon
Encoding: 59 59 28
Width: 575
GlyphClass: 2
Flags: W
LayerCount: 2
Fore
SplineSet
287 550 m 2
 387 550 l 2
 401 550 409 544 409 532 c 0
 409 530 408 527 408 525 c 2
 393 435 l 2
 390 418 380 410 364 410 c 2
 264 410 l 2
 250 410 242 416 242 428 c 0
 242 430 243 433 243 435 c 2
 258 525 l 2
 261 542 271 550 287 550 c 2
322 -2 m 2
 294 -181 217 -247 38 -247 c 0
 24 -247 16 -241 16 -229 c 0
 16 -227 17 -224 17 -222 c 2
 21 -196 l 2
 24 -179 34 -171 50 -171 c 0
 167 -171 219 -125 237 0 c 1
 197 0 l 2
 183 0 175 6 175 18 c 0
 175 20 176 23 176 25 c 2
 191 115 l 2
 194 132 204 140 220 140 c 2
 320 140 l 2
 334 140 342 134 342 122 c 0
 342 120 341 117 341 115 c 2
 322 -2 l 2
EndSplineSet
EndChar

StartChar: less
Encoding: 60 60 29
Width: 575
GlyphClass: 2
Flags: W
LayerCount: 2
Fore
SplineSet
400 -2 m 2
 113 242 l 2
 93 258 82 279 82 300 c 0
 82 303 82 307 83 310 c 0
 87 334 106 359 135 378 c 2
 497 622 l 2
 503 626 510 628 516 628 c 0
 523 628 529 625 533 618 c 2
 548 595 l 2
 551 590 552 585 552 581 c 0
 552 573 548 566 539 560 c 2
 167 310 l 1
 459 60 l 2
 465 55 468 50 468 44 c 0
 468 38 464 32 458 25 c 2
 435 2 l 2
 428 -5 421 -8 415 -8 c 0
 410 -8 405 -6 400 -2 c 2
EndSplineSet
EndChar

StartChar: equal
Encoding: 61 61 30
Width: 575
GlyphClass: 2
Flags: W
LayerCount: 2
Fore
SplineSet
98 387 m 2
 84 387 76 393 76 405 c 0
 76 407 77 410 77 412 c 2
 81 439 l 2
 84 456 94 464 110 464 c 2
 533 464 l 2
 547 464 555 458 555 446 c 0
 555 444 554 441 554 439 c 2
 550 412 l 2
 547 395 537 387 521 387 c 2
 98 387 l 2
62 157 m 2
 48 157 40 163 40 175 c 0
 40 177 41 180 41 182 c 2
 45 209 l 2
 48 226 58 234 74 234 c 2
 497 234 l 2
 511 234 519 228 519 216 c 0
 519 214 518 211 518 209 c 2
 514 182 l 2
 511 165 501 157 485 157 c 2
 62 157 l 2
EndSplineSet
EndChar

StartChar: greater
Encoding: 62 62 31
Width: 575
GlyphClass: 2
Flags: W
LayerCount: 2
Fore
SplineSet
194 623 m 2
 481 379 l 2
 501 363 512 342 512 321 c 0
 512 318 512 314 511 311 c 0
 507 287 488 262 459 243 c 2
 97 -1 l 2
 91 -5 84 -7 78 -7 c 0
 71 -7 65 -4 61 3 c 2
 46 26 l 2
 43 31 42 36 42 40 c 0
 42 48 46 55 55 61 c 2
 427 311 l 1
 135 561 l 2
 129 566 126 571 126 577 c 0
 126 583 130 589 136 596 c 2
 159 619 l 2
 166 626 173 629 179 629 c 0
 184 629 189 627 194 623 c 2
EndSplineSet
EndChar

StartChar: question
Encoding: 63 63 32
Width: 575
GlyphClass: 2
Flags: W
LayerCount: 2
Fore
SplineSet
216 72 m 2
 209 25 l 2
 206 8 196 0 180 0 c 2
 145 0 l 2
 131 0 123 6 123 18 c 0
 123 20 124 23 124 25 c 2
 131 72 l 2
 134 89 144 97 160 97 c 2
 195 97 l 2
 209 97 217 91 217 79 c 0
 217 77 216 74 216 72 c 2
129 651 m 2
 132 675 l 2
 135 691 145 700 161 700 c 0
 430 698 540 605 540 510 c 0
 540 390 401 327 256 327 c 2
 255 327 l 1
 240 230 l 2
 237 214 227 205 211 205 c 2
 176 205 l 2
 162 205 154 212 154 224 c 0
 154 226 155 228 155 230 c 2
 178 376 l 2
 180 392 191 401 207 401 c 2
 268 401 l 2
 363 401 454 434 454 503 c 0
 454 579 339 625 150 626 c 0
 136 626 128 633 128 645 c 0
 128 647 129 649 129 651 c 2
EndSplineSet
EndChar

StartChar: at
Encoding: 64 64 33
Width: 575
GlyphClass: 2
Flags: W
LayerCount: 2
Fore
SplineSet
425 164 m 1
 460 388 l 1
 403 388 359 354 347 276 c 0
 345 265 345 255 345 246 c 0
 345 189 376 164 425 164 c 1
25 88 m 2
 84 464 l 2
 110 627 203 710 360 710 c 0
 494 710 562 649 562 528 c 0
 562 508 561 487 557 464 c 2
 502 112 l 2
 499 96 489 87 473 87 c 2
 413 87 l 2
 315 87 258 136 258 231 c 0
 258 245 259 260 262 276 c 0
 282 401 361 465 473 465 c 1
 476 482 477 497 477 511 c 0
 477 592 433 634 348 634 c 0
 247 634 187 577 169 464 c 2
 110 88 l 2
 107 71 106 55 106 41 c 0
 106 -41 149 -82 235 -82 c 0
 268 -82 296 -76 331 -64 c 0
 335 -62 339 -62 343 -62 c 0
 352 -62 358 -67 361 -78 c 2
 367 -105 l 2
 368 -108 369 -111 369 -114 c 0
 369 -125 362 -133 349 -137 c 0
 308 -151 269 -158 223 -158 c 0
 88 -158 20 -97 20 24 c 0
 20 44 21 65 25 88 c 2
EndSplineSet
EndChar

StartChar: A
Encoding: 65 65 34
Width: 575
GlyphClass: 2
Flags: W
AnchorPoint: "Anchor-3" 487 0 basechar 0
AnchorPoint: "Anchor-2" 248 0 basechar 0
AnchorPoint: "Anchor-1" 360 700 basechar 0
LayerCount: 2
Fore
SplineSet
469 621 m 2
 523 28 l 1
 523 24 l 2
 523 9 513 0 497 0 c 2
 461 0 l 2
 446 0 438 7 437 22 c 2
 419 220 l 1
 147 220 l 1
 66 22 l 2
 60 7 49 0 34 0 c 2
 -1 0 l 2
 -14 0 -21 6 -21 16 c 0
 -21 20 -20 23 -18 28 c 2
 224 621 l 2
 248 679 296 710 355 710 c 0
 414 710 464 679 469 621 c 2
306 607 m 2
 178 296 l 1
 412 296 l 1
 384 607 l 2
 382 625 366 634 349 634 c 0
 332 634 312 625 306 607 c 2
EndSplineSet
EndChar

StartChar: B
Encoding: 66 66 35
Width: 575
GlyphClass: 2
Flags: W
AnchorPoint: "Anchor-2" 248 0 basechar 0
AnchorPoint: "Anchor-1" 360 700 basechar 0
LayerCount: 2
Fore
SplineSet
66 25 m 2
 161 624 l 1
 123 624 l 2
 109 624 101 630 101 642 c 0
 101 644 102 647 102 649 c 2
 106 675 l 2
 109 692 119 700 135 700 c 2
 315 700 l 2
 435 700 519 658 519 553 c 0
 519 476 473 404 401 370 c 1
 469 346 507 289 507 213 c 0
 507 75 382 0 224 0 c 2
 87 0 l 2
 73 0 65 6 65 18 c 0
 65 20 66 23 66 25 c 2
246 624 m 1
 211 403 l 1
 268 403 l 2
 370 403 442 448 442 527 c 0
 442 591 394 624 303 624 c 2
 246 624 l 1
160 77 m 1
 237 77 l 2
 348 77 431 121 431 215 c 0
 431 299 362 326 276 326 c 2
 199 326 l 1
 160 77 l 1
EndSplineSet
EndChar

StartChar: C
Encoding: 67 67 36
Width: 575
GlyphClass: 2
Flags: W
AnchorPoint: "Anchor-2" 248 0 basechar 0
AnchorPoint: "Anchor-1" 360 700 basechar 0
LayerCount: 2
Fore
SplineSet
422 81 m 0
 426 83 430 83 434 83 c 0
 443 83 449 78 452 67 c 2
 458 43 l 2
 459 40 459 37 459 34 c 0
 459 23 453 15 440 10 c 0
 390 -10 342 -20 297 -20 c 0
 194 -20 85 33 85 207 c 0
 85 246 90 280 107 390 c 0
 147 640 295 710 413 710 c 0
 458 710 502 700 546 680 c 0
 555 676 559 671 559 663 c 0
 559 658 557 653 554 647 c 2
 540 623 l 2
 534 612 526 607 517 607 c 0
 513 607 510 607 506 609 c 0
 464 625 430 632 399 632 c 0
 320 632 224 586 193 390 c 0
 176 286 172 253 172 217 c 0
 172 91 241 58 308 58 c 0
 339 58 376 65 422 81 c 0
EndSplineSet
EndChar

StartChar: D
Encoding: 68 68 37
Width: 575
GlyphClass: 2
Flags: W
AnchorPoint: "Anchor-2" 248 0 basechar 0
AnchorPoint: "Anchor-1" 360 700 basechar 0
LayerCount: 2
Fore
SplineSet
133 700 m 2
 185 700 l 2
 402 700 546 648 546 473 c 0
 546 433 542 405 528 320 c 0
 494 102 394 0 143 0 c 2
 89 0 l 2
 74 0 65 8 65 21 c 0
 65 23 66 25 66 27 c 2
 161 624 l 1
 125 624 l 2
 110 624 101 632 101 645 c 0
 101 647 102 649 102 651 c 2
 106 677 l 2
 109 694 117 700 133 700 c 2
160 76 m 1
 345 80 415 145 444 332 c 0
 459 420 461 441 461 473 c 0
 461 570 405 614 247 622 c 1
 160 76 l 1
EndSplineSet
EndChar

StartChar: E
Encoding: 69 69 38
Width: 575
GlyphClass: 2
Flags: W
AnchorPoint: "Anchor-3" 442 0 basechar 0
AnchorPoint: "Anchor-2" 248 0 basechar 0
AnchorPoint: "Anchor-1" 360 700 basechar 0
LayerCount: 2
Fore
SplineSet
143 77 m 1
 464 77 l 2
 478 77 486 71 486 59 c 0
 486 57 485 54 485 52 c 2
 481 25 l 2
 478 8 468 0 452 0 c 2
 70 0 l 2
 56 0 48 6 48 18 c 0
 48 20 49 23 49 25 c 2
 152 675 l 2
 155 692 165 700 181 700 c 2
 540 700 l 2
 554 700 562 694 562 682 c 0
 562 680 561 677 561 675 c 2
 557 649 l 2
 554 632 544 624 528 624 c 2
 229 624 l 1
 194 403 l 1
 472 403 l 2
 486 403 494 397 494 385 c 0
 494 383 493 380 493 378 c 2
 489 351 l 2
 486 334 476 326 460 326 c 2
 182 326 l 1
 143 77 l 1
EndSplineSet
EndChar

StartChar: F
Encoding: 70 70 39
Width: 575
GlyphClass: 2
Flags: W
AnchorPoint: "Anchor-2" 248 0 basechar 0
AnchorPoint: "Anchor-1" 360 700 basechar 0
LayerCount: 2
Fore
SplineSet
181 700 m 2
 562 700 l 2
 576 700 584 694 584 682 c 0
 584 680 583 677 583 675 c 2
 579 649 l 2
 576 632 566 624 550 624 c 2
 229 624 l 1
 189 368 l 1
 488 368 l 2
 502 368 510 362 510 350 c 0
 510 348 509 345 509 343 c 2
 505 317 l 2
 502 300 492 292 476 292 c 2
 177 292 l 1
 134 25 l 2
 131 8 121 0 105 0 c 2
 70 0 l 2
 56 0 48 6 48 18 c 0
 48 20 49 23 49 25 c 2
 152 675 l 2
 155 692 165 700 181 700 c 2
EndSplineSet
EndChar

StartChar: G
Encoding: 71 71 40
Width: 575
GlyphClass: 2
Flags: W
AnchorPoint: "Anchor-2" 248 0 basechar 0
AnchorPoint: "Anchor-1" 360 700 basechar 0
LayerCount: 2
Fore
SplineSet
365 389 m 2
 497 389 l 2
 511 389 519 383 519 371 c 0
 519 369 518 366 518 364 c 2
 467 41 l 2
 465 27 457 17 443 11 c 0
 391 -10 342 -20 297 -20 c 0
 194 -20 85 33 85 206 c 0
 85 246 90 280 107 390 c 0
 147 640 295 710 413 710 c 0
 458 710 502 700 546 680 c 0
 555 676 559 671 559 663 c 0
 559 658 557 653 554 647 c 2
 540 623 l 2
 534 612 526 607 517 607 c 0
 513 607 510 607 506 609 c 0
 464 625 430 632 399 632 c 0
 320 632 224 586 193 390 c 0
 176 286 172 253 172 217 c 0
 172 91 241 58 308 58 c 0
 330 58 356 62 386 70 c 1
 425 312 l 1
 353 312 l 2
 339 312 331 318 331 330 c 0
 331 332 332 335 332 337 c 2
 336 363 l 2
 339 380 349 389 365 389 c 2
EndSplineSet
EndChar

StartChar: H
Encoding: 72 72 41
Width: 575
GlyphClass: 2
Flags: W
AnchorPoint: "Anchor-2" 248 0 basechar 0
AnchorPoint: "Anchor-1" 360 700 basechar 0
LayerCount: 2
Fore
SplineSet
518 700 m 2
 553 700 l 2
 567 700 575 694 575 682 c 0
 575 680 574 677 574 675 c 2
 471 25 l 2
 468 8 458 0 442 0 c 2
 407 0 l 2
 393 0 385 6 385 18 c 0
 385 20 386 23 386 25 c 2
 435 333 l 1
 166 333 l 1
 117 25 l 2
 114 8 104 0 88 0 c 2
 53 0 l 2
 39 0 31 6 31 18 c 0
 31 20 32 23 32 25 c 2
 135 675 l 2
 138 692 148 700 164 700 c 2
 199 700 l 2
 213 700 221 694 221 682 c 0
 221 680 220 677 220 675 c 2
 178 410 l 1
 447 410 l 1
 489 675 l 2
 492 692 502 700 518 700 c 2
EndSplineSet
EndChar

StartChar: I
Encoding: 73 73 42
Width: 575
GlyphClass: 2
Flags: W
AnchorPoint: "Anchor-3" 416 0 basechar 0
AnchorPoint: "Anchor-2" 248 0 basechar 0
AnchorPoint: "Anchor-1" 360 700 basechar 0
LayerCount: 2
Fore
SplineSet
191 700 m 2
 526 700 l 2
 540 700 548 694 548 682 c 0
 548 680 547 677 547 675 c 2
 543 649 l 2
 540 632 530 624 514 624 c 2
 389 624 l 1
 303 77 l 1
 438 77 l 2
 452 77 460 71 460 59 c 0
 460 57 459 54 459 52 c 2
 455 25 l 2
 452 8 442 0 426 0 c 2
 71 0 l 2
 57 0 49 6 49 18 c 0
 49 20 50 23 50 25 c 2
 54 52 l 2
 57 69 67 77 83 77 c 2
 218 77 l 1
 304 624 l 1
 179 624 l 2
 165 624 157 630 157 642 c 0
 157 644 158 647 158 649 c 2
 162 675 l 2
 165 692 175 700 191 700 c 2
EndSplineSet
EndChar

StartChar: J
Encoding: 74 74 43
Width: 575
GlyphClass: 2
Flags: W
AnchorPoint: "Anchor-2" 248 0 basechar 0
AnchorPoint: "Anchor-1" 360 700 basechar 0
LayerCount: 2
Fore
SplineSet
268 700 m 2
 536 700 l 2
 550 700 558 694 558 682 c 0
 558 680 557 677 557 675 c 2
 494 275 l 2
 459 52 328 -10 164 -10 c 0
 134 -10 88 -8 36 3 c 0
 25 5 19 11 19 20 c 0
 19 24 20 28 22 33 c 2
 33 59 l 2
 38 72 47 79 59 79 c 0
 61 79 64 78 67 78 c 0
 112 69 155 67 176 67 c 0
 332 67 390 153 409 275 c 2
 464 624 l 1
 256 624 l 2
 242 624 234 630 234 642 c 0
 234 644 235 647 235 649 c 2
 239 675 l 2
 242 692 252 700 268 700 c 2
EndSplineSet
EndChar

StartChar: K
Encoding: 75 75 44
Width: 575
GlyphClass: 2
Flags: W
AnchorPoint: "Anchor-2" 248 0 basechar 0
AnchorPoint: "Anchor-1" 360 700 basechar 0
LayerCount: 2
Fore
SplineSet
455 0 m 2
 403 0 l 2
 389 0 382 5 376 16 c 2
 203 322 l 2
 199 329 191 334 183 334 c 1
 134 25 l 2
 131 9 121 0 105 0 c 2
 70 0 l 2
 56 0 48 7 48 19 c 0
 48 21 49 23 49 25 c 2
 152 675 l 2
 155 691 165 700 181 700 c 2
 216 700 l 2
 230 700 238 693 238 681 c 0
 238 679 237 677 237 675 c 2
 191 387 l 1
 199 387 209 392 215 399 c 2
 465 685 l 2
 475 696 485 700 498 700 c 2
 551 700 l 2
 564 700 570 695 570 688 c 0
 570 683 567 677 561 670 c 2
 303 387 l 2
 292 375 273 361 260 361 c 1
 273 361 288 347 295 335 c 2
 475 31 l 2
 478 26 479 22 479 18 c 0
 479 8 470 0 455 0 c 2
EndSplineSet
EndChar

StartChar: L
Encoding: 76 76 45
Width: 575
GlyphClass: 2
Flags: W
AnchorPoint: "Anchor-4" 394 400 basechar 0
AnchorPoint: "Anchor-2" 248 0 basechar 0
AnchorPoint: "Anchor-1" 360 700 basechar 0
AnchorPoint: "Anchor-0" 461 700 basechar 0
LayerCount: 2
Fore
SplineSet
143 77 m 1
 502 77 l 2
 516 77 524 71 524 59 c 0
 524 57 523 54 523 52 c 2
 519 25 l 2
 516 8 506 0 490 0 c 2
 70 0 l 2
 56 0 48 6 48 18 c 0
 48 20 49 23 49 25 c 2
 152 675 l 2
 155 692 165 700 181 700 c 2
 216 700 l 2
 230 700 238 694 238 682 c 0
 238 680 237 677 237 675 c 2
 143 77 l 1
EndSplineSet
EndChar

StartChar: M
Encoding: 77 77 46
Width: 575
GlyphClass: 2
Flags: W
AnchorPoint: "Anchor-2" 248 0 basechar 0
AnchorPoint: "Anchor-1" 360 700 basechar 0
LayerCount: 2
Fore
SplineSet
572 700 m 2
 587 700 595 694 595 682 c 0
 595 680 594 677 594 675 c 2
 510 25 l 2
 508 10 494 0 479 0 c 2
 445 0 l 2
 432 0 425 8 425 20 c 2
 425 25 l 1
 488 540 l 1
 342 318 l 2
 334 305 324 300 310 300 c 2
 282 300 l 2
 268 300 260 305 256 318 c 2
 180 540 l 1
 81 25 l 2
 78 10 67 0 52 0 c 2
 17 0 l 2
 4 0 -5 7 -5 19 c 0
 -5 21 -4 23 -4 25 c 2
 120 675 l 2
 123 691 132 700 150 700 c 2
 168 700 l 2
 196 700 213 689 221 664 c 2
 312 399 l 1
 489 664 l 2
 505 689 526 700 554 700 c 2
 572 700 l 2
EndSplineSet
EndChar

StartChar: N
Encoding: 78 78 47
Width: 575
GlyphClass: 2
Flags: W
AnchorPoint: "Anchor-2" 248 0 basechar 0
AnchorPoint: "Anchor-1" 360 700 basechar 0
LayerCount: 2
Fore
SplineSet
519 700 m 2
 554 700 l 2
 568 700 576 695 576 683 c 0
 576 681 575 678 575 676 c 2
 470 25 l 2
 467 8 457 0 441 0 c 2
 423 0 l 2
 395 0 379 11 370 36 c 2
 198 527 l 1
 119 25 l 2
 116 8 106 0 90 0 c 2
 55 0 l 2
 41 0 33 6 33 18 c 0
 33 20 34 23 34 25 c 2
 137 675 l 2
 140 692 150 700 166 700 c 2
 186 700 l 2
 214 700 231 689 239 664 c 2
 408 169 l 1
 490 675 l 2
 492 690 504 700 519 700 c 2
EndSplineSet
EndChar

StartChar: O
Encoding: 79 79 48
Width: 575
GlyphClass: 2
Flags: W
AnchorPoint: "Anchor-2" 248 0 basechar 0
AnchorPoint: "Anchor-1" 360 700 basechar 0
LayerCount: 2
Fore
SplineSet
111 457 m 0
 137 624 238 710 356 710 c 0
 458 710 535 644 535 519 c 0
 535 480 529 456 496 243 c 0
 470 78 370 -10 252 -10 c 0
 155 -10 77 48 72 162 c 1
 72 177 l 2
 72 222 80 267 111 457 c 0
159 172 m 0
 166 104 214 67 264 67 c 0
 329 67 393 131 411 243 c 0
 443 443 449 475 449 503 c 0
 449 587 399 634 344 634 c 0
 279 634 214 569 196 457 c 0
 167 275 158 228 158 193 c 0
 158 186 158 179 159 172 c 0
EndSplineSet
EndChar

StartChar: P
Encoding: 80 80 49
Width: 575
GlyphClass: 2
Flags: W
AnchorPoint: "Anchor-2" 248 0 basechar 0
AnchorPoint: "Anchor-1" 360 700 basechar 0
LayerCount: 2
Fore
SplineSet
181 700 m 2
 316 700 l 2
 480 700 556 616 556 508 c 0
 556 360 418 260 247 260 c 2
 172 260 l 1
 134 25 l 2
 131 8 121 0 105 0 c 2
 70 0 l 2
 56 0 48 6 48 18 c 0
 48 20 49 23 49 25 c 2
 152 675 l 2
 155 692 165 700 181 700 c 2
184 337 m 1
 259 337 l 2
 379 337 470 402 470 495 c 0
 470 569 419 624 304 624 c 2
 229 624 l 1
 184 337 l 1
EndSplineSet
EndChar

StartChar: Q
Encoding: 81 81 50
Width: 575
GlyphClass: 2
Flags: W
AnchorPoint: "Anchor-1" 360 700 basechar 0
LayerCount: 2
Fore
SplineSet
159 172 m 0
 166 104 214 67 264 67 c 0
 329 67 393 131 411 243 c 0
 443 443 449 475 449 503 c 0
 449 587 399 634 344 634 c 0
 279 634 214 569 196 457 c 0
 167 275 158 228 158 193 c 0
 158 186 158 179 159 172 c 0
473 -142 m 2
 480 -168 l 2
 481 -171 481 -174 481 -176 c 0
 481 -187 475 -196 461 -200 c 0
 426 -212 388 -220 353 -220 c 0
 270 -220 199 -179 199 -62 c 0
 199 -45 201 -26 204 -6 c 2
 204 -5 l 1
 130 11 76 67 72 162 c 1
 72 177 l 2
 72 222 80 267 111 457 c 0
 137 624 238 710 356 710 c 0
 458 710 535 644 535 519 c 0
 535 480 529 456 496 243 c 0
 473 96 391 10 290 -7 c 1
 287 -26 286 -42 286 -56 c 0
 286 -123 317 -142 365 -142 c 0
 390 -142 414 -138 442 -128 c 0
 446 -126 450 -126 454 -126 c 0
 463 -126 469 -131 473 -142 c 2
EndSplineSet
EndChar

StartChar: R
Encoding: 82 82 51
Width: 575
GlyphClass: 2
Flags: W
AnchorPoint: "Anchor-2" 248 0 basechar 0
AnchorPoint: "Anchor-1" 360 700 basechar 0
LayerCount: 2
Fore
SplineSet
411 335 m 1
 516 30 l 2
 517 26 518 23 518 20 c 0
 518 8 508 0 493 0 c 2
 451 0 l 2
 437 0 429 6 425 18 c 2
 325 312 l 1
 180 312 l 1
 134 25 l 2
 131 8 121 0 105 0 c 2
 70 0 l 2
 56 0 48 6 48 18 c 0
 48 20 49 23 49 25 c 2
 152 675 l 2
 155 692 165 700 181 700 c 2
 339 700 l 2
 476 700 544 631 544 537 c 0
 544 454 489 370 411 335 c 1
192 389 m 1
 290 389 l 2
 383 389 457 446 457 520 c 0
 457 575 417 624 327 624 c 2
 229 624 l 1
 192 389 l 1
EndSplineSet
EndChar

StartChar: S
Encoding: 83 83 52
Width: 575
GlyphClass: 2
Flags: W
AnchorPoint: "Anchor-2" 248 0 basechar 0
AnchorPoint: "Anchor-1" 360 700 basechar 0
LayerCount: 2
Fore
SplineSet
531 652 m 2
 517 625 l 2
 512 614 504 609 495 609 c 0
 492 609 488 609 484 611 c 0
 451 624 415 634 377 634 c 0
 294 634 210 586 210 511 c 0
 210 345 507 442 507 220 c 0
 507 78 363 -10 209 -10 c 0
 161 -10 107 0 65 20 c 0
 56 24 52 29 52 37 c 0
 52 42 54 47 57 53 c 2
 72 78 l 2
 78 89 86 94 95 94 c 0
 99 94 102 94 106 92 c 0
 150 73 192 69 226 69 c 0
 323 69 419 118 419 204 c 0
 419 368 122 268 122 493 c 0
 122 623 248 710 389 710 c 0
 432 710 486 701 525 683 c 0
 532 679 536 675 536 669 c 0
 536 665 534 659 531 652 c 2
EndSplineSet
EndChar

StartChar: T
Encoding: 84 84 53
Width: 575
GlyphClass: 2
Flags: W
AnchorPoint: "Anchor-2" 248 0 basechar 0
AnchorPoint: "Anchor-1" 360 700 basechar 0
LayerCount: 2
Fore
SplineSet
621 675 m 2
 617 649 l 2
 614 632 604 624 588 624 c 2
 389 624 l 1
 294 25 l 2
 291 8 281 0 265 0 c 2
 230 0 l 2
 216 0 208 6 208 18 c 0
 208 20 209 23 209 25 c 2
 304 624 l 1
 106 624 l 2
 92 624 84 630 84 642 c 0
 84 644 85 647 85 649 c 2
 89 675 l 2
 92 692 102 700 118 700 c 2
 600 700 l 2
 614 700 622 694 622 682 c 0
 622 680 621 677 621 675 c 2
EndSplineSet
EndChar

StartChar: U
Encoding: 85 85 54
Width: 575
GlyphClass: 2
Flags: W
AnchorPoint: "Anchor-3" 326 5 basechar 0
AnchorPoint: "Anchor-2" 248 0 basechar 0
AnchorPoint: "Anchor-1" 360 700 basechar 0
LayerCount: 2
Fore
SplineSet
406 213 m 2
 479 675 l 2
 482 692 492 700 508 700 c 2
 543 700 l 2
 557 700 565 694 565 682 c 0
 565 680 564 677 564 675 c 2
 491 213 l 2
 465 46 377 -10 259 -10 c 0
 157 -10 67 32 67 152 c 0
 67 171 69 191 72 213 c 2
 145 675 l 2
 148 692 158 700 174 700 c 2
 209 700 l 2
 223 700 231 694 231 682 c 0
 231 680 230 677 230 675 c 2
 157 213 l 2
 154 192 152 174 152 159 c 0
 152 90 202 66 271 66 c 0
 355 66 389 103 406 213 c 2
EndSplineSet
EndChar

StartChar: V
Encoding: 86 86 55
Width: 575
GlyphClass: 2
Flags: W
AnchorPoint: "Anchor-2" 248 0 basechar 0
AnchorPoint: "Anchor-1" 360 700 basechar 0
LayerCount: 2
Fore
SplineSet
625 672 m 2
 383 79 l 2
 360 21 312 -10 253 -10 c 0
 194 -10 144 21 138 79 c 2
 84 672 l 1
 84 675 l 2
 84 691 93 700 110 700 c 2
 145 700 l 2
 160 700 169 693 170 678 c 2
 224 93 l 2
 225 75 242 66 259 66 c 0
 276 66 295 75 302 93 c 2
 541 678 l 2
 547 693 557 700 572 700 c 2
 608 700 l 2
 620 700 628 694 628 684 c 0
 628 680 627 677 625 672 c 2
EndSplineSet
EndChar

StartChar: W
Encoding: 87 87 56
Width: 575
GlyphClass: 2
Flags: W
AnchorPoint: "Anchor-2" 248 0 basechar 0
AnchorPoint: "Anchor-1" 360 700 basechar 0
LayerCount: 2
Fore
SplineSet
35 0 m 2
 20 0 12 6 12 18 c 0
 12 20 13 23 13 25 c 2
 97 675 l 2
 99 690 113 700 128 700 c 2
 162 700 l 2
 175 700 182 692 182 680 c 2
 182 675 l 1
 119 160 l 1
 265 382 l 2
 273 395 283 400 297 400 c 2
 325 400 l 2
 339 400 347 395 351 382 c 2
 427 160 l 1
 526 675 l 2
 529 690 540 700 555 700 c 2
 590 700 l 2
 603 700 612 693 612 681 c 0
 612 679 611 677 611 675 c 2
 487 25 l 2
 484 9 475 0 457 0 c 2
 439 0 l 2
 411 0 394 11 386 36 c 2
 295 301 l 1
 118 36 l 2
 102 11 81 0 53 0 c 2
 35 0 l 2
EndSplineSet
EndChar

StartChar: X
Encoding: 88 88 57
Width: 575
GlyphClass: 2
Flags: W
AnchorPoint: "Anchor-2" 248 0 basechar 0
AnchorPoint: "Anchor-1" 360 700 basechar 0
LayerCount: 2
Fore
SplineSet
595 671 m 2
 415 390 l 2
 406 376 390 364 372 357 c 1
 388 351 400 338 405 325 c 2
 500 30 l 2
 501 27 501 24 501 21 c 0
 501 8 493 0 477 0 c 2
 446 0 l 2
 432 0 423 6 419 18 c 2
 325 295 l 2
 318 315 310 325 300 325 c 0
 289 325 277 315 265 295 c 2
 82 18 l 2
 74 6 64 0 50 0 c 2
 19 0 l 2
 6 0 0 5 0 14 c 0
 0 18 1 24 5 30 c 2
 195 325 l 2
 203 338 220 351 237 357 c 1
 222 364 209 376 205 390 c 2
 114 671 l 2
 113 674 112 678 112 681 c 0
 112 693 121 700 137 700 c 2
 168 700 l 2
 182 700 190 695 194 682 c 2
 285 419 l 2
 291 400 299 390 310 390 c 0
 320 390 332 399 345 419 c 2
 517 682 l 2
 525 695 536 700 550 700 c 2
 581 700 l 2
 594 700 600 695 600 686 c 0
 600 682 599 677 595 671 c 2
EndSplineSet
EndChar

StartChar: Y
Encoding: 89 89 58
Width: 575
GlyphClass: 2
Flags: W
AnchorPoint: "Anchor-2" 248 0 basechar 0
AnchorPoint: "Anchor-1" 360 700 basechar 0
LayerCount: 2
Fore
SplineSet
567 700 m 2
 603 700 l 2
 616 700 623 695 623 687 c 0
 623 683 621 677 617 671 c 2
 426 380 l 2
 404 347 375 325 340 315 c 1
 294 25 l 2
 291 8 281 0 265 0 c 2
 230 0 l 2
 216 0 208 6 208 18 c 0
 208 20 209 23 209 25 c 2
 255 315 l 1
 224 325 201 347 191 380 c 2
 92 671 l 2
 90 675 90 678 90 681 c 0
 90 692 99 700 114 700 c 2
 151 700 l 2
 165 700 173 695 177 682 c 2
 270 410 l 2
 277 391 291 380 309 380 c 0
 327 380 343 391 355 410 c 2
 534 682 l 2
 542 695 553 700 567 700 c 2
EndSplineSet
EndChar

StartChar: Z
Encoding: 90 90 59
Width: 575
GlyphClass: 2
Flags: W
AnchorPoint: "Anchor-2" 248 0 basechar 0
AnchorPoint: "Anchor-1" 360 700 basechar 0
LayerCount: 2
Fore
SplineSet
466 455 m 2
 191 217 l 2
 159 190 136 141 123 77 c 1
 458 77 l 2
 472 77 480 71 480 59 c 0
 480 57 479 54 479 52 c 2
 474 25 l 2
 471 8 461 0 445 0 c 2
 50 0 l 2
 36 0 28 6 28 18 c 0
 28 20 29 23 29 25 c 2
 34 55 l 2
 48 142 87 216 143 265 c 2
 420 504 l 2
 449 529 472 571 483 624 c 1
 180 624 l 2
 166 624 158 630 158 642 c 0
 158 644 159 647 159 649 c 2
 163 675 l 2
 166 692 176 700 192 700 c 2
 556 700 l 2
 570 700 578 694 578 682 c 0
 578 680 577 677 577 675 c 2
 573 645 l 2
 561 572 523 504 466 455 c 2
EndSplineSet
EndChar

StartChar: bracketleft
Encoding: 91 91 60
Width: 575
GlyphClass: 2
Flags: W
LayerCount: 2
Fore
SplineSet
179 -102 m 1
 394 -102 l 2
 408 -102 416 -108 416 -120 c 0
 416 -122 415 -125 415 -127 c 2
 411 -153 l 2
 408 -170 398 -178 382 -178 c 2
 107 -178 l 2
 93 -178 85 -172 85 -160 c 0
 85 -158 86 -155 86 -153 c 2
 225 725 l 2
 228 742 238 750 254 750 c 2
 529 750 l 2
 543 750 551 744 551 732 c 0
 551 730 550 727 550 725 c 2
 546 699 l 2
 543 682 533 674 517 674 c 2
 302 674 l 1
 179 -102 l 1
EndSplineSet
EndChar

StartChar: backslash
Encoding: 92 92 61
Width: 575
GlyphClass: 2
Flags: W
LayerCount: 2
Fore
SplineSet
137 662 m 2
 136 665 135 668 135 671 c 0
 135 681 142 690 154 695 c 2
 183 708 l 2
 188 710 192 711 196 711 c 0
 204 711 211 706 214 697 c 2
 452 -25 l 2
 453 -28 454 -31 454 -34 c 0
 454 -44 447 -53 435 -58 c 2
 406 -71 l 2
 401 -73 397 -74 393 -74 c 0
 384 -74 377 -69 374 -60 c 2
 137 662 l 2
EndSplineSet
EndChar

StartChar: bracketright
Encoding: 93 93 62
Width: 575
GlyphClass: 2
Flags: W
LayerCount: 2
Fore
SplineSet
447 674 m 1
 232 674 l 2
 218 674 210 680 210 692 c 0
 210 694 211 697 211 699 c 2
 215 725 l 2
 218 742 228 750 244 750 c 2
 519 750 l 2
 533 750 541 744 541 732 c 0
 541 730 540 727 540 725 c 2
 401 -153 l 2
 398 -170 388 -178 372 -178 c 2
 97 -178 l 2
 83 -178 75 -172 75 -160 c 0
 75 -158 76 -155 76 -153 c 2
 80 -127 l 2
 83 -110 93 -102 109 -102 c 2
 324 -102 l 1
 447 674 l 1
EndSplineSet
EndChar

StartChar: asciicircum
Encoding: 94 94 63
Width: 575
GlyphClass: 2
Flags: W
LayerCount: 2
Fore
SplineSet
68 499 m 2
 286 682 l 2
 311 702 332 719 362 719 c 0
 392 719 408 701 425 682 c 2
 585 499 l 2
 590 494 592 489 592 484 c 0
 592 477 587 469 579 463 c 2
 554 443 l 2
 547 438 541 435 535 435 c 0
 529 435 523 438 518 444 c 2
 364 633 l 2
 360 639 357 642 350 642 c 0
 343 642 336 636 333 633 c 2
 119 444 l 2
 112 438 106 435 100 435 c 0
 94 435 89 438 84 443 c 2
 64 463 l 2
 59 468 57 473 57 478 c 0
 57 485 61 492 68 499 c 2
EndSplineSet
EndChar

StartChar: underscore
Encoding: 95 95 64
Width: 575
GlyphClass: 2
Flags: W
LayerCount: 2
Fore
SplineSet
24 -77 m 2
 10 -77 2 -71 2 -59 c 0
 2 -57 3 -54 3 -52 c 2
 7 -25 l 2
 10 -8 20 0 36 0 c 2
 459 0 l 2
 473 0 481 -6 481 -18 c 0
 481 -20 480 -23 480 -25 c 2
 476 -52 l 2
 473 -69 463 -77 447 -77 c 2
 24 -77 l 2
EndSplineSet
EndChar

StartChar: grave
Encoding: 96 96 65
Width: 575
GlyphClass: 2
Flags: W
LayerCount: 2
Fore
SplineSet
440 595 m 2
 449 591 453 585 453 578 c 0
 453 573 451 568 448 562 c 2
 437 544 l 2
 429 534 421 529 412 529 c 0
 409 529 406 530 402 531 c 2
 191 606 l 2
 182 609 177 615 177 623 c 0
 177 628 179 632 182 638 c 2
 212 684 l 2
 217 694 225 699 234 699 c 0
 238 699 243 698 247 696 c 2
 440 595 l 2
EndSplineSet
EndChar

StartChar: a
Encoding: 97 97 66
Width: 575
GlyphClass: 2
Flags: W
AnchorPoint: "Anchor-3" 417 0 basechar 0
AnchorPoint: "Anchor-2" 248 0 basechar 0
AnchorPoint: "Anchor-1" 327 500 basechar 0
LayerCount: 2
Fore
SplineSet
522 471 m 2
 454 30 l 2
 452 14 443 0 427 0 c 2
 390 0 l 2
 376 0 368 7 368 19 c 0
 368 21 369 23 369 25 c 2
 375 63 l 1
 322 15 263 -10 212 -10 c 0
 136 -10 77 36 77 189 c 0
 77 370 157 510 357 510 c 0
 386 510 440 508 501 500 c 0
 515 497 523 489 523 477 c 0
 523 475 522 473 522 471 c 2
388 151 m 1
 433 430 l 1
 395 433 363 434 345 434 c 0
 209 434 163 326 163 204 c 0
 163 94 195 66 242 66 c 0
 283 66 336 95 388 151 c 1
EndSplineSet
EndChar

StartChar: b
Encoding: 98 98 67
Width: 575
GlyphClass: 2
Flags: W
AnchorPoint: "Anchor-2" 248 0 basechar 0
LayerCount: 2
Fore
SplineSet
240 725 m 2
 195 437 l 1
 248 485 307 510 358 510 c 0
 434 510 493 454 493 310 c 0
 493 120 413 -10 213 -10 c 0
 184 -10 130 -8 69 0 c 0
 55 3 48 11 48 24 c 2
 48 29 l 1
 155 725 l 2
 158 742 168 750 184 750 c 2
 219 750 l 2
 233 750 241 744 241 732 c 0
 241 730 240 727 240 725 c 2
182 349 m 1
 137 70 l 1
 175 67 207 66 225 66 c 0
 361 66 407 164 407 295 c 0
 407 396 375 434 328 434 c 0
 287 434 234 405 182 349 c 1
EndSplineSet
EndChar

StartChar: c
Encoding: 99 99 68
Width: 575
GlyphClass: 2
Flags: W
AnchorPoint: "Anchor-2" 248 0 basechar 0
AnchorPoint: "Anchor-1" 327 500 basechar 0
LayerCount: 2
Fore
SplineSet
522 447 m 2
 508 423 l 2
 502 412 494 407 485 407 c 0
 481 407 478 407 474 409 c 0
 433 425 398 432 357 432 c 0
 226 432 166 325 166 211 c 0
 166 102 222 68 299 68 c 0
 340 68 376 75 424 91 c 0
 428 93 432 93 436 93 c 0
 445 93 451 88 454 77 c 2
 460 53 l 2
 461 50 461 48 461 45 c 0
 461 34 455 25 442 20 c 0
 391 0 338 -10 287 -10 c 0
 176 -10 80 45 80 202 c 0
 80 370 187 510 369 510 c 0
 420 510 471 500 514 480 c 0
 523 476 527 471 527 463 c 0
 527 458 525 453 522 447 c 2
EndSplineSet
EndChar

StartChar: d
Encoding: 100 100 69
Width: 575
GlyphClass: 2
Flags: W
AnchorPoint: "Anchor-2" 248 0 basechar 0
AnchorPoint: "Anchor-0" 580 700 basechar 0
LayerCount: 2
Fore
SplineSet
508 750 m 2
 543 750 l 2
 557 750 565 743 565 731 c 0
 565 729 564 727 564 725 c 2
 454 30 l 2
 452 14 443 0 427 0 c 2
 390 0 l 2
 376 0 368 7 368 19 c 0
 368 21 369 23 369 25 c 2
 375 63 l 1
 322 15 263 -10 212 -10 c 0
 136 -10 77 46 77 190 c 0
 77 380 157 510 357 510 c 0
 377 510 409 509 445 506 c 1
 479 725 l 2
 482 741 492 750 508 750 c 2
242 66 m 0
 283 66 336 95 388 151 c 1
 433 430 l 1
 395 433 363 434 345 434 c 0
 209 434 163 336 163 205 c 0
 163 104 195 66 242 66 c 0
EndSplineSet
EndChar

StartChar: e
Encoding: 101 101 70
Width: 575
GlyphClass: 2
Flags: W
AnchorPoint: "Anchor-3" 429 25 basechar 0
AnchorPoint: "Anchor-2" 248 0 basechar 0
AnchorPoint: "Anchor-1" 327 500 basechar 0
LayerCount: 2
Fore
SplineSet
458 77 m 2
 464 53 l 2
 465 50 465 48 465 45 c 0
 465 34 459 25 446 20 c 0
 395 0 338 -10 287 -10 c 0
 176 -10 73 45 73 189 c 0
 73 354 183 510 333 510 c 0
 423 510 507 448 507 331 c 0
 507 310 504 292 499 262 c 0
 496 246 486 237 470 237 c 2
 162 237 l 1
 160 223 159 210 159 199 c 0
 159 102 222 68 299 68 c 0
 340 68 380 75 428 91 c 0
 432 93 436 93 440 93 c 0
 449 93 455 88 458 77 c 2
422 314 m 1
 423 321 424 328 424 334 c 0
 424 401 369 434 322 434 c 0
 269 434 200 392 181 314 c 1
 422 314 l 1
EndSplineSet
EndChar

StartChar: f
Encoding: 102 102 71
Width: 575
GlyphClass: 2
Flags: W
LayerCount: 2
Fore
SplineSet
570 711 m 2
 555 685 l 2
 548 674 540 669 531 669 c 0
 527 669 524 669 520 671 c 0
 494 681 472 685 447 685 c 0
 389 685 346 657 329 549 c 2
 322 500 l 1
 485 500 l 2
 499 500 506 493 506 480 c 2
 506 475 l 1
 502 449 l 2
 499 433 489 424 473 424 c 2
 309 424 l 1
 241 0 l 2
 223 -119 192 -162 87 -218 c 0
 82 -221 77 -222 72 -222 c 0
 64 -222 57 -218 53 -209 c 2
 41 -179 l 2
 39 -175 38 -171 38 -167 c 0
 38 -157 44 -150 56 -144 c 0
 123 -108 144 -79 156 0 c 2
 224 424 l 1
 128 424 l 2
 114 424 106 430 106 442 c 0
 106 444 107 447 107 449 c 2
 111 475 l 2
 113 491 124 500 140 500 c 2
 236 500 l 1
 243 549 l 2
 269 710 364 763 459 763 c 0
 494 763 530 755 561 743 c 0
 570 740 575 735 575 727 c 0
 575 722 573 717 570 711 c 2
EndSplineSet
EndChar

StartChar: g
Encoding: 103 103 72
Width: 575
GlyphClass: 2
Flags: W
AnchorPoint: "Anchor-1" 327 500 basechar 0
LayerCount: 2
Fore
SplineSet
359 -39 m 2
 375 63 l 1
 322 15 263 -10 212 -10 c 0
 136 -10 77 46 77 190 c 0
 77 380 157 510 357 510 c 0
 386 510 440 508 501 500 c 0
 515 497 522 489 522 476 c 2
 522 471 l 1
 443 -38 l 2
 415 -212 330 -250 221 -250 c 0
 173 -250 122 -242 68 -236 c 0
 55 -235 50 -229 50 -219 c 0
 50 -216 51 -212 52 -207 c 2
 57 -181 l 2
 60 -168 69 -160 83 -160 c 2
 88 -160 l 1
 140 -168 185 -175 222 -175 c 0
 296 -175 342 -147 359 -39 c 2
388 151 m 1
 433 430 l 1
 395 433 363 434 345 434 c 0
 209 434 163 336 163 205 c 0
 163 104 195 66 242 66 c 0
 283 66 336 95 388 151 c 1
EndSplineSet
EndChar

StartChar: h
Encoding: 104 104 73
Width: 575
GlyphClass: 2
Flags: W
AnchorPoint: "Anchor-2" 248 0 basechar 0
LayerCount: 2
Fore
SplineSet
249 725 m 2
 204 437 l 1
 256 485 311 510 372 510 c 0
 439 510 497 481 497 359 c 0
 497 336 495 309 490 278 c 2
 450 25 l 2
 448 9 438 0 421 0 c 2
 386 0 l 2
 372 0 365 7 365 20 c 2
 365 25 l 1
 405 278 l 2
 409 304 411 326 411 344 c 0
 411 421 381 434 343 434 c 0
 291 434 243 405 190 349 c 1
 138 25 l 2
 136 9 125 0 109 0 c 2
 74 0 l 2
 60 0 53 7 53 20 c 2
 53 25 l 1
 163 720 l 2
 166 736 175 750 191 750 c 2
 228 750 l 2
 242 750 250 743 250 731 c 0
 250 729 249 727 249 725 c 2
EndSplineSet
EndChar

StartChar: i
Encoding: 105 105 74
Width: 575
GlyphClass: 2
Flags: W
AnchorPoint: "Anchor-3" 423 25 basechar 0
AnchorPoint: "Anchor-2" 248 0 basechar 0
LayerCount: 2
Fore
SplineSet
224 150 m 2
 266 350 l 2
 269 363 270 374 270 384 c 0
 270 417 254 432 215 433 c 0
 199 433 180 431 150 426 c 0
 147 425 145 425 142 425 c 0
 131 425 123 431 121 443 c 2
 117 470 l 1
 117 477 l 2
 117 488 121 496 135 499 c 0
 173 508 207 510 227 510 c 0
 313 510 357 475 357 402 c 0
 357 386 355 369 351 350 c 2
 309 150 l 2
 306 137 305 126 305 116 c 0
 305 83 321 68 360 67 c 0
 376 67 395 69 425 74 c 0
 428 75 430 75 433 75 c 0
 444 75 452 69 454 57 c 2
 458 30 l 1
 458 23 l 2
 458 12 454 4 440 1 c 0
 402 -8 368 -10 348 -10 c 0
 262 -10 218 25 218 98 c 0
 218 114 220 131 224 150 c 2
377 644 m 2
 312 644 l 2
 298 644 291 651 291 664 c 2
 291 669 l 1
 302 735 l 2
 304 751 315 760 331 760 c 2
 396 760 l 2
 410 760 418 754 418 742 c 0
 418 740 417 737 417 735 c 2
 406 669 l 2
 404 653 394 644 377 644 c 2
EndSplineSet
EndChar

StartChar: j
Encoding: 106 106 75
Width: 575
GlyphClass: 2
Flags: W
LayerCount: 2
Fore
SplineSet
461 760 m 2
 526 760 l 2
 540 760 548 754 548 742 c 0
 548 740 547 737 547 735 c 2
 536 669 l 2
 534 653 524 644 507 644 c 2
 442 644 l 2
 428 644 421 651 421 664 c 2
 421 669 l 1
 432 735 l 2
 434 751 445 760 461 760 c 2
504 365 m 0
 504 345 502 324 498 300 c 2
 469 120 l 2
 436 -90 308 -160 182 -160 c 0
 131 -160 81 -150 37 -130 c 0
 28 -126 24 -121 24 -113 c 0
 24 -108 26 -103 29 -97 c 2
 43 -73 l 2
 49 -62 57 -57 66 -57 c 0
 70 -57 73 -57 77 -59 c 0
 119 -75 153 -82 194 -82 c 0
 283 -82 359 -36 383 120 c 2
 412 300 l 2
 415 319 417 336 417 351 c 0
 417 413 389 435 333 435 c 0
 309 435 281 431 248 425 c 0
 245 425 243 424 241 424 c 0
 229 424 222 431 222 443 c 2
 222 445 l 1
 221 473 l 2
 221 488 229 499 246 502 c 0
 283 508 317 512 348 512 c 0
 440 512 504 478 504 365 c 0
EndSplineSet
EndChar

StartChar: k
Encoding: 107 107 76
Width: 575
GlyphClass: 2
Flags: W
AnchorPoint: "Anchor-2" 248 0 basechar 0
LayerCount: 2
Fore
SplineSet
360 510 m 0
 443 510 479 474 479 424 c 0
 479 418 479 413 478 407 c 0
 468 346 414 271 322 220 c 1
 467 31 l 2
 471 26 473 21 473 16 c 0
 473 7 465 0 449 0 c 2
 391 0 l 2
 378 0 370 4 362 13 c 2
 219 203 l 2
 215 207 213 212 213 216 c 0
 213 224 219 232 229 238 c 0
 324 295 377 352 384 392 c 0
 384 395 385 398 385 400 c 0
 385 424 363 433 331 433 c 0
 290 433 238 417 197 396 c 1
 138 25 l 2
 136 9 125 0 109 0 c 2
 74 0 l 2
 60 0 53 7 53 20 c 2
 53 25 l 1
 164 725 l 2
 167 741 177 750 193 750 c 2
 228 750 l 2
 242 750 250 743 250 731 c 0
 250 729 249 727 249 725 c 2
 208 466 l 1
 256 494 310 510 360 510 c 0
EndSplineSet
EndChar

StartChar: l
Encoding: 108 108 77
Width: 575
GlyphClass: 2
Flags: W
AnchorPoint: "Anchor-4" 469 400 basechar 0
AnchorPoint: "Anchor-2" 248 0 basechar 0
AnchorPoint: "Anchor-1" 360 700 basechar 0
AnchorPoint: "Anchor-0" 461 700 basechar 0
LayerCount: 2
Fore
SplineSet
365 600 m 2
 295 150 l 2
 293 137 292 126 292 116 c 0
 292 83 315 68 354 67 c 0
 370 67 395 69 425 74 c 0
 428 75 430 75 433 75 c 0
 444 75 452 69 454 57 c 2
 458 30 l 1
 458 23 l 2
 458 12 454 4 440 1 c 0
 402 -8 362 -10 342 -10 c 0
 256 -10 205 25 205 98 c 0
 205 114 207 131 210 150 c 2
 280 600 l 2
 282 613 283 624 283 634 c 0
 283 667 260 682 221 683 c 0
 205 683 180 681 150 676 c 0
 147 675 145 675 142 675 c 0
 131 675 123 681 121 693 c 2
 117 720 l 1
 117 727 l 2
 117 738 121 746 135 749 c 0
 173 758 213 760 233 760 c 0
 319 760 370 725 370 652 c 0
 370 636 368 619 365 600 c 2
EndSplineSet
EndChar

StartChar: m
Encoding: 109 109 78
Width: 575
GlyphClass: 2
Flags: W
AnchorPoint: "Anchor-2" 248 0 basechar 0
AnchorPoint: "Anchor-1" 327 500 basechar 0
LayerCount: 2
Fore
SplineSet
172 475 m 1
 166 437 l 1
 222 481 269 507 301 507 c 0
 332 507 350 483 351 430 c 1
 412 478 462 507 496 507 c 0
 529 507 546 481 546 422 c 0
 546 402 544 377 540 348 c 2
 488 25 l 2
 486 9 476 0 459 0 c 2
 424 0 l 2
 410 0 403 7 403 20 c 2
 403 25 l 1
 456 358 l 2
 458 373 460 386 460 395 c 0
 460 410 456 418 447 418 c 0
 431 418 400 398 346 357 c 1
 324 210 l 2
 322 194 312 185 295 185 c 2
 260 185 l 2
 246 185 239 192 239 205 c 2
 239 210 l 1
 261 358 l 2
 263 373 265 386 265 395 c 0
 265 410 261 418 252 418 c 0
 236 418 207 399 153 359 c 1
 100 25 l 2
 98 9 87 0 71 0 c 2
 36 0 l 2
 22 0 15 7 15 20 c 2
 15 25 l 1
 86 470 l 2
 88 486 98 500 114 500 c 2
 151 500 l 2
 165 500 172 493 172 480 c 2
 172 475 l 1
EndSplineSet
EndChar

StartChar: n
Encoding: 110 110 79
Width: 575
GlyphClass: 2
Flags: W
AnchorPoint: "Anchor-2" 248 0 basechar 0
AnchorPoint: "Anchor-1" 327 500 basechar 0
LayerCount: 2
Fore
SplineSet
125 475 m 2
 128 492 138 500 154 500 c 2
 189 500 l 2
 203 500 211 494 211 482 c 0
 211 480 210 477 210 475 c 2
 204 437 l 1
 256 485 311 510 362 510 c 0
 437 510 498 481 498 361 c 0
 498 337 495 310 490 278 c 2
 450 25 l 2
 447 8 437 0 421 0 c 2
 386 0 l 2
 372 0 364 6 364 18 c 0
 364 20 365 23 365 25 c 2
 405 278 l 2
 409 305 411 327 411 346 c 0
 411 421 378 434 332 434 c 0
 291 434 243 405 190 349 c 1
 138 25 l 2
 135 9 125 0 109 0 c 2
 74 0 l 2
 60 0 52 6 52 18 c 0
 52 20 53 23 53 25 c 2
 125 475 l 2
EndSplineSet
EndChar

StartChar: o
Encoding: 111 111 80
Width: 575
GlyphClass: 2
Flags: W
AnchorPoint: "Anchor-2" 248 0 basechar 0
AnchorPoint: "Anchor-1" 327 500 basechar 0
LayerCount: 2
Fore
SplineSet
72 189 m 0
 72 347 171 510 332 510 c 0
 426 510 503 452 503 315 c 0
 503 155 410 -10 250 -10 c 0
 155 -10 72 49 72 189 c 0
158 200 m 0
 158 111 201 66 259 66 c 0
 359 66 417 200 417 300 c 0
 417 390 375 434 317 434 c 0
 216 434 158 300 158 200 c 0
EndSplineSet
EndChar

StartChar: p
Encoding: 112 112 81
Width: 575
GlyphClass: 2
Flags: W
AnchorPoint: "Anchor-1" 327 500 basechar 0
LayerCount: 2
Fore
SplineSet
67 -250 m 2
 32 -250 l 2
 18 -250 10 -243 10 -231 c 0
 10 -229 11 -227 11 -225 c 2
 120 470 l 2
 123 486 131 500 147 500 c 2
 184 500 l 2
 198 500 206 493 206 481 c 0
 206 479 205 477 205 475 c 2
 199 437 l 1
 252 485 311 510 362 510 c 0
 438 510 497 454 497 311 c 0
 497 120 417 -10 217 -10 c 0
 197 -10 165 -9 129 -6 c 1
 96 -225 l 2
 94 -241 83 -250 67 -250 c 2
186 349 m 1
 141 70 l 1
 179 67 211 66 229 66 c 0
 365 66 411 164 411 296 c 0
 411 396 379 434 332 434 c 0
 291 434 238 405 186 349 c 1
EndSplineSet
EndChar

StartChar: q
Encoding: 113 113 82
Width: 575
GlyphClass: 2
Flags: W
AnchorPoint: "Anchor-1" 327 500 basechar 0
LayerCount: 2
Fore
SplineSet
335 -225 m 2
 380 63 l 1
 327 15 268 -10 217 -10 c 0
 141 -10 82 46 82 190 c 0
 82 380 162 510 362 510 c 0
 391 510 445 508 506 500 c 0
 520 497 527 489 527 476 c 2
 527 471 l 1
 420 -225 l 2
 417 -242 407 -250 391 -250 c 2
 356 -250 l 2
 342 -250 334 -244 334 -232 c 0
 334 -230 335 -227 335 -225 c 2
393 151 m 1
 438 430 l 1
 400 433 368 434 350 434 c 0
 214 434 168 336 168 205 c 0
 168 104 200 66 247 66 c 0
 288 66 341 95 393 151 c 1
EndSplineSet
EndChar

StartChar: r
Encoding: 114 114 83
Width: 575
GlyphClass: 2
Flags: W
AnchorPoint: "Anchor-2" 248 0 basechar 0
AnchorPoint: "Anchor-1" 327 500 basechar 0
LayerCount: 2
Fore
SplineSet
210 475 m 1
 204 437 l 1
 256 485 311 510 362 510 c 0
 438 510 497 481 497 360 c 2
 497 348 l 2
 497 332 487 323 471 323 c 2
 436 323 l 2
 419 323 411 332 411 349 c 0
 411 422 378 434 332 434 c 0
 291 434 243 405 190 349 c 1
 138 25 l 2
 136 9 125 0 109 0 c 2
 74 0 l 2
 60 0 53 7 53 20 c 2
 53 25 l 1
 124 470 l 2
 126 486 136 500 152 500 c 2
 189 500 l 2
 203 500 210 493 210 480 c 2
 210 475 l 1
EndSplineSet
EndChar

StartChar: s
Encoding: 115 115 84
Width: 575
GlyphClass: 2
Flags: W
AnchorPoint: "Anchor-2" 248 0 basechar 0
AnchorPoint: "Anchor-1" 327 500 basechar 0
LayerCount: 2
Fore
SplineSet
471 469 m 2
 460 443 l 2
 454 431 445 424 434 424 c 0
 432 424 429 425 427 425 c 0
 385 432 355 434 328 434 c 0
 269 434 209 409 209 366 c 0
 209 262 455 340 455 165 c 0
 455 56 346 -10 218 -10 c 0
 186 -10 139 -8 85 1 c 0
 73 3 67 9 67 19 c 0
 67 23 67 27 69 31 c 2
 79 57 l 2
 84 71 93 77 106 77 c 2
 112 77 l 1
 162 68 207 67 230 67 c 0
 305 67 368 99 368 153 c 0
 368 264 123 184 123 352 c 0
 123 450 224 510 340 510 c 0
 366 510 410 508 456 499 c 0
 468 497 473 490 473 481 c 0
 473 477 473 473 471 469 c 2
EndSplineSet
EndChar

StartChar: t
Encoding: 116 116 85
Width: 575
GlyphClass: 2
Flags: W
AnchorPoint: "Anchor-2" 248 0 basechar 0
AnchorPoint: "Anchor-0" 555 700 basechar 0
LayerCount: 2
Fore
SplineSet
456 57 m 2
 458 31 l 1
 458 27 l 2
 458 13 450 4 435 1 c 0
 380 -9 337 -10 310 -10 c 0
 211 -10 166 23 166 105 c 0
 166 119 167 135 170 152 c 2
 214 424 l 1
 138 424 l 2
 124 424 116 431 116 443 c 0
 116 445 117 447 117 449 c 2
 121 475 l 2
 123 492 134 500 150 500 c 2
 225 500 l 1
 246 635 l 2
 249 651 259 660 275 660 c 2
 311 660 l 2
 325 660 333 653 333 641 c 0
 333 639 332 637 332 635 c 2
 311 500 l 1
 475 500 l 2
 489 500 496 493 496 480 c 2
 496 475 l 1
 492 449 l 2
 489 433 479 424 463 424 c 2
 299 424 l 1
 255 152 l 2
 253 141 253 131 253 123 c 0
 253 82 272 67 322 67 c 0
 345 67 385 69 429 76 c 0
 432 76 435 77 437 77 c 0
 449 77 455 70 456 57 c 2
EndSplineSet
EndChar

StartChar: u
Encoding: 117 117 86
Width: 575
GlyphClass: 2
Flags: W
AnchorPoint: "Anchor-3" 412 0 basechar 0
AnchorPoint: "Anchor-2" 248 0 basechar 0
AnchorPoint: "Anchor-1" 327 500 basechar 0
LayerCount: 2
Fore
SplineSet
364 25 m 1
 370 63 l 1
 318 15 263 -10 212 -10 c 0
 137 -10 76 19 76 139 c 0
 76 163 79 190 84 222 c 2
 124 475 l 2
 126 491 136 500 153 500 c 2
 188 500 l 2
 202 500 209 493 209 480 c 2
 209 475 l 1
 169 222 l 2
 165 195 163 173 163 154 c 0
 163 79 196 66 242 66 c 0
 283 66 331 95 384 151 c 1
 436 475 l 2
 438 491 449 500 465 500 c 2
 500 500 l 2
 514 500 521 493 521 480 c 2
 521 475 l 1
 450 30 l 2
 448 14 438 0 422 0 c 2
 385 0 l 2
 371 0 364 7 364 20 c 2
 364 25 l 1
EndSplineSet
EndChar

StartChar: v
Encoding: 118 118 87
Width: 575
GlyphClass: 2
Flags: W
AnchorPoint: "Anchor-2" 248 0 basechar 0
AnchorPoint: "Anchor-1" 327 500 basechar 0
LayerCount: 2
Back
SplineSet
480 500 m 2
 515 500 l 2
 529 500 536 493 536 480 c 2
 536 475 l 1
 499 275 410 -10 232 -10 c 0
 182 -10 144 22 138 80 c 2
 102 472 l 1
 102 474 l 2
 102 490 112 500 129 500 c 2
 165 500 l 2
 180 500 187 493 188 479 c 2
 224 93 l 2
 225 76 237 67 254 67 c 0
 345 67 423 310 451 475 c 0
 453 491 464 500 480 500 c 2
EndSplineSet
Fore
SplineSet
480 500 m 2
 515 500 l 2
 529 500 536 493 536 480 c 0
 536 459.616210938 456.96875 -10 232 -10 c 3
 182 -10 144 22 138 80 c 2
 102 474 l 2
 102 490 112 500 129 500 c 2
 165 500 l 2
 180 500 187 493 188 479 c 2
 224 93 l 2
 225 76 237 67 254 67 c 3
 345 67 423 310 451 475 c 0
 453 491 464 500 480 500 c 2
EndSplineSet
EndChar

StartChar: w
Encoding: 119 119 88
Width: 575
GlyphClass: 2
Flags: W
AnchorPoint: "Anchor-2" 248 0 basechar 0
AnchorPoint: "Anchor-1" 327 500 basechar 0
LayerCount: 2
Back
SplineSet
509 500 m 2
 544 500 l 2
 558 500 565 493 565 480 c 2
 565 475 l 1
 543 323 520 172 468 20 c 0
 462 4 457 -5 444 -5 c 2
 422 -5 l 2
 408 -5 399 0 395 13 c 2
 296 303 l 1
 173 57 105 -5 51 -5 c 0
 40 -5 35 2 35 14 c 2
 35 20 l 1
 82 475 l 2
 83 492 95 500 111 500 c 2
 147 500 l 2
 161 500 167 493 167 481 c 2
 167 475 l 1
 121 121 l 1
 179 202 227 301 259 381 c 0
 264 395 277 399 291 399 c 2
 322 399 l 2
 336 399 344 394 349 381 c 2
 429 142 l 1
 448 246 470 371 480 475 c 0
 481 491 493 500 509 500 c 2
EndSplineSet
Fore
SplineSet
509 500 m 2
 544 500 l 2
 558 500 565 493 565 480 c 3
 565 435.192933969 518.186465389 168.775821907 469 25 c 0
 463 9 459 0 446 0 c 2
 420 0 l 2
 406 0 397 5 393 18 c 2
 296 303 l 1
 173 57 104 -7 50 -7 c 0
 39 -7 34 1.7763568394e-15 34 12 c 3
 34 16.8757794049 65.94275192 320.723914747 82 475 c 0
 83 492 95 500 111 500 c 2
 147 500 l 2
 161 500 167 493 167 481 c 3
 167 468.394815908 136.08412186 241.249211473 121 121 c 1
 179 202 227 301 259 381 c 0
 264 395 277 399 291 399 c 2
 322 399 l 2
 336 399 344 394 349 381 c 2
 429 142 l 1
 448 246 470 371 480 475 c 0
 481 491 493 500 509 500 c 2
EndSplineSet
EndChar

StartChar: x
Encoding: 120 120 89
Width: 575
GlyphClass: 2
Flags: MW
AnchorPoint: "Anchor-2" 248 0 basechar 0
AnchorPoint: "Anchor-1" 327 500 basechar 0
LayerCount: 2
Fore
SplineSet
181 423 m 0
 160 423 132 407 110 393 c 0
 103 389 97 386 91 386 c 0
 85 386 79 389 75 396 c 2
 63 415 l 2
 60 420 59 424 59 429 c 0
 59 437 63 446 73 452 c 0
 119 483 164 508 196 508 c 0
 236 508 275 483 316 408 c 2
 342 360 l 1
 352 340 l 1
 498 495 l 2
 505 502 512 506 519 506 c 0
 524 506 529 504 534 500 c 2
 555 481 l 2
 560 476 563 471 563 466 c 0
 563 460 559 453 553 446 c 2
 386 268 l 1
 501 28 l 2
 503 25 503 21 503 18 c 0
 503 8 495 0 482 0 c 2
 440 0 l 2
 427 0 417 5 413 14 c 2
 323 203 l 1
 136 5 l 2
 129 -2 122 -6 115 -6 c 0
 110 -6 106 -4 101 0 c 2
 80 19 l 2
 75 24 72 29 72 35 c 0
 72 41 75 47 81 54 c 2
 288 275 l 1
 240 367 l 2
 217 411 200 423 181 423 c 0
EndSplineSet
EndChar

StartChar: y
Encoding: 121 121 90
Width: 575
GlyphClass: 2
Flags: MW
AnchorPoint: "Anchor-1" 327 500 basechar 0
LayerCount: 2
Fore
SplineSet
491 500 m 2
 527 500 l 2
 540 500 545 494 545 484 c 0
 545 480 544 476 543 472 c 0
 413 19 363 -245 103 -245 c 0
 63 -245 16 -245 -32 -225 c 0
 -41 -221 -46 -215 -46 -207 c 0
 -46 -203 -45 -198 -42 -193 c 2
 -30 -169 l 2
 -25 -158 -17 -152 -7 -152 c 0
 -4 -152 0 -152 4 -154 c 0
 31 -166 58 -167 82 -167 c 2
 101 -167 l 2
 201 -167 259 -115 308 -10 c 1
 257 -10 l 2
 182 -10 144 22 138 80 c 2
 102 472 l 1
 102 474 l 2
 102 490 112 500 129 500 c 2
 165 500 l 2
 180 500 187 493 188 479 c 2
 224 93 l 2
 225 74 237 63 268 63 c 2
 337 63 l 1
 374 166 409 304 459 479 c 0
 463 493 476 500 491 500 c 2
EndSplineSet
EndChar

StartChar: z
Encoding: 122 122 91
Width: 575
GlyphClass: 2
Flags: W
AnchorPoint: "Anchor-2" 248 0 basechar 0
AnchorPoint: "Anchor-1" 327 500 basechar 0
LayerCount: 2
Fore
SplineSet
144 77 m 1
 438 77 l 2
 453 77 459 71 459 58 c 2
 459 52 l 1
 454 25 l 2
 452 9 442 0 425 0 c 2
 70 0 l 2
 56 0 50 7 50 19 c 2
 50 25 l 1
 57 70 l 2
 61 95 72 114 93 132 c 2
 432 424 l 1
 159 424 l 2
 145 424 137 431 137 443 c 0
 137 445 138 447 138 449 c 2
 142 475 l 2
 144 492 155 500 171 500 c 2
 505 500 l 2
 519 500 525 493 525 481 c 2
 525 475 l 1
 518 431 l 2
 514 406 503 387 482 369 c 2
 144 77 l 1
EndSplineSet
EndChar

StartChar: braceleft
Encoding: 123 123 92
Width: 575
GlyphClass: 2
Flags: W
LayerCount: 2
Fore
SplineSet
383 585 m 2
 355 409 l 2
 347 355 332 314 270 286 c 1
 309 267 320 237 320 204 c 0
 320 191 318 178 316 164 c 2
 288 -13 l 2
 286 -24 285 -34 285 -43 c 0
 285 -84 305 -102 354 -102 c 2
 435 -102 l 2
 449 -102 457 -108 457 -120 c 0
 457 -122 456 -125 456 -127 c 2
 452 -153 l 2
 449 -170 439 -178 423 -178 c 2
 342 -178 l 2
 242 -178 199 -144 199 -62 c 0
 199 -47 200 -31 203 -13 c 2
 231 164 l 2
 233 174 234 184 234 192 c 0
 234 231 214 248 165 248 c 2
 85 248 l 2
 71 248 63 254 63 266 c 0
 63 268 64 271 64 273 c 2
 68 299 l 2
 71 316 81 324 97 324 c 2
 177 324 l 2
 236 324 261 350 270 409 c 2
 298 585 l 2
 317 704 373 750 489 750 c 2
 570 750 l 2
 584 750 592 744 592 732 c 0
 592 730 591 727 591 725 c 2
 587 699 l 2
 584 682 574 674 558 674 c 2
 477 674 l 2
 417 674 393 646 383 585 c 2
EndSplineSet
EndChar

StartChar: bar
Encoding: 124 124 93
Width: 575
GlyphClass: 2
Flags: W
LayerCount: 2
Fore
SplineSet
341 700 m 2
 376 700 l 2
 390 700 398 693 398 681 c 0
 398 679 397 677 397 675 c 2
 284 -38 l 2
 281 -54 271 -63 255 -63 c 2
 220 -63 l 2
 206 -63 198 -56 198 -44 c 0
 198 -42 199 -40 199 -38 c 2
 312 675 l 2
 315 691 325 700 341 700 c 2
EndSplineSet
EndChar

StartChar: braceright
Encoding: 125 125 94
Width: 575
GlyphClass: 2
Flags: W
LayerCount: 2
Fore
SplineSet
203 -13 m 2
 231 163 l 2
 239 217 254 258 316 286 c 1
 277 305 266 335 266 368 c 0
 266 381 268 394 270 408 c 2
 298 585 l 2
 300 596 301 606 301 615 c 0
 301 656 281 674 232 674 c 2
 151 674 l 2
 137 674 129 680 129 692 c 0
 129 694 130 697 130 699 c 2
 134 725 l 2
 137 742 147 750 163 750 c 2
 244 750 l 2
 344 750 387 716 387 634 c 0
 387 619 386 603 383 585 c 2
 355 408 l 2
 353 398 352 388 352 380 c 0
 352 341 372 324 421 324 c 2
 501 324 l 2
 515 324 523 318 523 306 c 0
 523 304 522 301 522 299 c 2
 518 273 l 2
 515 256 505 248 489 248 c 2
 409 248 l 2
 350 248 325 222 316 163 c 2
 288 -13 l 2
 269 -132 213 -178 97 -178 c 2
 16 -178 l 2
 2 -178 -6 -172 -6 -160 c 0
 -6 -158 -5 -155 -5 -153 c 2
 -1 -127 l 2
 2 -110 12 -102 28 -102 c 2
 109 -102 l 2
 169 -102 193 -74 203 -13 c 2
EndSplineSet
EndChar

StartChar: asciitilde
Encoding: 126 126 95
Width: 575
GlyphClass: 2
Flags: W
LayerCount: 2
Fore
SplineSet
504 368 m 2
 533 368 l 2
 546 368 553 361 553 349 c 0
 553 347 552 345 552 342 c 0
 537 250 485 200 404 200 c 0
 360 200 311 229 266 283 c 0
 232 323 201 344 178 344 c 0
 147 344 127 320 119 275 c 0
 117 261 107 253 89 253 c 2
 61 253 l 2
 48 253 40 259 40 272 c 0
 40 274 41 277 41 279 c 0
 56 370 109 421 191 421 c 0
 234 421 283 391 328 337 c 0
 361 298 392 276 416 276 c 0
 446 276 467 301 474 346 c 0
 476 360 487 368 504 368 c 2
EndSplineSet
EndChar

StartChar: exclamdown
Encoding: 161 161 97
Width: 575
GlyphClass: 2
Flags: W
LayerCount: 2
Fore
SplineSet
244 -200 m 2
 189 -200 l 2
 175 -200 167 -194 167 -183 c 0
 167 -181 167 -178 168 -175 c 2
 253 270 l 2
 257 286 267 295 283 295 c 2
 306 295 l 2
 320 295 328 289 328 277 c 0
 328 275 327 273 327 270 c 2
 273 -175 l 2
 270 -192 260 -200 244 -200 c 2
273 428 m 2
 280 475 l 2
 283 492 293 500 309 500 c 2
 344 500 l 2
 358 500 366 494 366 482 c 0
 366 480 365 477 365 475 c 2
 358 428 l 2
 355 411 345 403 329 403 c 2
 294 403 l 2
 280 403 272 409 272 421 c 0
 272 423 273 426 273 428 c 2
EndSplineSet
EndChar

StartChar: cent
Encoding: 162 162 98
Width: 575
GlyphClass: 2
Flags: W
LayerCount: 2
Fore
SplineSet
522 447 m 2
 508 423 l 2
 502 412 494 407 485 407 c 0
 481 407 478 407 474 409 c 0
 433 425 398 432 357 432 c 0
 226 432 166 325 166 211 c 0
 166 102 222 68 299 68 c 0
 340 68 376 75 424 91 c 0
 428 93 432 93 436 93 c 0
 445 93 451 88 454 77 c 2
 460 53 l 2
 461 50 461 48 461 45 c 0
 461 34 455 25 442 20 c 0
 396 2 348 -8 302 -10 c 1
 279 -153 l 2
 276 -170 266 -178 250 -178 c 2
 215 -178 l 2
 201 -178 193 -172 193 -160 c 0
 193 -158 194 -155 194 -153 c 2
 218 -2 l 1
 139 18 80 79 80 202 c 0
 80 347 160 470 298 502 c 1
 322 653 l 2
 325 670 335 678 351 678 c 2
 386 678 l 2
 400 678 408 672 408 660 c 0
 408 658 407 655 407 653 c 2
 384 510 l 1
 430 508 475 498 514 480 c 0
 523 476 527 471 527 463 c 0
 527 458 525 453 522 447 c 2
EndSplineSet
EndChar

StartChar: sterling
Encoding: 163 163 99
Width: 575
GlyphClass: 2
Flags: W
LayerCount: 2
Fore
SplineSet
522 518 m 2
 487 518 l 2
 471 518 462 527 462 544 c 0
 462 588 445 634 388 634 c 0
 343 634 304 600 295 538 c 2
 271 389 l 1
 447 389 l 2
 461 389 469 382 469 370 c 0
 469 368 468 366 468 364 c 2
 464 337 l 2
 461 321 451 312 435 312 c 2
 259 312 l 1
 222 77 l 1
 438 77 l 2
 453 77 459 71 459 58 c 2
 459 52 l 1
 454 25 l 2
 452 9 442 0 425 0 c 2
 70 0 l 2
 56 0 49 7 49 20 c 2
 49 25 l 1
 54 52 l 2
 56 68 67 77 83 77 c 2
 137 77 l 1
 174 312 l 1
 120 312 l 2
 106 312 98 319 98 331 c 0
 98 333 99 335 99 337 c 2
 103 363 l 2
 106 380 116 389 132 389 c 2
 186 389 l 1
 210 538 l 2
 230 664 308 710 400 710 c 0
 520 710 549 631 549 544 c 0
 549 527 538 518 522 518 c 2
EndSplineSet
EndChar

StartChar: currency
Encoding: 164 164 100
Width: 575
GlyphClass: 2
Flags: W
LayerCount: 2
Fore
SplineSet
566 442 m 2
 471 360 l 1
 483 335 489 308 489 280 c 0
 489 270 489 260 487 250 c 0
 481 212 463 173 437 141 c 1
 506 59 l 2
 510 54 512 49 512 44 c 0
 512 37 508 30 499 24 c 2
 473 3 l 2
 466 -2 460 -5 454 -5 c 0
 448 -5 443 -2 438 4 c 2
 371 84 l 1
 335 63 294 51 256 51 c 0
 217 51 181 63 152 84 c 1
 60 4 l 2
 53 -2 46 -5 40 -5 c 0
 34 -5 29 -2 24 3 c 2
 4 24 l 2
 0 29 -2 33 -2 38 c 0
 -2 45 2 52 9 59 c 2
 104 141 l 1
 92 164 87 191 87 219 c 0
 87 229 87 240 89 250 c 0
 95 289 112 327 138 360 c 1
 69 442 l 2
 65 446 64 451 64 456 c 0
 64 463 68 470 76 477 c 2
 102 497 l 2
 109 503 116 505 122 505 c 0
 128 505 133 503 138 497 c 2
 204 417 l 1
 241 438 281 449 320 449 c 0
 358 449 395 438 423 417 c 1
 516 497 l 2
 523 503 529 505 535 505 c 0
 541 505 546 503 551 498 c 2
 571 477 l 2
 576 472 578 467 578 462 c 0
 578 455 574 448 566 442 c 2
165 250 m 0
 164 243 163 236 163 230 c 0
 163 171 208 128 269 128 c 0
 337 128 399 182 410 250 c 0
 411 257 412 264 412 270 c 0
 412 329 368 373 307 373 c 0
 239 373 176 318 165 250 c 0
EndSplineSet
EndChar

StartChar: yen
Encoding: 165 165 101
Width: 575
GlyphClass: 2
Flags: W
LayerCount: 2
Fore
SplineSet
567 700 m 2
 603 700 l 2
 616 700 623 695 623 687 c 0
 623 683 621 677 617 671 c 2
 449 416 l 1
 504 416 l 2
 518 416 526 410 526 398 c 0
 526 396 525 393 525 391 c 2
 522 370 l 2
 519 354 509 345 493 345 c 2
 113 345 l 2
 99 345 91 352 91 364 c 0
 91 366 92 368 92 370 c 2
 95 391 l 2
 98 408 108 416 124 416 c 2
 178 416 l 1
 92 671 l 2
 90 675 90 678 90 681 c 0
 90 692 99 700 114 700 c 2
 151 700 l 2
 165 700 173 695 177 682 c 2
 270 410 l 2
 277 391 291 380 309 380 c 0
 327 380 343 391 355 410 c 2
 534 682 l 2
 542 695 553 700 567 700 c 2
102 275 m 2
 482 275 l 2
 496 275 504 269 504 257 c 0
 504 255 503 252 503 250 c 2
 500 229 l 2
 497 213 487 204 471 204 c 2
 323 204 l 1
 294 25 l 2
 292 9 281 0 265 0 c 2
 230 0 l 2
 216 0 209 7 209 20 c 2
 209 25 l 1
 238 204 l 1
 91 204 l 2
 77 204 69 211 69 223 c 0
 69 225 70 227 70 229 c 2
 73 250 l 2
 76 267 86 275 102 275 c 2
EndSplineSet
EndChar

StartChar: brokenbar
Encoding: 166 166 102
Width: 575
GlyphClass: 2
Flags: W
LayerCount: 2
Fore
SplineSet
237 -178 m 2
 202 -178 l 2
 188 -178 180 -172 180 -160 c 0
 180 -158 181 -155 181 -153 c 2
 232 168 l 2
 235 185 245 193 261 193 c 2
 296 193 l 2
 310 193 318 187 318 175 c 0
 318 173 317 170 317 168 c 2
 266 -153 l 2
 264 -169 254 -178 237 -178 c 2
325 379 m 2
 290 379 l 2
 276 379 269 386 269 399 c 2
 269 404 l 1
 320 725 l 2
 323 741 333 750 349 750 c 2
 384 750 l 2
 398 750 406 744 406 732 c 0
 406 730 405 728 405 725 c 2
 354 404 l 2
 352 388 341 379 325 379 c 2
EndSplineSet
EndChar

StartChar: section
Encoding: 167 167 103
Width: 575
GlyphClass: 2
Flags: W
LayerCount: 2
Fore
SplineSet
372 710 m 0
 398 710 442 708 488 699 c 0
 499 697 505 691 505 682 c 0
 505 678 504 674 502 669 c 2
 491 643 l 2
 486 631 478 624 466 624 c 0
 464 624 461 625 458 625 c 0
 417 632 379 634 360 634 c 0
 290 632 248 609 241 568 c 0
 240 564 240 561 240 557 c 0
 240 518 273 487 333 469 c 0
 439 434 482 399 482 342 c 0
 482 335 481 328 480 321 c 0
 472 269 436 232 376 212 c 1
 420 183 443 145 443 99 c 0
 443 91 442 84 441 76 c 0
 426 -19 347 -70 216 -70 c 0
 190 -70 132 -68 85 -59 c 0
 74 -57 68 -51 68 -42 c 0
 68 -38 69 -34 71 -29 c 2
 81 -3 l 2
 86 10 95 17 107 17 c 0
 109 17 112 16 115 16 c 0
 156 8 209 7 229 7 c 0
 305 8 349 32 356 73 c 0
 357 77 357 80 357 84 c 0
 357 122 325 153 266 172 c 0
 159 206 115 242 115 299 c 0
 115 306 116 313 117 320 c 0
 125 372 161 408 222 428 c 1
 177 457 154 496 154 541 c 0
 154 548 155 556 156 564 c 0
 171 659 247 710 372 710 c 0
316 242 m 1
 362 256 388 278 393 306 c 0
 394 310 394 314 394 318 c 0
 394 351 367 371 300 392 c 0
 292 394 285 397 278 400 c 1
 235 386 209 364 204 335 c 0
 203 331 203 328 203 324 c 0
 203 290 229 269 298 248 c 2
 316 242 l 1
EndSplineSet
EndChar

StartChar: dieresis
Encoding: 168 168 104
Width: 575
GlyphClass: 2
Flags: W
LayerCount: 2
Fore
SplineSet
294 675 m 2
 287 629 l 2
 284 612 275 604 258 604 c 2
 223 604 l 2
 209 604 201 611 201 623 c 0
 201 625 202 627 202 629 c 2
 209 675 l 2
 212 691 222 700 238 700 c 2
 273 700 l 2
 287 700 295 694 295 682 c 0
 295 680 294 677 294 675 c 2
501 675 m 2
 494 629 l 2
 491 612 481 604 465 604 c 2
 430 604 l 2
 416 604 408 610 408 622 c 0
 408 624 409 627 409 629 c 2
 416 675 l 2
 419 691 429 700 445 700 c 2
 480 700 l 2
 494 700 502 693 502 681 c 0
 502 679 501 677 501 675 c 2
EndSplineSet
EndChar

StartChar: copyright
Encoding: 169 169 105
Width: 575
GlyphClass: 2
Flags: W
LayerCount: 2
Fore
SplineSet
411 468 m 2
 399 459 l 2
 393 454 387 451 382 451 c 0
 376 451 371 454 364 458 c 0
 353 465 339 469 324 469 c 2
 323 469 l 2
 300 469 274 458 255 440 c 0
 237 423 225 399 221 375 c 0
 220 370 220 364 220 359 c 0
 220 341 225 324 235 310 c 0
 248 293 270 282 293 281 c 2
 294 281 l 2
 309 281 325 286 338 293 c 0
 345 297 352 299 357 299 c 0
 363 299 367 297 372 291 c 2
 381 282 l 2
 385 277 388 272 388 267 c 0
 388 260 384 253 375 247 c 0
 348 229 315 219 285 219 c 2
 282 219 l 2
 242 220 206 237 184 267 c 0
 166 290 156 319 156 350 c 0
 156 358 157 367 158 375 c 0
 164 415 186 455 218 484 c 0
 250 513 292 531 332 531 c 1
 335 532 l 1
 365 532 394 521 415 503 c 0
 420 499 423 493 423 488 c 0
 423 481 418 474 411 468 c 2
92 190 m 0
 60 228 43 280 43 334 c 0
 43 348 44 361 46 375 c 0
 57 444 95 512 151 561 c 0
 208 609 280 637 349 637 c 0
 417 637 482 609 522 561 c 0
 555 521 573 470 573 415 c 0
 573 402 572 388 570 375 c 0
 559 307 520 238 463 190 c 0
 408 141 334 113 266 113 c 0
 197 113 134 141 92 190 c 0
426 234 m 0
 469 271 499 323 507 375 c 0
 509 385 509 395 509 405 c 0
 509 447 496 486 471 516 c 0
 440 553 391 575 339 575 c 0
 287 575 232 553 189 516 c 0
 146 479 116 427 108 375 c 0
 106 365 106 355 106 345 c 0
 106 303 119 264 144 234 c 0
 176 197 224 176 276 176 c 0
 328 176 384 197 426 234 c 0
EndSplineSet
EndChar

StartChar: ordfeminine
Encoding: 170 170 106
Width: 575
GlyphClass: 2
Flags: W
LayerCount: 2
Fore
SplineSet
488 695 m 2
 443 401 l 2
 439 384 428 373 415 373 c 2
 390 373 l 2
 375 373 366 383 366 397 c 2
 366 401 l 1
 336 379 302 367 271 367 c 0
 205 367 171 416 171 509 c 0
 171 651 243 733 368 733 c 0
 387 733 424 732 465 727 c 1
 466 727 l 2
 480 724 489 715 489 701 c 0
 489 699 488 697 488 695 c 2
380 489 m 1
 407 661 l 1
 387 662 370 663 360 663 c 0
 288 663 249 613 249 519 c 0
 249 460 262 437 291 437 c 0
 316 437 348 455 380 489 c 1
EndSplineSet
EndChar

StartChar: guillemotleft
Encoding: 171 171 107
Width: 575
GlyphClass: 2
Flags: W
LayerCount: 2
Fore
SplineSet
114 311 m 1
 271 124 l 2
 275 119 277 114 277 109 c 0
 277 102 273 95 265 89 c 2
 239 68 l 2
 232 63 226 61 220 61 c 0
 214 61 208 63 203 69 c 2
 55 246 l 2
 41 263 29 279 29 301 c 0
 29 304 30 308 30 311 c 0
 34 338 53 358 75 377 c 2
 279 553 l 2
 286 559 293 562 299 562 c 0
 305 562 310 559 315 554 c 2
 335 534 l 2
 340 529 342 524 342 519 c 0
 342 512 338 505 331 498 c 2
 114 311 l 1
350 311 m 1
 507 124 l 2
 512 119 514 114 514 109 c 0
 514 102 510 95 501 89 c 2
 475 68 l 2
 468 63 462 61 456 61 c 0
 450 61 445 63 440 69 c 2
 291 246 l 2
 277 263 265 279 265 301 c 0
 265 304 266 308 266 311 c 0
 270 338 289 358 311 377 c 2
 516 553 l 2
 523 559 529 562 535 562 c 0
 541 562 546 559 551 554 c 2
 571 534 l 2
 576 529 579 523 579 518 c 0
 579 511 575 505 567 498 c 2
 350 311 l 1
EndSplineSet
EndChar

StartChar: logicalnot
Encoding: 172 172 108
Width: 575
GlyphClass: 2
Flags: W
LayerCount: 2
Fore
SplineSet
136 414 m 2
 491 414 l 2
 505 414 513 407 513 395 c 0
 513 393 512 391 512 389 c 2
 474 150 l 2
 472 134 462 125 445 125 c 2
 410 125 l 2
 396 125 389 132 389 145 c 2
 389 150 l 1
 419 337 l 1
 124 337 l 2
 110 337 102 344 102 356 c 0
 102 358 103 360 103 362 c 2
 107 389 l 2
 110 405 120 414 136 414 c 2
EndSplineSet
EndChar

StartChar: uni00AD
Encoding: 173 173 109
Width: 575
GlyphClass: 2
Flags: W
LayerCount: 2
Fore
SplineSet
80 272 m 2
 66 272 58 278 58 290 c 0
 58 292 59 295 59 297 c 2
 63 324 l 2
 66 341 76 349 92 349 c 2
 515 349 l 2
 529 349 537 343 537 331 c 0
 537 329 536 326 536 324 c 2
 532 297 l 2
 529 280 519 272 503 272 c 2
 80 272 l 2
EndSplineSet
EndChar

StartChar: registered
Encoding: 174 174 110
Width: 575
GlyphClass: 2
Flags: W
LayerCount: 2
Fore
SplineSet
349 637 m 0
 417 637 482 609 522 561 c 0
 555 521 573 470 573 415 c 0
 573 402 572 388 570 375 c 0
 559 307 520 238 463 190 c 0
 408 141 334 113 266 113 c 0
 197 113 134 141 92 190 c 0
 60 228 43 280 43 334 c 0
 43 348 44 361 46 375 c 0
 57 444 95 512 151 561 c 0
 208 609 280 637 349 637 c 0
276 176 m 0
 328 176 384 197 426 234 c 0
 469 271 499 323 507 375 c 0
 509 385 509 395 509 405 c 0
 509 447 496 486 471 516 c 0
 440 553 391 575 339 575 c 0
 287 575 232 553 189 516 c 0
 146 479 116 427 108 375 c 0
 106 365 106 355 106 345 c 0
 106 303 119 264 144 234 c 0
 176 197 224 176 276 176 c 0
246 500 m 2
 347 500 l 2
 360 500 372 500 384 498 c 0
 396 496 407 492 416 485 c 0
 426 478 433 469 437 458 c 0
 440 450 442 441 442 432 c 0
 442 429 442 425 441 422 c 0
 439 410 433 397 426 386 c 0
 418 376 408 366 396 359 c 0
 386 353 375 349 363 347 c 1
 403 281 l 2
 406 276 407 272 407 268 c 0
 407 258 398 250 383 250 c 2
 362 250 l 2
 349 250 341 255 334 265 c 2
 287 344 l 1
 258 344 l 1
 247 275 l 2
 244 259 235 250 218 250 c 2
 206 250 l 2
 192 250 184 257 184 269 c 0
 184 271 185 273 185 275 c 2
 217 475 l 2
 219 492 230 500 246 500 c 2
268 407 m 1
 342 407 l 2
 354 407 377 407 378 422 c 2
 378 424 l 2
 378 436 358 438 347 438 c 2
 273 438 l 1
 268 407 l 1
EndSplineSet
EndChar

StartChar: macron
Encoding: 175 175 111
Width: 575
GlyphClass: 2
Flags: W
LayerCount: 2
Fore
SplineSet
207 649 m 1
 211 675 l 2
 214 691 224 700 240 700 c 2
 478 700 l 2
 492 700 500 693 500 681 c 0
 500 679 499 677 499 675 c 2
 495 648 l 2
 493 632 482 624 466 624 c 2
 228 624 l 2
 214 624 207 631 207 644 c 2
 207 649 l 1
EndSplineSet
EndChar

StartChar: degree
Encoding: 176 176 112
Width: 575
GlyphClass: 2
Flags: W
LayerCount: 2
Fore
SplineSet
146 498 m 0
 146 615 246 710 363 710 c 0
 454 710 516 648 516 560 c 0
 516 446 421 346 305 346 c 0
 209 346 146 409 146 498 c 0
232 509 m 0
 232 459 264 423 314 423 c 0
 378 423 430 483 430 548 c 0
 430 598 397 633 348 633 c 0
 284 633 232 576 232 509 c 0
EndSplineSet
EndChar

StartChar: plusminus
Encoding: 177 177 113
Width: 575
GlyphClass: 2
Flags: W
LayerCount: 2
Fore
SplineSet
362 452 m 1
 531 452 l 2
 545 452 553 446 553 434 c 0
 553 432 552 429 552 427 c 2
 548 400 l 2
 545 384 536 375 519 375 c 2
 350 375 l 1
 322 202 l 2
 320 185 310 177 293 177 c 2
 258 177 l 2
 244 177 237 184 237 197 c 2
 237 202 l 1
 265 375 l 1
 96 375 l 2
 82 375 74 382 74 394 c 0
 74 396 75 398 75 400 c 2
 79 426 l 2
 82 443 92 452 108 452 c 2
 277 452 l 1
 304 625 l 2
 307 641 317 650 333 650 c 2
 368 650 l 2
 382 650 390 644 390 632 c 0
 390 630 389 627 389 625 c 2
 362 452 l 1
15 25 m 1
 20 52 l 2
 22 68 33 77 49 77 c 2
 472 77 l 2
 487 77 493 71 493 58 c 2
 493 52 l 1
 488 25 l 2
 486 9 476 0 459 0 c 2
 36 0 l 2
 22 0 15 7 15 20 c 2
 15 25 l 1
EndSplineSet
EndChar

StartChar: uni00B2
Encoding: 178 178 114
Width: 575
GlyphClass: 2
Flags: W
LayerCount: 2
Fore
SplineSet
256 449 m 1
 401 449 l 2
 415 449 422 438 422 428 c 2
 422 426 l 1
 419 412 l 2
 418 401 406 389 392 389 c 2
 202 389 l 2
 189 389 180 398 180 409 c 2
 180 412 l 1
 182 424 l 2
 194 497 257 536 297 563 c 0
 343 595 376 619 382 657 c 0
 383 661 383 664 383 668 c 0
 383 695 364 706 330 706 c 0
 310 706 293 702 269 695 c 0
 266 694 264 694 261 694 c 0
 251 694 242 699 240 708 c 2
 237 721 l 2
 237 722 236 724 236 725 c 0
 236 735 245 746 256 750 c 0
 282 760 312 765 339 765 c 0
 398 765 451 739 451 677 c 0
 451 671 450 664 449 657 c 0
 439 592 381 552 330 516 c 0
 296 493 268 473 256 449 c 1
EndSplineSet
EndChar

StartChar: uni00B3
Encoding: 179 179 115
Width: 575
GlyphClass: 2
Flags: W
LayerCount: 2
Fore
SplineSet
248 716 m 2
 247 730 l 1
 247 732 l 2
 247 742 253 754 268 758 c 0
 287 763 309 765 330 765 c 0
 387 765 444 742 444 681 c 0
 444 675 443 669 442 663 c 0
 436 622 418 593 384 575 c 1
 408 561 421 538 421 509 c 0
 421 504 421 498 420 492 c 0
 407 413 332 385 268 385 c 0
 246 385 224 387 205 392 c 0
 195 395 191 403 191 411 c 0
 191 414 192 418 193 421 c 2
 199 435 l 2
 203 444 215 451 226 451 c 0
 228 451 229 450 231 450 c 0
 246 446 260 444 277 444 c 0
 321 444 347 456 353 492 c 0
 353 495 354 498 354 501 c 0
 354 530 332 547 297 547 c 2
 272 547 l 2
 259 547 250 556 250 567 c 2
 250 570 l 1
 252 583 l 2
 254 595 267 606 281 606 c 2
 306 606 l 2
 343 606 370 628 375 663 c 0
 376 666 376 669 376 672 c 0
 376 696 357 706 321 706 c 0
 306 706 291 704 275 701 c 1
 276 701 l 1
 274 700 272 700 270 700 c 0
 260 700 250 706 248 716 c 2
EndSplineSet
EndChar

StartChar: acute
Encoding: 180 180 116
Width: 575
GlyphClass: 2
Flags: W
LayerCount: 2
Fore
SplineSet
232 544 m 2
 226 562 l 2
 226 564 225 567 225 569 c 0
 225 580 232 589 245 595 c 2
 471 696 l 2
 476 698 480 699 484 699 c 0
 492 699 499 694 502 684 c 2
 515 638 l 2
 516 635 517 632 517 629 c 0
 517 618 509 610 496 606 c 2
 264 531 l 2
 260 530 256 529 252 529 c 0
 242 529 236 534 232 544 c 2
EndSplineSet
EndChar

StartChar: mu
Encoding: 181 181 117
Width: 575
GlyphClass: 2
Flags: W
LayerCount: 2
Fore
SplineSet
470 500 m 2
 505 500 l 2
 520 500 526 494 526 481 c 2
 526 475 l 1
 455 30 l 2
 453 14 444 5 428 3 c 0
 353 -9 290 -10 257 -10 c 0
 200 -10 159 0 134 23 c 1
 97 -213 l 2
 94 -229 84 -238 68 -238 c 2
 33 -238 l 2
 19 -238 11 -231 11 -219 c 0
 11 -217 12 -215 12 -213 c 2
 121 475 l 2
 123 492 134 500 150 500 c 2
 185 500 l 2
 200 500 206 494 206 481 c 2
 206 475 l 1
 161 193 l 2
 159 178 157 165 157 153 c 0
 157 90 192 67 269 67 c 0
 293 67 331 68 377 71 c 1
 441 475 l 2
 443 491 454 500 470 500 c 2
EndSplineSet
EndChar

StartChar: paragraph
Encoding: 182 182 118
Width: 575
GlyphClass: 2
Flags: W
LayerCount: 2
Fore
SplineSet
321 700 m 2
 381 700 l 2
 395 700 403 694 403 682 c 0
 403 680 402 678 402 675 c 2
 284 -75 l 2
 281 -91 272 -100 255 -100 c 2
 220 -100 l 2
 206 -100 198 -93 198 -81 c 0
 198 -79 199 -77 199 -75 c 2
 261 322 l 1
 138 322 96 384 96 466 c 0
 96 480 98 495 100 511 c 0
 117 615 177 700 321 700 c 2
531 700 m 2
 566 700 l 2
 580 700 588 694 588 682 c 0
 588 680 587 678 587 675 c 2
 469 -75 l 2
 466 -91 457 -100 440 -100 c 2
 405 -100 l 2
 391 -100 383 -93 383 -81 c 0
 383 -79 384 -77 384 -75 c 2
 502 675 l 2
 505 691 515 700 531 700 c 2
EndSplineSet
EndChar

StartChar: periodcentered
Encoding: 183 183 119
Width: 575
GlyphClass: 4
Flags: W
AnchorPoint: "Anchor-4" 297 310 mark 0
LayerCount: 2
Fore
SplineSet
259 380 m 2
 359 380 l 2
 373 380 381 374 381 362 c 0
 381 360 380 357 380 355 c 2
 365 265 l 2
 362 248 352 240 336 240 c 2
 236 240 l 2
 222 240 214 246 214 258 c 0
 214 260 215 263 215 265 c 2
 230 355 l 2
 233 372 243 380 259 380 c 2
EndSplineSet
EndChar

StartChar: cedilla
Encoding: 184 184 120
Width: 575
GlyphClass: 2
Flags: W
LayerCount: 2
Fore
SplineSet
240 -68 m 1
 263 -63 284 -61 302 -61 c 0
 371 -61 403 -91 403 -129 c 0
 403 -199 294 -246 196 -246 c 0
 171 -246 147 -242 120 -235 c 0
 110 -232 105 -225 105 -217 c 0
 105 -213 106 -208 109 -203 c 2
 115 -192 l 2
 121 -180 130 -174 141 -174 c 0
 144 -174 146 -174 149 -175 c 0
 169 -179 191 -181 207 -181 c 0
 255 -181 304 -165 304 -140 c 0
 304 -128 291 -119 263 -119 c 0
 255 -119 245 -120 235 -121 c 0
 232 -121 230 -122 227 -122 c 0
 218 -122 210 -119 204 -111 c 2
 180 -82 l 2
 176 -77 174 -72 174 -66 c 0
 174 -60 176 -54 180 -48 c 2
 207 -5 l 2
 214 7 224 13 236 13 c 2
 239 13 l 1
 257 13 l 2
 270 12 276 8 276 -1 c 0
 276 -5 275 -11 271 -17 c 2
 240 -68 l 1
EndSplineSet
EndChar

StartChar: uni00B9
Encoding: 185 185 121
Width: 575
GlyphClass: 2
Flags: W
LayerCount: 2
Fore
SplineSet
349 449 m 1
 389 449 l 2
 403 449 410 438 410 428 c 2
 410 426 l 1
 407 413 l 2
 406 402 394 390 380 390 c 2
 202 390 l 2
 188 390 181 401 181 411 c 2
 181 413 l 1
 184 426 l 2
 185 437 197 449 211 449 c 2
 283 449 l 1
 315 650 l 1
 243 650 l 2
 230 650 223 660 223 670 c 2
 223 673 l 1
 225 686 l 2
 226 697 238 709 252 709 c 0
 299 709 320 716 337 744 c 0
 342 753 353 760 364 760 c 2
 374 760 l 2
 387 760 395 751 395 741 c 2
 395 738 l 1
 349 449 l 1
EndSplineSet
EndChar

StartChar: ordmasculine
Encoding: 186 186 122
Width: 575
GlyphClass: 2
Flags: W
LayerCount: 2
Fore
SplineSet
192 575 m 0
 210 688 271 765 350 765 c 0
 416 765 452 711 452 628 c 0
 452 611 451 594 448 575 c 0
 430 462 369 385 290 385 c 0
 224 385 188 439 188 522 c 0
 188 539 189 556 192 575 c 0
382 667 m 1
 375 693 361 707 341 707 c 0
 306 707 271 659 258 575 c 2
 255 558 l 1
 382 667 l 1
259 485 m 1
 266 458 280 444 299 444 c 0
 335 444 369 492 382 575 c 2
 385 594 l 1
 259 485 l 1
EndSplineSet
EndChar

StartChar: guillemotright
Encoding: 187 187 123
Width: 575
GlyphClass: 2
Flags: W
LayerCount: 2
Fore
SplineSet
480 311 m 1
 323 498 l 2
 319 503 317 508 317 513 c 0
 317 520 321 527 329 533 c 2
 355 554 l 2
 362 559 368 561 374 561 c 0
 380 561 386 559 391 553 c 2
 539 376 l 2
 553 359 565 343 565 321 c 0
 565 318 564 314 564 311 c 0
 560 284 541 264 519 245 c 2
 315 69 l 2
 308 63 301 60 295 60 c 0
 289 60 284 63 279 68 c 2
 259 88 l 2
 254 93 252 98 252 103 c 0
 252 110 256 117 263 124 c 2
 480 311 l 1
244 311 m 1
 87 498 l 2
 82 503 80 508 80 513 c 0
 80 520 84 527 93 533 c 2
 119 554 l 2
 126 559 132 561 138 561 c 0
 144 561 149 559 154 553 c 2
 303 376 l 2
 317 359 329 343 329 321 c 0
 329 318 328 314 328 311 c 0
 324 284 305 264 283 245 c 2
 78 69 l 2
 71 63 65 60 59 60 c 0
 53 60 48 63 43 68 c 2
 23 88 l 2
 18 93 15 99 15 104 c 0
 15 111 19 117 27 124 c 2
 244 311 l 1
EndSplineSet
EndChar

StartChar: onequarter
Encoding: 188 188 124
Width: 575
GlyphClass: 2
Flags: W
LayerCount: 2
Fore
SplineSet
533 121 m 1
 548 121 l 2
 561 121 568 111 568 101 c 2
 568 98 l 1
 566 85 l 2
 564 73 552 63 538 63 c 2
 522 63 l 1
 514 13 l 2
 513 2 501 -10 487 -10 c 2
 469 -10 l 2
 455 -10 448 1 448 11 c 2
 448 13 l 1
 456 63 l 1
 344 63 l 2
 332 63 324 72 324 82 c 2
 324 85 l 1
 327 105 l 2
 328 112 330 118 334 124 c 2
 478 343 l 2
 485 353 497 360 510 360 c 2
 528 360 l 2
 540 360 547 352 547 343 c 0
 547 339 546 335 543 331 c 2
 406 121 l 1
 466 121 l 1
 477 196 l 2
 479 208 493 219 506 219 c 2
 523 219 l 2
 536 219 544 210 544 199 c 2
 544 196 l 1
 533 121 l 1
224 449 m 1
 264 449 l 2
 278 449 285 438 285 428 c 2
 285 426 l 1
 282 413 l 2
 281 402 269 390 255 390 c 2
 77 390 l 2
 63 390 56 401 56 411 c 2
 56 413 l 1
 59 426 l 2
 60 437 72 449 86 449 c 2
 158 449 l 1
 190 650 l 1
 118 650 l 2
 105 650 98 660 98 670 c 2
 98 673 l 1
 100 686 l 2
 101 697 113 709 127 709 c 0
 174 709 195 716 212 744 c 0
 217 753 228 760 239 760 c 2
 249 760 l 2
 262 760 270 751 270 741 c 2
 270 738 l 1
 224 449 l 1
555 599 m 2
 577 574 l 2
 581 570 583 565 583 560 c 0
 583 553 579 545 571 539 c 2
 97 130 l 2
 91 124 84 122 78 122 c 0
 72 122 66 124 62 130 c 2
 41 155 l 2
 37 159 35 164 35 169 c 0
 35 176 39 184 47 190 c 2
 520 599 l 2
 526 605 533 607 539 607 c 0
 545 607 551 605 555 599 c 2
EndSplineSet
EndChar

StartChar: onehalf
Encoding: 189 189 125
Width: 575
GlyphClass: 2
Flags: W
LayerCount: 2
Fore
SplineSet
393 49 m 1
 538 49 l 2
 552 49 559 38 559 28 c 2
 559 26 l 1
 556 12 l 2
 555 1 543 -11 529 -11 c 2
 339 -11 l 2
 326 -11 317 -2 317 9 c 2
 317 12 l 1
 319 24 l 2
 331 97 394 136 434 163 c 0
 480 195 513 219 519 257 c 0
 520 261 520 264 520 268 c 0
 520 295 501 306 467 306 c 0
 447 306 430 302 406 295 c 0
 403 294 401 294 398 294 c 0
 388 294 379 299 377 308 c 2
 374 321 l 2
 374 322 373 324 373 325 c 0
 373 335 382 346 393 350 c 0
 419 360 449 365 476 365 c 0
 535 365 588 339 588 277 c 0
 588 271 587 264 586 257 c 0
 576 192 518 152 467 116 c 0
 433 93 405 73 393 49 c 1
224 449 m 1
 264 449 l 2
 278 449 285 438 285 428 c 2
 285 426 l 1
 282 413 l 2
 281 402 269 390 255 390 c 2
 77 390 l 2
 63 390 56 401 56 411 c 2
 56 413 l 1
 59 426 l 2
 60 437 72 449 86 449 c 2
 158 449 l 1
 190 650 l 1
 118 650 l 2
 105 650 98 660 98 670 c 2
 98 673 l 1
 100 686 l 2
 101 697 113 709 127 709 c 0
 174 709 195 716 212 744 c 0
 217 753 228 760 239 760 c 2
 249 760 l 2
 262 760 270 751 270 741 c 2
 270 738 l 1
 224 449 l 1
555 599 m 2
 577 574 l 2
 581 570 583 565 583 560 c 0
 583 553 579 545 571 539 c 2
 97 130 l 2
 91 124 84 122 78 122 c 0
 72 122 66 124 62 130 c 2
 41 155 l 2
 37 159 35 164 35 169 c 0
 35 176 39 184 47 190 c 2
 520 599 l 2
 526 605 533 607 539 607 c 0
 545 607 551 605 555 599 c 2
EndSplineSet
EndChar

StartChar: threequarters
Encoding: 190 190 126
Width: 575
GlyphClass: 2
Flags: W
LayerCount: 2
Fore
SplineSet
533 121 m 1
 548 121 l 2
 561 121 568 111 568 101 c 2
 568 98 l 1
 566 85 l 2
 564 73 552 63 538 63 c 2
 522 63 l 1
 514 13 l 2
 513 2 501 -10 487 -10 c 2
 469 -10 l 2
 455 -10 448 1 448 11 c 2
 448 13 l 1
 456 63 l 1
 344 63 l 2
 332 63 324 72 324 82 c 2
 324 85 l 1
 327 105 l 2
 328 112 330 118 334 124 c 2
 478 343 l 2
 485 353 497 360 510 360 c 2
 528 360 l 2
 540 360 547 352 547 343 c 0
 547 339 546 335 543 331 c 2
 406 121 l 1
 466 121 l 1
 477 196 l 2
 479 208 493 219 506 219 c 2
 523 219 l 2
 536 219 544 210 544 199 c 2
 544 196 l 1
 533 121 l 1
123 716 m 2
 122 730 l 1
 122 732 l 2
 122 742 128 754 143 758 c 0
 162 763 184 765 205 765 c 0
 262 765 319 742 319 681 c 0
 319 675 318 669 317 663 c 0
 311 622 293 593 259 575 c 1
 283 561 296 538 296 509 c 0
 296 504 296 498 295 492 c 0
 282 413 207 385 143 385 c 0
 121 385 99 387 80 392 c 0
 70 395 66 403 66 411 c 0
 66 414 67 418 68 421 c 2
 74 435 l 2
 78 444 90 451 101 451 c 0
 103 451 104 450 106 450 c 0
 121 446 135 444 152 444 c 0
 196 444 222 456 228 492 c 0
 228 495 229 498 229 501 c 0
 229 530 207 547 172 547 c 2
 147 547 l 2
 134 547 125 556 125 567 c 2
 125 570 l 1
 127 583 l 2
 129 595 142 606 156 606 c 2
 181 606 l 2
 218 606 245 628 250 663 c 0
 251 666 251 669 251 672 c 0
 251 696 232 706 196 706 c 0
 181 706 166 704 150 701 c 1
 151 701 l 1
 149 700 147 700 145 700 c 0
 135 700 125 706 123 716 c 2
555 599 m 2
 577 574 l 2
 581 570 583 565 583 560 c 0
 583 553 579 545 571 539 c 2
 97 130 l 2
 91 124 84 122 78 122 c 0
 72 122 66 124 62 130 c 2
 41 155 l 2
 37 159 35 164 35 169 c 0
 35 176 39 184 47 190 c 2
 520 599 l 2
 526 605 533 607 539 607 c 0
 545 607 551 605 555 599 c 2
EndSplineSet
EndChar

StartChar: questiondown
Encoding: 191 191 127
Width: 575
GlyphClass: 2
Flags: W
LayerCount: 2
Fore
SplineSet
367 428 m 2
 374 475 l 2
 377 492 387 500 403 500 c 2
 438 500 l 2
 452 500 460 494 460 482 c 0
 460 480 459 477 459 475 c 2
 452 428 l 2
 449 411 439 403 423 403 c 2
 388 403 l 2
 374 403 366 409 366 421 c 0
 366 423 367 426 367 428 c 2
454 -151 m 2
 451 -175 l 2
 448 -191 438 -200 422 -200 c 0
 153 -198 43 -105 43 -10 c 0
 43 110 182 173 327 173 c 2
 328 173 l 1
 343 270 l 2
 346 286 356 295 372 295 c 2
 407 295 l 2
 421 295 429 288 429 276 c 0
 429 274 428 272 428 270 c 2
 405 124 l 2
 403 108 392 99 376 99 c 2
 315 99 l 2
 220 99 129 66 129 -3 c 0
 129 -79 244 -125 433 -126 c 0
 447 -126 455 -133 455 -145 c 0
 455 -147 454 -149 454 -151 c 2
EndSplineSet
EndChar

StartChar: Agrave
Encoding: 192 192 128
Width: 575
GlyphClass: 2
Flags: W
LayerCount: 2
Fore
SplineSet
469 621 m 2
 523 28 l 1
 523 24 l 2
 523 9 513 0 497 0 c 2
 461 0 l 2
 446 0 438 7 437 22 c 2
 419 220 l 1
 147 220 l 1
 66 22 l 2
 60 7 49 0 34 0 c 2
 -1 0 l 2
 -14 0 -21 6 -21 16 c 0
 -21 20 -20 23 -18 28 c 2
 224 621 l 2
 248 679 296 710 355 710 c 0
 414 710 464 679 469 621 c 2
306 607 m 2
 178 296 l 1
 412 296 l 1
 384 607 l 2
 382 625 366 634 349 634 c 0
 332 634 312 625 306 607 c 2
482 850 m 2
 491 846 495 840 495 833 c 0
 495 828 493 823 490 817 c 2
 479 799 l 2
 471 789 463 784 454 784 c 0
 451 784 448 785 444 786 c 2
 233 861 l 2
 224 864 219 870 219 878 c 0
 219 883 221 887 224 893 c 2
 254 939 l 2
 259 949 267 954 276 954 c 0
 280 954 285 953 289 951 c 2
 482 850 l 2
EndSplineSet
EndChar

StartChar: Aacute
Encoding: 193 193 129
Width: 575
GlyphClass: 2
Flags: W
LayerCount: 2
Fore
SplineSet
469 621 m 2
 523 28 l 1
 523 24 l 2
 523 9 513 0 497 0 c 2
 461 0 l 2
 446 0 438 7 437 22 c 2
 419 220 l 1
 147 220 l 1
 66 22 l 2
 60 7 49 0 34 0 c 2
 -1 0 l 2
 -14 0 -21 6 -21 16 c 0
 -21 20 -20 23 -18 28 c 2
 224 621 l 2
 248 679 296 710 355 710 c 0
 414 710 464 679 469 621 c 2
306 607 m 2
 178 296 l 1
 412 296 l 1
 384 607 l 2
 382 625 366 634 349 634 c 0
 332 634 312 625 306 607 c 2
274 799 m 2
 268 817 l 2
 268 819 267 822 267 824 c 0
 267 835 274 844 287 850 c 2
 513 951 l 2
 518 953 522 954 526 954 c 0
 534 954 541 949 544 939 c 2
 557 893 l 2
 558 890 559 887 559 884 c 0
 559 873 551 865 538 861 c 2
 306 786 l 2
 302 785 298 784 294 784 c 0
 284 784 278 789 274 799 c 2
EndSplineSet
EndChar

StartChar: Acircumflex
Encoding: 194 194 130
Width: 575
GlyphClass: 2
Flags: W
LayerCount: 2
Fore
SplineSet
469 621 m 2
 523 28 l 1
 523 24 l 2
 523 9 513 0 497 0 c 2
 461 0 l 2
 446 0 438 7 437 22 c 2
 419 220 l 1
 147 220 l 1
 66 22 l 2
 60 7 49 0 34 0 c 2
 -1 0 l 2
 -14 0 -21 6 -21 16 c 0
 -21 20 -20 23 -18 28 c 2
 224 621 l 2
 248 679 296 710 355 710 c 0
 414 710 464 679 469 621 c 2
306 607 m 2
 178 296 l 1
 412 296 l 1
 384 607 l 2
 382 625 366 634 349 634 c 0
 332 634 312 625 306 607 c 2
219 807 m 2
 207 831 l 2
 204 835 203 840 203 844 c 0
 203 853 209 860 219 866 c 2
 334 932 l 2
 357 946 378 955 401 955 c 0
 424 955 444 944 462 932 c 2
 555 866 l 2
 562 861 565 856 565 850 c 0
 565 844 562 838 556 831 c 2
 535 808 l 2
 529 800 522 796 515 796 c 0
 510 796 505 798 500 802 c 2
 409 874 l 2
 402 879 400 883 390 883 c 0
 380 883 376 879 367 874 c 2
 254 802 l 2
 248 798 243 796 238 796 c 0
 231 796 224 800 219 807 c 2
EndSplineSet
EndChar

StartChar: Atilde
Encoding: 195 195 131
Width: 575
GlyphClass: 2
Flags: W
LayerCount: 2
Fore
SplineSet
469 621 m 2
 523 28 l 1
 523 24 l 2
 523 9 513 0 497 0 c 2
 461 0 l 2
 446 0 438 7 437 22 c 2
 419 220 l 1
 147 220 l 1
 66 22 l 2
 60 7 49 0 34 0 c 2
 -1 0 l 2
 -14 0 -21 6 -21 16 c 0
 -21 20 -20 23 -18 28 c 2
 224 621 l 2
 248 679 296 710 355 710 c 0
 414 710 464 679 469 621 c 2
306 607 m 2
 178 296 l 1
 412 296 l 1
 384 607 l 2
 382 625 366 634 349 634 c 0
 332 634 312 625 306 607 c 2
206 840 m 2
 194 849 l 2
 188 853 185 859 185 865 c 0
 185 871 188 877 194 884 c 0
 235 928 278 953 317 953 c 0
 341 953 372 940 404 916 c 0
 425 901 444 893 461 893 c 0
 480 893 500 902 518 919 c 0
 525 926 532 930 539 930 c 0
 544 930 549 928 554 925 c 2
 565 916 l 2
 571 911 575 906 575 900 c 0
 575 894 571 887 565 881 c 0
 523 836 480 812 442 812 c 0
 419 812 388 825 355 848 c 0
 334 863 311 871 293 871 c 0
 277 871 260 862 242 846 c 0
 235 839 227 835 220 835 c 0
 215 835 210 837 206 840 c 2
EndSplineSet
EndChar

StartChar: Adieresis
Encoding: 196 196 132
Width: 575
GlyphClass: 2
Flags: W
LayerCount: 2
Fore
SplineSet
469 621 m 2
 523 28 l 1
 523 24 l 2
 523 9 513 0 497 0 c 2
 461 0 l 2
 446 0 438 7 437 22 c 2
 419 220 l 1
 147 220 l 1
 66 22 l 2
 60 7 49 0 34 0 c 2
 -1 0 l 2
 -14 0 -21 6 -21 16 c 0
 -21 20 -20 23 -18 28 c 2
 224 621 l 2
 248 679 296 710 355 710 c 0
 414 710 464 679 469 621 c 2
306 607 m 2
 178 296 l 1
 412 296 l 1
 384 607 l 2
 382 625 366 634 349 634 c 0
 332 634 312 625 306 607 c 2
329 885 m 2
 322 839 l 2
 319 822 310 814 293 814 c 2
 258 814 l 2
 244 814 236 821 236 833 c 0
 236 835 237 837 237 839 c 2
 244 885 l 2
 247 901 257 910 273 910 c 2
 308 910 l 2
 322 910 330 904 330 892 c 0
 330 890 329 887 329 885 c 2
536 885 m 2
 529 839 l 2
 526 822 516 814 500 814 c 2
 465 814 l 2
 451 814 443 820 443 832 c 0
 443 834 444 837 444 839 c 2
 451 885 l 2
 454 901 464 910 480 910 c 2
 515 910 l 2
 529 910 537 903 537 891 c 0
 537 889 536 887 536 885 c 2
EndSplineSet
EndChar

StartChar: Aring
Encoding: 197 197 133
Width: 575
GlyphClass: 2
Flags: W
LayerCount: 2
Fore
SplineSet
469 621 m 2
 523 28 l 1
 523 24 l 2
 523 9 513 0 497 0 c 2
 461 0 l 2
 446 0 438 7 437 22 c 2
 419 220 l 1
 147 220 l 1
 66 22 l 2
 60 7 49 0 34 0 c 2
 -1 0 l 2
 -14 0 -21 6 -21 16 c 0
 -21 20 -20 23 -18 28 c 2
 224 621 l 2
 248 679 296 710 355 710 c 0
 414 710 464 679 469 621 c 2
306 607 m 2
 178 296 l 1
 412 296 l 1
 384 607 l 2
 382 625 366 634 349 634 c 0
 332 634 312 625 306 607 c 2
371 763 m 0
 311 763 276 793 276 842 c 0
 276 848 276 853 277 859 c 0
 286 918 334 955 401 955 c 0
 461 955 496 925 496 876 c 0
 496 870 496 865 495 859 c 0
 486 800 438 763 371 763 c 0
381 824 m 0
 401 824 415 838 418 859 c 0
 419 862 419 865 419 868 c 0
 419 884 409 894 392 894 c 0
 372 894 357 881 353 859 c 1
 353 852 l 2
 353 835 363 824 381 824 c 0
EndSplineSet
EndChar

StartChar: AE
Encoding: 198 198 134
Width: 575
GlyphClass: 2
Flags: W
AnchorPoint: "Anchor-1" 360 700 basechar 0
LayerCount: 2
Fore
SplineSet
346 77 m 1
 466 77 l 2
 481 77 487 71 487 58 c 2
 487 52 l 1
 482 25 l 2
 480 9 470 0 453 0 c 2
 273 0 l 2
 259 0 252 7 252 20 c 2
 252 25 l 1
 275 170 l 1
 126 170 l 1
 66 22 l 2
 61 7 49 0 34 0 c 2
 -1 0 l 2
 -14 0 -21 6 -21 16 c 0
 -21 20 -20 23 -18 28 c 2
 224 621 l 2
 248 679 294 700 359 700 c 2
 553 700 l 2
 567 700 575 694 575 682 c 0
 575 680 574 677 574 675 c 2
 570 649 l 2
 568 632 557 624 541 624 c 2
 432 624 l 1
 397 403 l 1
 499 403 l 2
 513 403 521 396 521 384 c 0
 521 382 520 380 520 378 c 2
 516 351 l 2
 513 335 503 326 487 326 c 2
 385 326 l 1
 346 77 l 1
287 246 m 1
 349 634 l 1
 328 634 312 624 306 607 c 2
 157 246 l 1
 287 246 l 1
EndSplineSet
EndChar

StartChar: Ccedilla
Encoding: 199 199 135
Width: 575
GlyphClass: 2
Flags: W
LayerCount: 2
Fore
SplineSet
241 -68 m 1
 264 -63 285 -61 303 -61 c 0
 372 -61 404 -91 404 -129 c 0
 404 -199 295 -246 197 -246 c 0
 172 -246 148 -242 121 -235 c 0
 111 -232 106 -225 106 -217 c 0
 106 -213 107 -208 110 -203 c 2
 116 -192 l 2
 122 -180 131 -174 142 -174 c 0
 145 -174 147 -174 150 -175 c 0
 170 -179 192 -181 208 -181 c 0
 256 -181 305 -165 305 -140 c 0
 305 -128 292 -119 264 -119 c 0
 256 -119 246 -120 236 -121 c 0
 233 -121 231 -122 228 -122 c 0
 219 -122 211 -119 205 -111 c 2
 181 -82 l 2
 177 -77 175 -72 175 -66 c 0
 175 -60 177 -54 181 -48 c 2
 208 -5 l 1
 140 21 85 84 85 207 c 0
 85 246 90 280 107 390 c 0
 147 640 295 710 413 710 c 0
 458 710 502 700 546 680 c 0
 555 676 559 671 559 663 c 0
 559 658 557 653 554 647 c 2
 540 623 l 2
 534 612 526 607 517 607 c 0
 513 607 510 607 506 609 c 0
 464 625 430 632 399 632 c 0
 320 632 224 586 193 390 c 0
 176 286 172 253 172 217 c 0
 172 91 241 58 308 58 c 0
 339 58 376 65 422 81 c 0
 426 83 430 83 434 83 c 0
 443 83 449 78 452 67 c 2
 458 43 l 2
 459 40 459 37 459 34 c 0
 459 23 453 15 440 10 c 0
 390 -10 342 -20 297 -20 c 0
 288 -20 280 -20 271 -19 c 1
 241 -68 l 1
EndSplineSet
EndChar

StartChar: Egrave
Encoding: 200 200 136
Width: 575
GlyphClass: 2
Flags: W
LayerCount: 2
Fore
SplineSet
143 77 m 1
 464 77 l 2
 478 77 486 71 486 59 c 0
 486 57 485 54 485 52 c 2
 481 25 l 2
 478 8 468 0 452 0 c 2
 70 0 l 2
 56 0 48 6 48 18 c 0
 48 20 49 23 49 25 c 2
 152 675 l 2
 155 692 165 700 181 700 c 2
 540 700 l 2
 554 700 562 694 562 682 c 0
 562 680 561 677 561 675 c 2
 557 649 l 2
 554 632 544 624 528 624 c 2
 229 624 l 1
 194 403 l 1
 472 403 l 2
 486 403 494 397 494 385 c 0
 494 383 493 380 493 378 c 2
 489 351 l 2
 486 334 476 326 460 326 c 2
 182 326 l 1
 143 77 l 1
482 850 m 2
 491 846 495 840 495 833 c 0
 495 828 493 823 490 817 c 2
 479 799 l 2
 471 789 463 784 454 784 c 0
 451 784 448 785 444 786 c 2
 233 861 l 2
 224 864 219 870 219 878 c 0
 219 883 221 887 224 893 c 2
 254 939 l 2
 259 949 267 954 276 954 c 0
 280 954 285 953 289 951 c 2
 482 850 l 2
EndSplineSet
EndChar

StartChar: Eacute
Encoding: 201 201 137
Width: 575
GlyphClass: 2
Flags: W
LayerCount: 2
Fore
SplineSet
143 77 m 1
 464 77 l 2
 478 77 486 71 486 59 c 0
 486 57 485 54 485 52 c 2
 481 25 l 2
 478 8 468 0 452 0 c 2
 70 0 l 2
 56 0 48 6 48 18 c 0
 48 20 49 23 49 25 c 2
 152 675 l 2
 155 692 165 700 181 700 c 2
 540 700 l 2
 554 700 562 694 562 682 c 0
 562 680 561 677 561 675 c 2
 557 649 l 2
 554 632 544 624 528 624 c 2
 229 624 l 1
 194 403 l 1
 472 403 l 2
 486 403 494 397 494 385 c 0
 494 383 493 380 493 378 c 2
 489 351 l 2
 486 334 476 326 460 326 c 2
 182 326 l 1
 143 77 l 1
274 799 m 2
 268 817 l 2
 268 819 267 822 267 824 c 0
 267 835 274 844 287 850 c 2
 513 951 l 2
 518 953 522 954 526 954 c 0
 534 954 541 949 544 939 c 2
 557 893 l 2
 558 890 559 887 559 884 c 0
 559 873 551 865 538 861 c 2
 306 786 l 2
 302 785 298 784 294 784 c 0
 284 784 278 789 274 799 c 2
EndSplineSet
EndChar

StartChar: Ecircumflex
Encoding: 202 202 138
Width: 575
GlyphClass: 2
Flags: W
LayerCount: 2
Fore
SplineSet
143 77 m 1
 464 77 l 2
 478 77 486 71 486 59 c 0
 486 57 485 54 485 52 c 2
 481 25 l 2
 478 8 468 0 452 0 c 2
 70 0 l 2
 56 0 48 6 48 18 c 0
 48 20 49 23 49 25 c 2
 152 675 l 2
 155 692 165 700 181 700 c 2
 540 700 l 2
 554 700 562 694 562 682 c 0
 562 680 561 677 561 675 c 2
 557 649 l 2
 554 632 544 624 528 624 c 2
 229 624 l 1
 194 403 l 1
 472 403 l 2
 486 403 494 397 494 385 c 0
 494 383 493 380 493 378 c 2
 489 351 l 2
 486 334 476 326 460 326 c 2
 182 326 l 1
 143 77 l 1
219 807 m 2
 207 831 l 2
 204 835 203 840 203 844 c 0
 203 853 209 860 219 866 c 2
 334 932 l 2
 357 946 378 955 401 955 c 0
 424 955 444 944 462 932 c 2
 555 866 l 2
 562 861 565 856 565 850 c 0
 565 844 562 838 556 831 c 2
 535 808 l 2
 529 800 522 796 515 796 c 0
 510 796 505 798 500 802 c 2
 409 874 l 2
 402 879 400 883 390 883 c 0
 380 883 376 879 367 874 c 2
 254 802 l 2
 248 798 243 796 238 796 c 0
 231 796 224 800 219 807 c 2
EndSplineSet
EndChar

StartChar: Edieresis
Encoding: 203 203 139
Width: 575
GlyphClass: 2
Flags: W
LayerCount: 2
Fore
SplineSet
143 77 m 1
 464 77 l 2
 478 77 486 71 486 59 c 0
 486 57 485 54 485 52 c 2
 481 25 l 2
 478 8 468 0 452 0 c 2
 70 0 l 2
 56 0 48 6 48 18 c 0
 48 20 49 23 49 25 c 2
 152 675 l 2
 155 692 165 700 181 700 c 2
 540 700 l 2
 554 700 562 694 562 682 c 0
 562 680 561 677 561 675 c 2
 557 649 l 2
 554 632 544 624 528 624 c 2
 229 624 l 1
 194 403 l 1
 472 403 l 2
 486 403 494 397 494 385 c 0
 494 383 493 380 493 378 c 2
 489 351 l 2
 486 334 476 326 460 326 c 2
 182 326 l 1
 143 77 l 1
329 885 m 2
 322 839 l 2
 319 822 310 814 293 814 c 2
 258 814 l 2
 244 814 236 821 236 833 c 0
 236 835 237 837 237 839 c 2
 244 885 l 2
 247 901 257 910 273 910 c 2
 308 910 l 2
 322 910 330 904 330 892 c 0
 330 890 329 887 329 885 c 2
536 885 m 2
 529 839 l 2
 526 822 516 814 500 814 c 2
 465 814 l 2
 451 814 443 820 443 832 c 0
 443 834 444 837 444 839 c 2
 451 885 l 2
 454 901 464 910 480 910 c 2
 515 910 l 2
 529 910 537 903 537 891 c 0
 537 889 536 887 536 885 c 2
EndSplineSet
EndChar

StartChar: Igrave
Encoding: 204 204 140
Width: 575
GlyphClass: 2
Flags: W
LayerCount: 2
Fore
SplineSet
191 700 m 2
 526 700 l 2
 540 700 548 694 548 682 c 0
 548 680 547 677 547 675 c 2
 543 649 l 2
 540 632 530 624 514 624 c 2
 389 624 l 1
 303 77 l 1
 438 77 l 2
 452 77 460 71 460 59 c 0
 460 57 459 54 459 52 c 2
 455 25 l 2
 452 8 442 0 426 0 c 2
 71 0 l 2
 57 0 49 6 49 18 c 0
 49 20 50 23 50 25 c 2
 54 52 l 2
 57 69 67 77 83 77 c 2
 218 77 l 1
 304 624 l 1
 179 624 l 2
 165 624 157 630 157 642 c 0
 157 644 158 647 158 649 c 2
 162 675 l 2
 165 692 175 700 191 700 c 2
482 850 m 2
 491 846 495 840 495 833 c 0
 495 828 493 823 490 817 c 2
 479 799 l 2
 471 789 463 784 454 784 c 0
 451 784 448 785 444 786 c 2
 233 861 l 2
 224 864 219 870 219 878 c 0
 219 883 221 887 224 893 c 2
 254 939 l 2
 259 949 267 954 276 954 c 0
 280 954 285 953 289 951 c 2
 482 850 l 2
EndSplineSet
EndChar

StartChar: Iacute
Encoding: 205 205 141
Width: 575
GlyphClass: 2
Flags: W
LayerCount: 2
Fore
SplineSet
191 700 m 2
 526 700 l 2
 540 700 548 694 548 682 c 0
 548 680 547 677 547 675 c 2
 543 649 l 2
 540 632 530 624 514 624 c 2
 389 624 l 1
 303 77 l 1
 438 77 l 2
 452 77 460 71 460 59 c 0
 460 57 459 54 459 52 c 2
 455 25 l 2
 452 8 442 0 426 0 c 2
 71 0 l 2
 57 0 49 6 49 18 c 0
 49 20 50 23 50 25 c 2
 54 52 l 2
 57 69 67 77 83 77 c 2
 218 77 l 1
 304 624 l 1
 179 624 l 2
 165 624 157 630 157 642 c 0
 157 644 158 647 158 649 c 2
 162 675 l 2
 165 692 175 700 191 700 c 2
274 799 m 2
 268 817 l 2
 268 819 267 822 267 824 c 0
 267 835 274 844 287 850 c 2
 513 951 l 2
 518 953 522 954 526 954 c 0
 534 954 541 949 544 939 c 2
 557 893 l 2
 558 890 559 887 559 884 c 0
 559 873 551 865 538 861 c 2
 306 786 l 2
 302 785 298 784 294 784 c 0
 284 784 278 789 274 799 c 2
EndSplineSet
EndChar

StartChar: Icircumflex
Encoding: 206 206 142
Width: 575
GlyphClass: 2
Flags: W
LayerCount: 2
Fore
SplineSet
191 700 m 2
 526 700 l 2
 540 700 548 694 548 682 c 0
 548 680 547 677 547 675 c 2
 543 649 l 2
 540 632 530 624 514 624 c 2
 389 624 l 1
 303 77 l 1
 438 77 l 2
 452 77 460 71 460 59 c 0
 460 57 459 54 459 52 c 2
 455 25 l 2
 452 8 442 0 426 0 c 2
 71 0 l 2
 57 0 49 6 49 18 c 0
 49 20 50 23 50 25 c 2
 54 52 l 2
 57 69 67 77 83 77 c 2
 218 77 l 1
 304 624 l 1
 179 624 l 2
 165 624 157 630 157 642 c 0
 157 644 158 647 158 649 c 2
 162 675 l 2
 165 692 175 700 191 700 c 2
219 807 m 2
 207 831 l 2
 204 835 203 840 203 844 c 0
 203 853 209 860 219 866 c 2
 334 932 l 2
 357 946 378 955 401 955 c 0
 424 955 444 944 462 932 c 2
 555 866 l 2
 562 861 565 856 565 850 c 0
 565 844 562 838 556 831 c 2
 535 808 l 2
 529 800 522 796 515 796 c 0
 510 796 505 798 500 802 c 2
 409 874 l 2
 402 879 400 883 390 883 c 0
 380 883 376 879 367 874 c 2
 254 802 l 2
 248 798 243 796 238 796 c 0
 231 796 224 800 219 807 c 2
EndSplineSet
EndChar

StartChar: Idieresis
Encoding: 207 207 143
Width: 575
GlyphClass: 2
Flags: W
LayerCount: 2
Fore
SplineSet
191 700 m 2
 526 700 l 2
 540 700 548 694 548 682 c 0
 548 680 547 677 547 675 c 2
 543 649 l 2
 540 632 530 624 514 624 c 2
 389 624 l 1
 303 77 l 1
 438 77 l 2
 452 77 460 71 460 59 c 0
 460 57 459 54 459 52 c 2
 455 25 l 2
 452 8 442 0 426 0 c 2
 71 0 l 2
 57 0 49 6 49 18 c 0
 49 20 50 23 50 25 c 2
 54 52 l 2
 57 69 67 77 83 77 c 2
 218 77 l 1
 304 624 l 1
 179 624 l 2
 165 624 157 630 157 642 c 0
 157 644 158 647 158 649 c 2
 162 675 l 2
 165 692 175 700 191 700 c 2
329 885 m 2
 322 839 l 2
 319 822 310 814 293 814 c 2
 258 814 l 2
 244 814 236 821 236 833 c 0
 236 835 237 837 237 839 c 2
 244 885 l 2
 247 901 257 910 273 910 c 2
 308 910 l 2
 322 910 330 904 330 892 c 0
 330 890 329 887 329 885 c 2
536 885 m 2
 529 839 l 2
 526 822 516 814 500 814 c 2
 465 814 l 2
 451 814 443 820 443 832 c 0
 443 834 444 837 444 839 c 2
 451 885 l 2
 454 901 464 910 480 910 c 2
 515 910 l 2
 529 910 537 903 537 891 c 0
 537 889 536 887 536 885 c 2
EndSplineSet
EndChar

StartChar: Eth
Encoding: 208 208 144
Width: 575
GlyphClass: 2
Flags: W
LayerCount: 2
Fore
SplineSet
150 76 m 1
 335 80 405 145 434 332 c 0
 449 420 451 441 451 473 c 0
 451 570 395 614 237 622 c 1
 200 389 l 1
 303 389 l 2
 317 389 325 382 325 370 c 0
 325 368 324 366 324 364 c 2
 320 337 l 2
 317 321 307 312 291 312 c 2
 188 312 l 1
 150 76 l 1
47 337 m 2
 51 363 l 2
 54 380 64 389 80 389 c 2
 114 389 l 1
 151 624 l 1
 115 624 l 2
 100 624 91 632 91 645 c 0
 91 647 92 649 92 651 c 2
 96 677 l 2
 99 694 107 700 123 700 c 2
 175 700 l 2
 392 700 536 648 536 473 c 0
 536 433 532 405 518 320 c 0
 484 102 384 0 133 0 c 2
 79 0 l 2
 64 0 55 8 55 21 c 0
 55 23 56 25 56 27 c 2
 101 312 l 1
 68 312 l 2
 54 312 46 319 46 331 c 0
 46 333 47 335 47 337 c 2
EndSplineSet
EndChar

StartChar: Ntilde
Encoding: 209 209 145
Width: 575
GlyphClass: 2
Flags: W
LayerCount: 2
Fore
SplineSet
519 700 m 2
 554 700 l 2
 568 700 576 695 576 683 c 0
 576 681 575 678 575 676 c 2
 470 25 l 2
 467 8 457 0 441 0 c 2
 423 0 l 2
 395 0 379 11 370 36 c 2
 198 527 l 1
 119 25 l 2
 116 8 106 0 90 0 c 2
 55 0 l 2
 41 0 33 6 33 18 c 0
 33 20 34 23 34 25 c 2
 137 675 l 2
 140 692 150 700 166 700 c 2
 186 700 l 2
 214 700 231 689 239 664 c 2
 408 169 l 1
 490 675 l 2
 492 690 504 700 519 700 c 2
206 840 m 2
 194 849 l 2
 188 853 185 859 185 865 c 0
 185 871 188 877 194 884 c 0
 235 928 278 953 317 953 c 0
 341 953 372 940 404 916 c 0
 425 901 444 893 461 893 c 0
 480 893 500 902 518 919 c 0
 525 926 532 930 539 930 c 0
 544 930 549 928 554 925 c 2
 565 916 l 2
 571 911 575 906 575 900 c 0
 575 894 571 887 565 881 c 0
 523 836 480 812 442 812 c 0
 419 812 388 825 355 848 c 0
 334 863 311 871 293 871 c 0
 277 871 260 862 242 846 c 0
 235 839 227 835 220 835 c 0
 215 835 210 837 206 840 c 2
EndSplineSet
EndChar

StartChar: Ograve
Encoding: 210 210 146
Width: 575
GlyphClass: 2
Flags: W
LayerCount: 2
Fore
SplineSet
111 457 m 0
 137 624 238 710 356 710 c 0
 458 710 535 644 535 519 c 0
 535 480 529 456 496 243 c 0
 470 78 370 -10 252 -10 c 0
 155 -10 77 48 72 162 c 1
 72 177 l 2
 72 222 80 267 111 457 c 0
159 172 m 0
 166 104 214 67 264 67 c 0
 329 67 393 131 411 243 c 0
 443 443 449 475 449 503 c 0
 449 587 399 634 344 634 c 0
 279 634 214 569 196 457 c 0
 167 275 158 228 158 193 c 0
 158 186 158 179 159 172 c 0
482 850 m 2
 491 846 495 840 495 833 c 0
 495 828 493 823 490 817 c 2
 479 799 l 2
 471 789 463 784 454 784 c 0
 451 784 448 785 444 786 c 2
 233 861 l 2
 224 864 219 870 219 878 c 0
 219 883 221 887 224 893 c 2
 254 939 l 2
 259 949 267 954 276 954 c 0
 280 954 285 953 289 951 c 2
 482 850 l 2
EndSplineSet
EndChar

StartChar: Oacute
Encoding: 211 211 147
Width: 575
GlyphClass: 2
Flags: W
LayerCount: 2
Fore
SplineSet
111 457 m 0
 137 624 238 710 356 710 c 0
 458 710 535 644 535 519 c 0
 535 480 529 456 496 243 c 0
 470 78 370 -10 252 -10 c 0
 155 -10 77 48 72 162 c 1
 72 177 l 2
 72 222 80 267 111 457 c 0
159 172 m 0
 166 104 214 67 264 67 c 0
 329 67 393 131 411 243 c 0
 443 443 449 475 449 503 c 0
 449 587 399 634 344 634 c 0
 279 634 214 569 196 457 c 0
 167 275 158 228 158 193 c 0
 158 186 158 179 159 172 c 0
274 799 m 2
 268 817 l 2
 268 819 267 822 267 824 c 0
 267 835 274 844 287 850 c 2
 513 951 l 2
 518 953 522 954 526 954 c 0
 534 954 541 949 544 939 c 2
 557 893 l 2
 558 890 559 887 559 884 c 0
 559 873 551 865 538 861 c 2
 306 786 l 2
 302 785 298 784 294 784 c 0
 284 784 278 789 274 799 c 2
EndSplineSet
EndChar

StartChar: Ocircumflex
Encoding: 212 212 148
Width: 575
GlyphClass: 2
Flags: W
LayerCount: 2
Fore
SplineSet
111 457 m 0
 137 624 238 710 356 710 c 0
 458 710 535 644 535 519 c 0
 535 480 529 456 496 243 c 0
 470 78 370 -10 252 -10 c 0
 155 -10 77 48 72 162 c 1
 72 177 l 2
 72 222 80 267 111 457 c 0
159 172 m 0
 166 104 214 67 264 67 c 0
 329 67 393 131 411 243 c 0
 443 443 449 475 449 503 c 0
 449 587 399 634 344 634 c 0
 279 634 214 569 196 457 c 0
 167 275 158 228 158 193 c 0
 158 186 158 179 159 172 c 0
219 807 m 2
 207 831 l 2
 204 835 203 840 203 844 c 0
 203 853 209 860 219 866 c 2
 334 932 l 2
 357 946 378 955 401 955 c 0
 424 955 444 944 462 932 c 2
 555 866 l 2
 562 861 565 856 565 850 c 0
 565 844 562 838 556 831 c 2
 535 808 l 2
 529 800 522 796 515 796 c 0
 510 796 505 798 500 802 c 2
 409 874 l 2
 402 879 400 883 390 883 c 0
 380 883 376 879 367 874 c 2
 254 802 l 2
 248 798 243 796 238 796 c 0
 231 796 224 800 219 807 c 2
EndSplineSet
EndChar

StartChar: Otilde
Encoding: 213 213 149
Width: 575
GlyphClass: 2
Flags: W
LayerCount: 2
Fore
SplineSet
111 457 m 0
 137 624 238 710 356 710 c 0
 458 710 535 644 535 519 c 0
 535 480 529 456 496 243 c 0
 470 78 370 -10 252 -10 c 0
 155 -10 77 48 72 162 c 1
 72 177 l 2
 72 222 80 267 111 457 c 0
159 172 m 0
 166 104 214 67 264 67 c 0
 329 67 393 131 411 243 c 0
 443 443 449 475 449 503 c 0
 449 587 399 634 344 634 c 0
 279 634 214 569 196 457 c 0
 167 275 158 228 158 193 c 0
 158 186 158 179 159 172 c 0
206 840 m 2
 194 849 l 2
 188 853 185 859 185 865 c 0
 185 871 188 877 194 884 c 0
 235 928 278 953 317 953 c 0
 341 953 372 940 404 916 c 0
 425 901 444 893 461 893 c 0
 480 893 500 902 518 919 c 0
 525 926 532 930 539 930 c 0
 544 930 549 928 554 925 c 2
 565 916 l 2
 571 911 575 906 575 900 c 0
 575 894 571 887 565 881 c 0
 523 836 480 812 442 812 c 0
 419 812 388 825 355 848 c 0
 334 863 311 871 293 871 c 0
 277 871 260 862 242 846 c 0
 235 839 227 835 220 835 c 0
 215 835 210 837 206 840 c 2
EndSplineSet
EndChar

StartChar: Odieresis
Encoding: 214 214 150
Width: 575
GlyphClass: 2
Flags: W
LayerCount: 2
Fore
SplineSet
111 457 m 0
 137 624 238 710 356 710 c 0
 458 710 535 644 535 519 c 0
 535 480 529 456 496 243 c 0
 470 78 370 -10 252 -10 c 0
 155 -10 77 48 72 162 c 1
 72 177 l 2
 72 222 80 267 111 457 c 0
159 172 m 0
 166 104 214 67 264 67 c 0
 329 67 393 131 411 243 c 0
 443 443 449 475 449 503 c 0
 449 587 399 634 344 634 c 0
 279 634 214 569 196 457 c 0
 167 275 158 228 158 193 c 0
 158 186 158 179 159 172 c 0
329 885 m 2
 322 839 l 2
 319 822 310 814 293 814 c 2
 258 814 l 2
 244 814 236 821 236 833 c 0
 236 835 237 837 237 839 c 2
 244 885 l 2
 247 901 257 910 273 910 c 2
 308 910 l 2
 322 910 330 904 330 892 c 0
 330 890 329 887 329 885 c 2
536 885 m 2
 529 839 l 2
 526 822 516 814 500 814 c 2
 465 814 l 2
 451 814 443 820 443 832 c 0
 443 834 444 837 444 839 c 2
 451 885 l 2
 454 901 464 910 480 910 c 2
 515 910 l 2
 529 910 537 903 537 891 c 0
 537 889 536 887 536 885 c 2
EndSplineSet
EndChar

StartChar: multiply
Encoding: 215 215 151
Width: 575
GlyphClass: 2
Flags: W
LayerCount: 2
Fore
SplineSet
516 511 m 2
 530 492 l 2
 533 488 535 483 535 478 c 0
 535 471 531 463 524 456 c 2
 369 313 l 1
 479 170 l 2
 482 165 484 160 484 155 c 0
 484 148 481 141 474 135 c 2
 446 110 l 2
 440 104 434 102 428 102 c 0
 422 102 418 104 414 110 c 2
 304 253 l 1
 148 110 l 2
 142 104 136 102 130 102 c 0
 124 102 118 104 114 110 c 2
 100 129 l 2
 97 134 95 139 95 144 c 0
 95 151 98 159 105 165 c 2
 261 308 l 1
 151 451 l 2
 148 456 146 461 146 466 c 0
 146 473 149 480 156 486 c 2
 184 511 l 2
 190 517 196 519 202 519 c 0
 208 519 212 517 216 511 c 2
 326 368 l 1
 482 511 l 2
 488 517 494 519 500 519 c 0
 506 519 512 517 516 511 c 2
EndSplineSet
EndChar

StartChar: Oslash
Encoding: 216 216 152
Width: 575
GlyphClass: 2
Flags: W
LayerCount: 2
Fore
SplineSet
111 457 m 0
 137 624 238 710 356 710 c 0
 399 710 437 699 467 676 c 1
 526 772 l 2
 532 781 539 786 547 786 c 0
 551 786 554 785 558 783 c 2
 581 770 l 2
 588 766 592 759 592 752 c 0
 592 747 591 743 587 737 c 2
 514 618 l 1
 527 591 535 558 535 519 c 0
 535 480 529 456 496 243 c 0
 470 78 370 -10 252 -10 c 0
 213 -10 176 -1 147 18 c 1
 80 -91 l 2
 74 -100 67 -105 59 -105 c 0
 55 -105 52 -104 48 -102 c 2
 25 -89 l 2
 18 -85 14 -78 14 -71 c 0
 14 -66 15 -62 19 -56 c 2
 97 71 l 1
 83 96 74 126 72 162 c 2
 72 177 l 2
 72 222 80 267 111 457 c 0
419 598 m 1
 399 622 372 634 344 634 c 0
 279 634 214 569 196 457 c 0
 167 276 158 229 158 194 c 0
 158 187 158 180 159 173 c 1
 419 598 l 1
194 95 m 1
 213 76 238 67 264 67 c 0
 329 67 393 131 411 243 c 0
 443 443 449 475 449 503 c 2
 449 511 l 1
 194 95 l 1
EndSplineSet
EndChar

StartChar: Ugrave
Encoding: 217 217 153
Width: 575
GlyphClass: 2
Flags: W
LayerCount: 2
Fore
SplineSet
406 213 m 2
 479 675 l 2
 482 692 492 700 508 700 c 2
 543 700 l 2
 557 700 565 694 565 682 c 0
 565 680 564 677 564 675 c 2
 491 213 l 2
 465 46 377 -10 259 -10 c 0
 157 -10 67 32 67 152 c 0
 67 171 69 191 72 213 c 2
 145 675 l 2
 148 692 158 700 174 700 c 2
 209 700 l 2
 223 700 231 694 231 682 c 0
 231 680 230 677 230 675 c 2
 157 213 l 2
 154 192 152 174 152 159 c 0
 152 90 202 66 271 66 c 0
 355 66 389 103 406 213 c 2
482 850 m 2
 491 846 495 840 495 833 c 0
 495 828 493 823 490 817 c 2
 479 799 l 2
 471 789 463 784 454 784 c 0
 451 784 448 785 444 786 c 2
 233 861 l 2
 224 864 219 870 219 878 c 0
 219 883 221 887 224 893 c 2
 254 939 l 2
 259 949 267 954 276 954 c 0
 280 954 285 953 289 951 c 2
 482 850 l 2
EndSplineSet
EndChar

StartChar: Uacute
Encoding: 218 218 154
Width: 575
GlyphClass: 2
Flags: W
LayerCount: 2
Fore
SplineSet
406 213 m 2
 479 675 l 2
 482 692 492 700 508 700 c 2
 543 700 l 2
 557 700 565 694 565 682 c 0
 565 680 564 677 564 675 c 2
 491 213 l 2
 465 46 377 -10 259 -10 c 0
 157 -10 67 32 67 152 c 0
 67 171 69 191 72 213 c 2
 145 675 l 2
 148 692 158 700 174 700 c 2
 209 700 l 2
 223 700 231 694 231 682 c 0
 231 680 230 677 230 675 c 2
 157 213 l 2
 154 192 152 174 152 159 c 0
 152 90 202 66 271 66 c 0
 355 66 389 103 406 213 c 2
274 799 m 2
 268 817 l 2
 268 819 267 822 267 824 c 0
 267 835 274 844 287 850 c 2
 513 951 l 2
 518 953 522 954 526 954 c 0
 534 954 541 949 544 939 c 2
 557 893 l 2
 558 890 559 887 559 884 c 0
 559 873 551 865 538 861 c 2
 306 786 l 2
 302 785 298 784 294 784 c 0
 284 784 278 789 274 799 c 2
EndSplineSet
EndChar

StartChar: Ucircumflex
Encoding: 219 219 155
Width: 575
GlyphClass: 2
Flags: W
LayerCount: 2
Fore
SplineSet
406 213 m 2
 479 675 l 2
 482 692 492 700 508 700 c 2
 543 700 l 2
 557 700 565 694 565 682 c 0
 565 680 564 677 564 675 c 2
 491 213 l 2
 465 46 377 -10 259 -10 c 0
 157 -10 67 32 67 152 c 0
 67 171 69 191 72 213 c 2
 145 675 l 2
 148 692 158 700 174 700 c 2
 209 700 l 2
 223 700 231 694 231 682 c 0
 231 680 230 677 230 675 c 2
 157 213 l 2
 154 192 152 174 152 159 c 0
 152 90 202 66 271 66 c 0
 355 66 389 103 406 213 c 2
219 807 m 2
 207 831 l 2
 204 835 203 840 203 844 c 0
 203 853 209 860 219 866 c 2
 334 932 l 2
 357 946 378 955 401 955 c 0
 424 955 444 944 462 932 c 2
 555 866 l 2
 562 861 565 856 565 850 c 0
 565 844 562 838 556 831 c 2
 535 808 l 2
 529 800 522 796 515 796 c 0
 510 796 505 798 500 802 c 2
 409 874 l 2
 402 879 400 883 390 883 c 0
 380 883 376 879 367 874 c 2
 254 802 l 2
 248 798 243 796 238 796 c 0
 231 796 224 800 219 807 c 2
EndSplineSet
EndChar

StartChar: Udieresis
Encoding: 220 220 156
Width: 575
GlyphClass: 2
Flags: W
LayerCount: 2
Fore
SplineSet
406 213 m 2
 479 675 l 2
 482 692 492 700 508 700 c 2
 543 700 l 2
 557 700 565 694 565 682 c 0
 565 680 564 677 564 675 c 2
 491 213 l 2
 465 46 377 -10 259 -10 c 0
 157 -10 67 32 67 152 c 0
 67 171 69 191 72 213 c 2
 145 675 l 2
 148 692 158 700 174 700 c 2
 209 700 l 2
 223 700 231 694 231 682 c 0
 231 680 230 677 230 675 c 2
 157 213 l 2
 154 192 152 174 152 159 c 0
 152 90 202 66 271 66 c 0
 355 66 389 103 406 213 c 2
329 885 m 2
 322 839 l 2
 319 822 310 814 293 814 c 2
 258 814 l 2
 244 814 236 821 236 833 c 0
 236 835 237 837 237 839 c 2
 244 885 l 2
 247 901 257 910 273 910 c 2
 308 910 l 2
 322 910 330 904 330 892 c 0
 330 890 329 887 329 885 c 2
536 885 m 2
 529 839 l 2
 526 822 516 814 500 814 c 2
 465 814 l 2
 451 814 443 820 443 832 c 0
 443 834 444 837 444 839 c 2
 451 885 l 2
 454 901 464 910 480 910 c 2
 515 910 l 2
 529 910 537 903 537 891 c 0
 537 889 536 887 536 885 c 2
EndSplineSet
EndChar

StartChar: Yacute
Encoding: 221 221 157
Width: 575
GlyphClass: 2
Flags: W
LayerCount: 2
Fore
SplineSet
567 700 m 2
 603 700 l 2
 616 700 623 695 623 687 c 0
 623 683 621 677 617 671 c 2
 426 380 l 2
 404 347 375 325 340 315 c 1
 294 25 l 2
 291 8 281 0 265 0 c 2
 230 0 l 2
 216 0 208 6 208 18 c 0
 208 20 209 23 209 25 c 2
 255 315 l 1
 224 325 201 347 191 380 c 2
 92 671 l 2
 90 675 90 678 90 681 c 0
 90 692 99 700 114 700 c 2
 151 700 l 2
 165 700 173 695 177 682 c 2
 270 410 l 2
 277 391 291 380 309 380 c 0
 327 380 343 391 355 410 c 2
 534 682 l 2
 542 695 553 700 567 700 c 2
274 799 m 2
 268 817 l 2
 268 819 267 822 267 824 c 0
 267 835 274 844 287 850 c 2
 513 951 l 2
 518 953 522 954 526 954 c 0
 534 954 541 949 544 939 c 2
 557 893 l 2
 558 890 559 887 559 884 c 0
 559 873 551 865 538 861 c 2
 306 786 l 2
 302 785 298 784 294 784 c 0
 284 784 278 789 274 799 c 2
EndSplineSet
EndChar

StartChar: Thorn
Encoding: 222 222 158
Width: 575
GlyphClass: 2
Flags: W
LayerCount: 2
Fore
SplineSet
237 675 m 2
 231 637 l 1
 268 641 299 642 321 642 c 0
 459 642 519 590 519 448 c 0
 519 254 438 121 239 121 c 0
 219 121 188 122 150 126 c 1
 134 25 l 2
 132 9 121 0 105 0 c 2
 70 0 l 2
 56 0 49 7 49 20 c 2
 49 25 l 1
 152 675 l 2
 155 691 165 700 181 700 c 2
 216 700 l 2
 230 700 238 693 238 681 c 0
 238 679 237 677 237 675 c 2
219 562 m 1
 162 202 l 1
 199 199 231 198 251 198 c 0
 387 198 433 298 433 435 c 0
 433 533 399 565 309 565 c 0
 291 565 259 565 219 562 c 1
EndSplineSet
EndChar

StartChar: germandbls
Encoding: 223 223 159
Width: 575
GlyphClass: 2
Flags: W
LayerCount: 2
Fore
SplineSet
510 607 m 0
 510 490 387 429 387 364 c 0
 387 299 506 316 506 180 c 0
 506 66 407 -10 302 -10 c 0
 274 -10 266 -8 232 1 c 0
 223 4 217 10 217 19 c 0
 217 23 218 26 220 31 c 2
 229 57 l 2
 233 70 242 78 252 78 c 0
 254 78 256 78 258 77 c 0
 280 71 294 67 314 67 c 0
 367 67 421 114 421 173 c 0
 421 267 302 246 302 364 c 0
 302 466 430 516 430 593 c 0
 430 646 406 684 350 684 c 0
 291 684 249 641 235 554 c 2
 152 25 l 2
 149 9 140 0 126 0 c 2
 78 0 l 2
 68 0 65 4 65 12 c 0
 65 16 66 20 67 25 c 2
 150 554 l 2
 172 691 254 760 362 760 c 0
 465 760 510 695 510 607 c 0
EndSplineSet
EndChar

StartChar: agrave
Encoding: 224 224 160
Width: 575
GlyphClass: 2
Flags: W
LayerCount: 2
Fore
SplineSet
522 471 m 2
 454 30 l 2
 452 14 443 0 427 0 c 2
 390 0 l 2
 376 0 368 7 368 19 c 0
 368 21 369 23 369 25 c 2
 375 63 l 1
 322 15 263 -10 212 -10 c 0
 136 -10 77 36 77 189 c 0
 77 370 157 510 357 510 c 0
 386 510 440 508 501 500 c 0
 515 497 523 489 523 477 c 0
 523 475 522 473 522 471 c 2
388 151 m 1
 433 430 l 1
 395 433 363 434 345 434 c 0
 209 434 163 326 163 204 c 0
 163 94 195 66 242 66 c 0
 283 66 336 95 388 151 c 1
449 650 m 2
 458 646 462 640 462 633 c 0
 462 628 460 623 457 617 c 2
 446 599 l 2
 438 589 430 584 421 584 c 0
 418 584 415 585 411 586 c 2
 200 661 l 2
 191 664 186 670 186 678 c 0
 186 683 188 687 191 693 c 2
 221 739 l 2
 226 749 234 754 243 754 c 0
 247 754 252 753 256 751 c 2
 449 650 l 2
EndSplineSet
EndChar

StartChar: aacute
Encoding: 225 225 161
Width: 575
GlyphClass: 2
Flags: W
LayerCount: 2
Fore
SplineSet
522 471 m 2
 454 30 l 2
 452 14 443 0 427 0 c 2
 390 0 l 2
 376 0 368 7 368 19 c 0
 368 21 369 23 369 25 c 2
 375 63 l 1
 322 15 263 -10 212 -10 c 0
 136 -10 77 36 77 189 c 0
 77 370 157 510 357 510 c 0
 386 510 440 508 501 500 c 0
 515 497 523 489 523 477 c 0
 523 475 522 473 522 471 c 2
388 151 m 1
 433 430 l 1
 395 433 363 434 345 434 c 0
 209 434 163 326 163 204 c 0
 163 94 195 66 242 66 c 0
 283 66 336 95 388 151 c 1
241 599 m 2
 235 617 l 2
 235 619 234 622 234 624 c 0
 234 635 241 644 254 650 c 2
 480 751 l 2
 485 753 489 754 493 754 c 0
 501 754 508 749 511 739 c 2
 524 693 l 2
 525 690 526 687 526 684 c 0
 526 673 518 665 505 661 c 2
 273 586 l 2
 269 585 265 584 261 584 c 0
 251 584 245 589 241 599 c 2
EndSplineSet
EndChar

StartChar: acircumflex
Encoding: 226 226 162
Width: 575
GlyphClass: 2
Flags: W
LayerCount: 2
Fore
SplineSet
522 471 m 2
 454 30 l 2
 452 14 443 0 427 0 c 2
 390 0 l 2
 376 0 368 7 368 19 c 0
 368 21 369 23 369 25 c 2
 375 63 l 1
 322 15 263 -10 212 -10 c 0
 136 -10 77 36 77 189 c 0
 77 370 157 510 357 510 c 0
 386 510 440 508 501 500 c 0
 515 497 523 489 523 477 c 0
 523 475 522 473 522 471 c 2
388 151 m 1
 433 430 l 1
 395 433 363 434 345 434 c 0
 209 434 163 326 163 204 c 0
 163 94 195 66 242 66 c 0
 283 66 336 95 388 151 c 1
186 607 m 2
 174 631 l 2
 171 635 170 640 170 644 c 0
 170 653 176 660 186 666 c 2
 301 732 l 2
 324 746 345 755 368 755 c 0
 391 755 411 744 429 732 c 2
 522 666 l 2
 529 661 532 656 532 650 c 0
 532 644 529 638 523 631 c 2
 502 608 l 2
 496 600 489 596 482 596 c 0
 477 596 472 598 467 602 c 2
 376 674 l 2
 369 679 367 683 357 683 c 0
 347 683 343 679 334 674 c 2
 221 602 l 2
 215 598 210 596 205 596 c 0
 198 596 191 600 186 607 c 2
EndSplineSet
EndChar

StartChar: atilde
Encoding: 227 227 163
Width: 575
GlyphClass: 2
Flags: W
LayerCount: 2
Fore
SplineSet
522 471 m 2
 454 30 l 2
 452 14 443 0 427 0 c 2
 390 0 l 2
 376 0 368 7 368 19 c 0
 368 21 369 23 369 25 c 2
 375 63 l 1
 322 15 263 -10 212 -10 c 0
 136 -10 77 36 77 189 c 0
 77 370 157 510 357 510 c 0
 386 510 440 508 501 500 c 0
 515 497 523 489 523 477 c 0
 523 475 522 473 522 471 c 2
388 151 m 1
 433 430 l 1
 395 433 363 434 345 434 c 0
 209 434 163 326 163 204 c 0
 163 94 195 66 242 66 c 0
 283 66 336 95 388 151 c 1
173 640 m 2
 161 649 l 2
 155 653 152 659 152 665 c 0
 152 671 155 677 161 684 c 0
 202 728 245 753 284 753 c 0
 308 753 339 740 371 716 c 0
 392 701 411 693 428 693 c 0
 447 693 467 702 485 719 c 0
 492 726 499 730 506 730 c 0
 511 730 516 728 521 725 c 2
 532 716 l 2
 538 711 542 706 542 700 c 0
 542 694 538 687 532 681 c 0
 490 636 447 612 409 612 c 0
 386 612 355 625 322 648 c 0
 301 663 278 671 260 671 c 0
 244 671 227 662 209 646 c 0
 202 639 194 635 187 635 c 0
 182 635 177 637 173 640 c 2
EndSplineSet
EndChar

StartChar: adieresis
Encoding: 228 228 164
Width: 575
GlyphClass: 2
Flags: W
LayerCount: 2
Fore
SplineSet
522 471 m 2
 454 30 l 2
 452 14 443 0 427 0 c 2
 390 0 l 2
 376 0 368 7 368 19 c 0
 368 21 369 23 369 25 c 2
 375 63 l 1
 322 15 263 -10 212 -10 c 0
 136 -10 77 36 77 189 c 0
 77 370 157 510 357 510 c 0
 386 510 440 508 501 500 c 0
 515 497 523 489 523 477 c 0
 523 475 522 473 522 471 c 2
388 151 m 1
 433 430 l 1
 395 433 363 434 345 434 c 0
 209 434 163 326 163 204 c 0
 163 94 195 66 242 66 c 0
 283 66 336 95 388 151 c 1
296 685 m 2
 289 639 l 2
 286 622 277 614 260 614 c 2
 225 614 l 2
 211 614 203 621 203 633 c 0
 203 635 204 637 204 639 c 2
 211 685 l 2
 214 701 224 710 240 710 c 2
 275 710 l 2
 289 710 297 704 297 692 c 0
 297 690 296 687 296 685 c 2
503 685 m 2
 496 639 l 2
 493 622 483 614 467 614 c 2
 432 614 l 2
 418 614 410 620 410 632 c 0
 410 634 411 637 411 639 c 2
 418 685 l 2
 421 701 431 710 447 710 c 2
 482 710 l 2
 496 710 504 703 504 691 c 0
 504 689 503 687 503 685 c 2
EndSplineSet
EndChar

StartChar: aring
Encoding: 229 229 165
Width: 575
GlyphClass: 2
Flags: W
LayerCount: 2
Fore
SplineSet
522 471 m 2
 454 30 l 2
 452 14 443 0 427 0 c 2
 390 0 l 2
 376 0 368 7 368 19 c 0
 368 21 369 23 369 25 c 2
 375 63 l 1
 322 15 263 -10 212 -10 c 0
 136 -10 77 36 77 189 c 0
 77 370 157 510 357 510 c 0
 386 510 440 508 501 500 c 0
 515 497 523 489 523 477 c 0
 523 475 522 473 522 471 c 2
388 151 m 1
 433 430 l 1
 395 433 363 434 345 434 c 0
 209 434 163 326 163 204 c 0
 163 94 195 66 242 66 c 0
 283 66 336 95 388 151 c 1
338 563 m 0
 278 563 243 593 243 642 c 0
 243 648 243 653 244 659 c 0
 253 718 301 755 368 755 c 0
 428 755 463 725 463 676 c 0
 463 670 463 665 462 659 c 0
 453 600 405 563 338 563 c 0
348 624 m 0
 368 624 382 638 385 659 c 0
 386 662 386 665 386 668 c 0
 386 684 376 694 359 694 c 0
 339 694 324 681 320 659 c 1
 320 652 l 2
 320 635 330 624 348 624 c 0
EndSplineSet
EndChar

StartChar: ae
Encoding: 230 230 166
Width: 575
GlyphClass: 2
Flags: W
AnchorPoint: "Anchor-1" 327 500 basechar 0
LayerCount: 2
Fore
SplineSet
156 443 m 2
 153 470 l 1
 153 474 l 2
 153 488 161 496 176 499 c 0
 215 506 257 510 293 510 c 0
 434 510 492 439 492 330 c 0
 492 311 490 291 487 270 c 2
 484 247 l 2
 481 231 471 222 455 222 c 2
 321 222 l 1
 296 67 l 1
 320 68 351 71 384 76 c 0
 387 76 390 77 392 77 c 0
 404 77 410 70 411 57 c 2
 413 31 l 1
 413 27 l 2
 413 13 404 4 389 1 c 0
 333 -9 321 -9 249 -10 c 0
 102 -10 47 35 47 118 c 0
 47 128 48 138 49 149 c 0
 64 243 133 290 248 298 c 1
 269 433 l 1
 246 432 215 430 183 425 c 0
 180 425 177 424 175 424 c 0
 163 424 157 431 156 443 c 2
333 299 m 1
 407 299 l 1
 408 306 408 312 408 319 c 0
 408 361 396 403 351 415 c 1
 333 299 l 1
211 67 m 1
 235 220 l 1
 177 214 141 190 133 140 c 0
 132 136 132 132 132 129 c 0
 132 93 164 72 211 67 c 1
EndSplineSet
EndChar

StartChar: ccedilla
Encoding: 231 231 167
Width: 575
GlyphClass: 2
Flags: W
LayerCount: 2
Fore
SplineSet
241 -68 m 1
 264 -63 285 -61 303 -61 c 0
 372 -61 404 -91 404 -129 c 0
 404 -199 295 -246 197 -246 c 0
 172 -246 148 -242 121 -235 c 0
 111 -232 106 -225 106 -217 c 0
 106 -213 107 -208 110 -203 c 2
 116 -192 l 2
 122 -180 131 -174 142 -174 c 0
 145 -174 147 -174 150 -175 c 0
 170 -179 192 -181 208 -181 c 0
 256 -181 305 -165 305 -140 c 0
 305 -128 292 -119 264 -119 c 0
 256 -119 246 -120 236 -121 c 0
 233 -121 231 -122 228 -122 c 0
 219 -122 211 -119 205 -111 c 2
 181 -82 l 2
 177 -77 175 -72 175 -66 c 0
 175 -60 177 -54 181 -48 c 2
 208 -5 l 2
 209 -3 210 -2 211 0 c 1
 135 22 80 82 80 202 c 0
 80 370 187 510 369 510 c 0
 420 510 471 500 514 480 c 0
 523 476 527 471 527 463 c 0
 527 458 525 453 522 447 c 2
 508 423 l 2
 502 412 494 407 485 407 c 0
 481 407 478 407 474 409 c 0
 433 425 398 432 357 432 c 0
 226 432 166 325 166 211 c 0
 166 102 222 68 299 68 c 0
 340 68 376 75 424 91 c 0
 428 93 432 93 436 93 c 0
 445 93 451 88 454 77 c 2
 460 53 l 2
 461 50 461 48 461 45 c 0
 461 34 455 25 442 20 c 0
 391 0 338 -10 287 -10 c 2
 276 -10 l 2
 275 -12 274 -14 272 -17 c 2
 241 -68 l 1
EndSplineSet
EndChar

StartChar: egrave
Encoding: 232 232 168
Width: 575
GlyphClass: 2
Flags: W
LayerCount: 2
Fore
SplineSet
458 77 m 2
 464 53 l 2
 465 50 465 48 465 45 c 0
 465 34 459 25 446 20 c 0
 395 0 338 -10 287 -10 c 0
 176 -10 73 45 73 189 c 0
 73 354 183 510 333 510 c 0
 423 510 507 448 507 331 c 0
 507 310 504 292 499 262 c 0
 496 246 486 237 470 237 c 2
 162 237 l 1
 160 223 159 210 159 199 c 0
 159 102 222 68 299 68 c 0
 340 68 380 75 428 91 c 0
 432 93 436 93 440 93 c 0
 449 93 455 88 458 77 c 2
422 314 m 1
 423 321 424 328 424 334 c 0
 424 401 369 434 322 434 c 0
 269 434 200 392 181 314 c 1
 422 314 l 1
449 650 m 2
 458 646 462 640 462 633 c 0
 462 628 460 623 457 617 c 2
 446 599 l 2
 438 589 430 584 421 584 c 0
 418 584 415 585 411 586 c 2
 200 661 l 2
 191 664 186 670 186 678 c 0
 186 683 188 687 191 693 c 2
 221 739 l 2
 226 749 234 754 243 754 c 0
 247 754 252 753 256 751 c 2
 449 650 l 2
EndSplineSet
EndChar

StartChar: eacute
Encoding: 233 233 169
Width: 575
GlyphClass: 2
Flags: W
LayerCount: 2
Fore
SplineSet
458 77 m 2
 464 53 l 2
 465 50 465 48 465 45 c 0
 465 34 459 25 446 20 c 0
 395 0 338 -10 287 -10 c 0
 176 -10 73 45 73 189 c 0
 73 354 183 510 333 510 c 0
 423 510 507 448 507 331 c 0
 507 310 504 292 499 262 c 0
 496 246 486 237 470 237 c 2
 162 237 l 1
 160 223 159 210 159 199 c 0
 159 102 222 68 299 68 c 0
 340 68 380 75 428 91 c 0
 432 93 436 93 440 93 c 0
 449 93 455 88 458 77 c 2
422 314 m 1
 423 321 424 328 424 334 c 0
 424 401 369 434 322 434 c 0
 269 434 200 392 181 314 c 1
 422 314 l 1
241 599 m 2
 235 617 l 2
 235 619 234 622 234 624 c 0
 234 635 241 644 254 650 c 2
 480 751 l 2
 485 753 489 754 493 754 c 0
 501 754 508 749 511 739 c 2
 524 693 l 2
 525 690 526 687 526 684 c 0
 526 673 518 665 505 661 c 2
 273 586 l 2
 269 585 265 584 261 584 c 0
 251 584 245 589 241 599 c 2
EndSplineSet
EndChar

StartChar: ecircumflex
Encoding: 234 234 170
Width: 575
GlyphClass: 2
Flags: W
LayerCount: 2
Fore
SplineSet
458 77 m 2
 464 53 l 2
 465 50 465 48 465 45 c 0
 465 34 459 25 446 20 c 0
 395 0 338 -10 287 -10 c 0
 176 -10 73 45 73 189 c 0
 73 354 183 510 333 510 c 0
 423 510 507 448 507 331 c 0
 507 310 504 292 499 262 c 0
 496 246 486 237 470 237 c 2
 162 237 l 1
 160 223 159 210 159 199 c 0
 159 102 222 68 299 68 c 0
 340 68 380 75 428 91 c 0
 432 93 436 93 440 93 c 0
 449 93 455 88 458 77 c 2
422 314 m 1
 423 321 424 328 424 334 c 0
 424 401 369 434 322 434 c 0
 269 434 200 392 181 314 c 1
 422 314 l 1
186 607 m 2
 174 631 l 2
 171 635 170 640 170 644 c 0
 170 653 176 660 186 666 c 2
 301 732 l 2
 324 746 345 755 368 755 c 0
 391 755 411 744 429 732 c 2
 522 666 l 2
 529 661 532 656 532 650 c 0
 532 644 529 638 523 631 c 2
 502 608 l 2
 496 600 489 596 482 596 c 0
 477 596 472 598 467 602 c 2
 376 674 l 2
 369 679 367 683 357 683 c 0
 347 683 343 679 334 674 c 2
 221 602 l 2
 215 598 210 596 205 596 c 0
 198 596 191 600 186 607 c 2
EndSplineSet
EndChar

StartChar: edieresis
Encoding: 235 235 171
Width: 575
GlyphClass: 2
Flags: W
LayerCount: 2
Fore
SplineSet
458 77 m 2
 464 53 l 2
 465 50 465 48 465 45 c 0
 465 34 459 25 446 20 c 0
 395 0 338 -10 287 -10 c 0
 176 -10 73 45 73 189 c 0
 73 354 183 510 333 510 c 0
 423 510 507 448 507 331 c 0
 507 310 504 292 499 262 c 0
 496 246 486 237 470 237 c 2
 162 237 l 1
 160 223 159 210 159 199 c 0
 159 102 222 68 299 68 c 0
 340 68 380 75 428 91 c 0
 432 93 436 93 440 93 c 0
 449 93 455 88 458 77 c 2
422 314 m 1
 423 321 424 328 424 334 c 0
 424 401 369 434 322 434 c 0
 269 434 200 392 181 314 c 1
 422 314 l 1
296 685 m 2
 289 639 l 2
 286 622 277 614 260 614 c 2
 225 614 l 2
 211 614 203 621 203 633 c 0
 203 635 204 637 204 639 c 2
 211 685 l 2
 214 701 224 710 240 710 c 2
 275 710 l 2
 289 710 297 704 297 692 c 0
 297 690 296 687 296 685 c 2
503 685 m 2
 496 639 l 2
 493 622 483 614 467 614 c 2
 432 614 l 2
 418 614 410 620 410 632 c 0
 410 634 411 637 411 639 c 2
 418 685 l 2
 421 701 431 710 447 710 c 2
 482 710 l 2
 496 710 504 703 504 691 c 0
 504 689 503 687 503 685 c 2
EndSplineSet
EndChar

StartChar: igrave
Encoding: 236 236 172
Width: 575
GlyphClass: 2
Flags: W
LayerCount: 2
Fore
SplineSet
224 150 m 2
 266 350 l 2
 269 363 270 374 270 384 c 0
 270 417 254 432 215 433 c 0
 199 433 180 431 150 426 c 0
 147 425 145 425 142 425 c 0
 131 425 123 431 121 443 c 2
 117 470 l 1
 117 477 l 2
 117 488 121 496 135 499 c 0
 173 508 207 510 227 510 c 0
 313 510 357 475 357 402 c 0
 357 386 355 369 351 350 c 2
 309 150 l 2
 306 137 305 126 305 116 c 0
 305 83 321 68 360 67 c 0
 376 67 395 69 425 74 c 0
 428 75 430 75 433 75 c 0
 444 75 452 69 454 57 c 2
 458 30 l 1
 458 23 l 2
 458 12 454 4 440 1 c 0
 402 -8 368 -10 348 -10 c 0
 262 -10 218 25 218 98 c 0
 218 114 220 131 224 150 c 2
449 650 m 2
 458 646 462 640 462 633 c 0
 462 628 460 623 457 617 c 2
 446 599 l 2
 438 589 430 584 421 584 c 0
 418 584 415 585 411 586 c 2
 200 661 l 2
 191 664 186 670 186 678 c 0
 186 683 188 687 191 693 c 2
 221 739 l 2
 226 749 234 754 243 754 c 0
 247 754 252 753 256 751 c 2
 449 650 l 2
EndSplineSet
EndChar

StartChar: iacute
Encoding: 237 237 173
Width: 575
GlyphClass: 2
Flags: W
LayerCount: 2
Fore
SplineSet
224 150 m 2
 266 350 l 2
 269 363 270 374 270 384 c 0
 270 417 254 432 215 433 c 0
 199 433 180 431 150 426 c 0
 147 425 145 425 142 425 c 0
 131 425 123 431 121 443 c 2
 117 470 l 1
 117 477 l 2
 117 488 121 496 135 499 c 0
 173 508 207 510 227 510 c 0
 313 510 357 475 357 402 c 0
 357 386 355 369 351 350 c 2
 309 150 l 2
 306 137 305 126 305 116 c 0
 305 83 321 68 360 67 c 0
 376 67 395 69 425 74 c 0
 428 75 430 75 433 75 c 0
 444 75 452 69 454 57 c 2
 458 30 l 1
 458 23 l 2
 458 12 454 4 440 1 c 0
 402 -8 368 -10 348 -10 c 0
 262 -10 218 25 218 98 c 0
 218 114 220 131 224 150 c 2
241 599 m 2
 235 617 l 2
 235 619 234 622 234 624 c 0
 234 635 241 644 254 650 c 2
 480 751 l 2
 485 753 489 754 493 754 c 0
 501 754 508 749 511 739 c 2
 524 693 l 2
 525 690 526 687 526 684 c 0
 526 673 518 665 505 661 c 2
 273 586 l 2
 269 585 265 584 261 584 c 0
 251 584 245 589 241 599 c 2
EndSplineSet
EndChar

StartChar: icircumflex
Encoding: 238 238 174
Width: 575
GlyphClass: 2
Flags: W
LayerCount: 2
Fore
SplineSet
224 150 m 2
 266 350 l 2
 269 363 270 374 270 384 c 0
 270 417 254 432 215 433 c 0
 199 433 180 431 150 426 c 0
 147 425 145 425 142 425 c 0
 131 425 123 431 121 443 c 2
 117 470 l 1
 117 477 l 2
 117 488 121 496 135 499 c 0
 173 508 207 510 227 510 c 0
 313 510 357 475 357 402 c 0
 357 386 355 369 351 350 c 2
 309 150 l 2
 306 137 305 126 305 116 c 0
 305 83 321 68 360 67 c 0
 376 67 395 69 425 74 c 0
 428 75 430 75 433 75 c 0
 444 75 452 69 454 57 c 2
 458 30 l 1
 458 23 l 2
 458 12 454 4 440 1 c 0
 402 -8 368 -10 348 -10 c 0
 262 -10 218 25 218 98 c 0
 218 114 220 131 224 150 c 2
186 607 m 2
 174 631 l 2
 171 635 170 640 170 644 c 0
 170 653 176 660 186 666 c 2
 301 732 l 2
 324 746 345 755 368 755 c 0
 391 755 411 744 429 732 c 2
 522 666 l 2
 529 661 532 656 532 650 c 0
 532 644 529 638 523 631 c 2
 502 608 l 2
 496 600 489 596 482 596 c 0
 477 596 472 598 467 602 c 2
 376 674 l 2
 369 679 367 683 357 683 c 0
 347 683 343 679 334 674 c 2
 221 602 l 2
 215 598 210 596 205 596 c 0
 198 596 191 600 186 607 c 2
EndSplineSet
EndChar

StartChar: idieresis
Encoding: 239 239 175
Width: 575
GlyphClass: 2
Flags: W
LayerCount: 2
Fore
SplineSet
224 150 m 2
 266 350 l 2
 269 363 270 374 270 384 c 0
 270 417 254 432 215 433 c 0
 199 433 180 431 150 426 c 0
 147 425 145 425 142 425 c 0
 131 425 123 431 121 443 c 2
 117 470 l 1
 117 477 l 2
 117 488 121 496 135 499 c 0
 173 508 207 510 227 510 c 0
 313 510 357 475 357 402 c 0
 357 386 355 369 351 350 c 2
 309 150 l 2
 306 137 305 126 305 116 c 0
 305 83 321 68 360 67 c 0
 376 67 395 69 425 74 c 0
 428 75 430 75 433 75 c 0
 444 75 452 69 454 57 c 2
 458 30 l 1
 458 23 l 2
 458 12 454 4 440 1 c 0
 402 -8 368 -10 348 -10 c 0
 262 -10 218 25 218 98 c 0
 218 114 220 131 224 150 c 2
296 685 m 2
 289 639 l 2
 286 622 277 614 260 614 c 2
 225 614 l 2
 211 614 203 621 203 633 c 0
 203 635 204 637 204 639 c 2
 211 685 l 2
 214 701 224 710 240 710 c 2
 275 710 l 2
 289 710 297 704 297 692 c 0
 297 690 296 687 296 685 c 2
503 685 m 2
 496 639 l 2
 493 622 483 614 467 614 c 2
 432 614 l 2
 418 614 410 620 410 632 c 0
 410 634 411 637 411 639 c 2
 418 685 l 2
 421 701 431 710 447 710 c 2
 482 710 l 2
 496 710 504 703 504 691 c 0
 504 689 503 687 503 685 c 2
EndSplineSet
EndChar

StartChar: eth
Encoding: 240 240 176
Width: 575
GlyphClass: 2
Flags: W
LayerCount: 2
Fore
SplineSet
591 623 m 2
 596 598 l 2
 596 596 597 593 597 591 c 0
 597 579 590 570 576 566 c 2
 521 547 l 1
 533 507 539 462 539 412 c 0
 539 198 456 -10 251 -10 c 0
 149 -10 69 52 69 166 c 0
 69 310 182 429 318 429 c 0
 360 429 404 419 452 382 c 1
 453 397 454 411 454 425 c 0
 454 463 450 494 443 520 c 1
 334 483 l 2
 330 481 326 481 323 481 c 0
 313 481 307 487 304 498 c 2
 300 522 l 2
 300 524 299 527 299 529 c 0
 299 541 306 551 319 555 c 2
 411 586 l 1
 388 614 358 627 327 631 c 0
 314 632 307 638 307 651 c 2
 307 656 l 1
 313 685 l 2
 316 701 325 709 340 709 c 2
 343 709 l 1
 408 702 458 668 492 614 c 1
 561 638 l 2
 565 640 569 640 572 640 c 0
 582 640 588 634 591 623 c 2
156 175 m 0
 156 99 204 68 260 68 c 0
 337 68 418 134 443 297 c 1
 390 349 338 351 310 351 c 0
 218 351 156 271 156 175 c 0
EndSplineSet
EndChar

StartChar: ntilde
Encoding: 241 241 177
Width: 575
GlyphClass: 2
Flags: W
LayerCount: 2
Fore
SplineSet
125 475 m 2
 128 492 138 500 154 500 c 2
 189 500 l 2
 203 500 211 494 211 482 c 0
 211 480 210 477 210 475 c 2
 204 437 l 1
 256 485 311 510 362 510 c 0
 437 510 498 481 498 361 c 0
 498 337 495 310 490 278 c 2
 450 25 l 2
 447 8 437 0 421 0 c 2
 386 0 l 2
 372 0 364 6 364 18 c 0
 364 20 365 23 365 25 c 2
 405 278 l 2
 409 305 411 327 411 346 c 0
 411 421 378 434 332 434 c 0
 291 434 243 405 190 349 c 1
 138 25 l 2
 135 9 125 0 109 0 c 2
 74 0 l 2
 60 0 52 6 52 18 c 0
 52 20 53 23 53 25 c 2
 125 475 l 2
173 640 m 2
 161 649 l 2
 155 653 152 659 152 665 c 0
 152 671 155 677 161 684 c 0
 202 728 245 753 284 753 c 0
 308 753 339 740 371 716 c 0
 392 701 411 693 428 693 c 0
 447 693 467 702 485 719 c 0
 492 726 499 730 506 730 c 0
 511 730 516 728 521 725 c 2
 532 716 l 2
 538 711 542 706 542 700 c 0
 542 694 538 687 532 681 c 0
 490 636 447 612 409 612 c 0
 386 612 355 625 322 648 c 0
 301 663 278 671 260 671 c 0
 244 671 227 662 209 646 c 0
 202 639 194 635 187 635 c 0
 182 635 177 637 173 640 c 2
EndSplineSet
EndChar

StartChar: ograve
Encoding: 242 242 178
Width: 575
GlyphClass: 2
Flags: W
LayerCount: 2
Fore
SplineSet
72 189 m 0
 72 347 171 510 332 510 c 0
 426 510 503 452 503 315 c 0
 503 155 410 -10 250 -10 c 0
 155 -10 72 49 72 189 c 0
158 200 m 0
 158 111 201 66 259 66 c 0
 359 66 417 200 417 300 c 0
 417 390 375 434 317 434 c 0
 216 434 158 300 158 200 c 0
449 650 m 2
 458 646 462 640 462 633 c 0
 462 628 460 623 457 617 c 2
 446 599 l 2
 438 589 430 584 421 584 c 0
 418 584 415 585 411 586 c 2
 200 661 l 2
 191 664 186 670 186 678 c 0
 186 683 188 687 191 693 c 2
 221 739 l 2
 226 749 234 754 243 754 c 0
 247 754 252 753 256 751 c 2
 449 650 l 2
EndSplineSet
EndChar

StartChar: oacute
Encoding: 243 243 179
Width: 575
GlyphClass: 2
Flags: W
LayerCount: 2
Fore
SplineSet
72 189 m 0
 72 347 171 510 332 510 c 0
 426 510 503 452 503 315 c 0
 503 155 410 -10 250 -10 c 0
 155 -10 72 49 72 189 c 0
158 200 m 0
 158 111 201 66 259 66 c 0
 359 66 417 200 417 300 c 0
 417 390 375 434 317 434 c 0
 216 434 158 300 158 200 c 0
241 599 m 2
 235 617 l 2
 235 619 234 622 234 624 c 0
 234 635 241 644 254 650 c 2
 480 751 l 2
 485 753 489 754 493 754 c 0
 501 754 508 749 511 739 c 2
 524 693 l 2
 525 690 526 687 526 684 c 0
 526 673 518 665 505 661 c 2
 273 586 l 2
 269 585 265 584 261 584 c 0
 251 584 245 589 241 599 c 2
EndSplineSet
EndChar

StartChar: ocircumflex
Encoding: 244 244 180
Width: 575
GlyphClass: 2
Flags: W
LayerCount: 2
Fore
SplineSet
72 189 m 0
 72 347 171 510 332 510 c 0
 426 510 503 452 503 315 c 0
 503 155 410 -10 250 -10 c 0
 155 -10 72 49 72 189 c 0
158 200 m 0
 158 111 201 66 259 66 c 0
 359 66 417 200 417 300 c 0
 417 390 375 434 317 434 c 0
 216 434 158 300 158 200 c 0
186 607 m 2
 174 631 l 2
 171 635 170 640 170 644 c 0
 170 653 176 660 186 666 c 2
 301 732 l 2
 324 746 345 755 368 755 c 0
 391 755 411 744 429 732 c 2
 522 666 l 2
 529 661 532 656 532 650 c 0
 532 644 529 638 523 631 c 2
 502 608 l 2
 496 600 489 596 482 596 c 0
 477 596 472 598 467 602 c 2
 376 674 l 2
 369 679 367 683 357 683 c 0
 347 683 343 679 334 674 c 2
 221 602 l 2
 215 598 210 596 205 596 c 0
 198 596 191 600 186 607 c 2
EndSplineSet
EndChar

StartChar: otilde
Encoding: 245 245 181
Width: 575
GlyphClass: 2
Flags: W
LayerCount: 2
Fore
SplineSet
72 189 m 0
 72 347 171 510 332 510 c 0
 426 510 503 452 503 315 c 0
 503 155 410 -10 250 -10 c 0
 155 -10 72 49 72 189 c 0
158 200 m 0
 158 111 201 66 259 66 c 0
 359 66 417 200 417 300 c 0
 417 390 375 434 317 434 c 0
 216 434 158 300 158 200 c 0
173 640 m 2
 161 649 l 2
 155 653 152 659 152 665 c 0
 152 671 155 677 161 684 c 0
 202 728 245 753 284 753 c 0
 308 753 339 740 371 716 c 0
 392 701 411 693 428 693 c 0
 447 693 467 702 485 719 c 0
 492 726 499 730 506 730 c 0
 511 730 516 728 521 725 c 2
 532 716 l 2
 538 711 542 706 542 700 c 0
 542 694 538 687 532 681 c 0
 490 636 447 612 409 612 c 0
 386 612 355 625 322 648 c 0
 301 663 278 671 260 671 c 0
 244 671 227 662 209 646 c 0
 202 639 194 635 187 635 c 0
 182 635 177 637 173 640 c 2
EndSplineSet
EndChar

StartChar: odieresis
Encoding: 246 246 182
Width: 575
GlyphClass: 2
Flags: W
LayerCount: 2
Fore
SplineSet
72 189 m 0
 72 347 171 510 332 510 c 0
 426 510 503 452 503 315 c 0
 503 155 410 -10 250 -10 c 0
 155 -10 72 49 72 189 c 0
158 200 m 0
 158 111 201 66 259 66 c 0
 359 66 417 200 417 300 c 0
 417 390 375 434 317 434 c 0
 216 434 158 300 158 200 c 0
296 685 m 2
 289 639 l 2
 286 622 277 614 260 614 c 2
 225 614 l 2
 211 614 203 621 203 633 c 0
 203 635 204 637 204 639 c 2
 211 685 l 2
 214 701 224 710 240 710 c 2
 275 710 l 2
 289 710 297 704 297 692 c 0
 297 690 296 687 296 685 c 2
503 685 m 2
 496 639 l 2
 493 622 483 614 467 614 c 2
 432 614 l 2
 418 614 410 620 410 632 c 0
 410 634 411 637 411 639 c 2
 418 685 l 2
 421 701 431 710 447 710 c 2
 482 710 l 2
 496 710 504 703 504 691 c 0
 504 689 503 687 503 685 c 2
EndSplineSet
EndChar

StartChar: divide
Encoding: 247 247 183
Width: 575
GlyphClass: 2
Flags: W
LayerCount: 2
Fore
SplineSet
376 545 m 2
 369 499 l 2
 366 482 357 474 340 474 c 2
 305 474 l 2
 291 474 283 481 283 493 c 0
 283 495 284 497 284 499 c 2
 291 545 l 2
 294 561 304 570 320 570 c 2
 355 570 l 2
 369 570 377 564 377 552 c 0
 377 550 376 547 376 545 c 2
309 122 m 2
 302 75 l 2
 299 58 290 50 273 50 c 2
 238 50 l 2
 224 50 216 56 216 68 c 0
 216 70 217 73 217 75 c 2
 224 122 l 2
 227 138 237 147 253 147 c 2
 288 147 l 2
 302 147 310 141 310 129 c 0
 310 127 309 124 309 122 c 2
92 297 m 2
 96 323 l 2
 99 340 109 349 125 349 c 2
 480 349 l 2
 494 349 502 343 502 331 c 0
 502 329 501 326 501 324 c 2
 497 297 l 2
 494 281 485 272 468 272 c 2
 113 272 l 2
 99 272 91 279 91 291 c 0
 91 293 92 295 92 297 c 2
EndSplineSet
EndChar

StartChar: oslash
Encoding: 248 248 184
Width: 575
GlyphClass: 2
Flags: W
AnchorPoint: "Anchor-1" 327 500 basechar 0
LayerCount: 2
Fore
SplineSet
327 434 m 1
 317 434 l 2
 216 434 158 300 158 200 c 0
 158 167 164 139 175 118 c 1
 327 434 l 1
399 386 m 1
 244 67 l 1
 249 66 254 66 259 66 c 0
 359 66 417 200 417 300 c 0
 417 336 411 365 399 386 c 1
388 559 m 2
 394 570 401 575 410 575 c 0
 413 575 417 575 421 573 c 2
 453 560 l 2
 464 556 471 549 471 540 c 0
 471 536 469 531 467 527 c 2
 441 474 l 1
 479 443 503 391 503 315 c 0
 503 155 410 -10 250 -10 c 0
 236 -10 222 -9 209 -6 c 1
 177 -72 l 2
 172 -83 165 -88 156 -88 c 0
 153 -88 149 -88 145 -86 c 2
 112 -73 l 2
 101 -69 95 -61 95 -52 c 0
 95 -48 96 -44 98 -40 c 2
 132 31 l 1
 95 63 72 114 72 189 c 0
 72 347 171 510 332 510 c 0
 343 510 353 510 363 508 c 1
 388 559 l 2
EndSplineSet
EndChar

StartChar: ugrave
Encoding: 249 249 185
Width: 575
GlyphClass: 2
Flags: W
LayerCount: 2
Fore
SplineSet
364 25 m 1
 370 63 l 1
 318 15 263 -10 212 -10 c 0
 137 -10 76 19 76 139 c 0
 76 163 79 190 84 222 c 2
 124 475 l 2
 126 491 136 500 153 500 c 2
 188 500 l 2
 202 500 209 493 209 480 c 2
 209 475 l 1
 169 222 l 2
 165 195 163 173 163 154 c 0
 163 79 196 66 242 66 c 0
 283 66 331 95 384 151 c 1
 436 475 l 2
 438 491 449 500 465 500 c 2
 500 500 l 2
 514 500 521 493 521 480 c 2
 521 475 l 1
 450 30 l 2
 448 14 438 0 422 0 c 2
 385 0 l 2
 371 0 364 7 364 20 c 2
 364 25 l 1
449 650 m 2
 458 646 462 640 462 633 c 0
 462 628 460 623 457 617 c 2
 446 599 l 2
 438 589 430 584 421 584 c 0
 418 584 415 585 411 586 c 2
 200 661 l 2
 191 664 186 670 186 678 c 0
 186 683 188 687 191 693 c 2
 221 739 l 2
 226 749 234 754 243 754 c 0
 247 754 252 753 256 751 c 2
 449 650 l 2
EndSplineSet
EndChar

StartChar: uacute
Encoding: 250 250 186
Width: 575
GlyphClass: 2
Flags: W
LayerCount: 2
Fore
SplineSet
364 25 m 1
 370 63 l 1
 318 15 263 -10 212 -10 c 0
 137 -10 76 19 76 139 c 0
 76 163 79 190 84 222 c 2
 124 475 l 2
 126 491 136 500 153 500 c 2
 188 500 l 2
 202 500 209 493 209 480 c 2
 209 475 l 1
 169 222 l 2
 165 195 163 173 163 154 c 0
 163 79 196 66 242 66 c 0
 283 66 331 95 384 151 c 1
 436 475 l 2
 438 491 449 500 465 500 c 2
 500 500 l 2
 514 500 521 493 521 480 c 2
 521 475 l 1
 450 30 l 2
 448 14 438 0 422 0 c 2
 385 0 l 2
 371 0 364 7 364 20 c 2
 364 25 l 1
241 599 m 2
 235 617 l 2
 235 619 234 622 234 624 c 0
 234 635 241 644 254 650 c 2
 480 751 l 2
 485 753 489 754 493 754 c 0
 501 754 508 749 511 739 c 2
 524 693 l 2
 525 690 526 687 526 684 c 0
 526 673 518 665 505 661 c 2
 273 586 l 2
 269 585 265 584 261 584 c 0
 251 584 245 589 241 599 c 2
EndSplineSet
EndChar

StartChar: ucircumflex
Encoding: 251 251 187
Width: 575
GlyphClass: 2
Flags: W
LayerCount: 2
Fore
SplineSet
364 25 m 1
 370 63 l 1
 318 15 263 -10 212 -10 c 0
 137 -10 76 19 76 139 c 0
 76 163 79 190 84 222 c 2
 124 475 l 2
 126 491 136 500 153 500 c 2
 188 500 l 2
 202 500 209 493 209 480 c 2
 209 475 l 1
 169 222 l 2
 165 195 163 173 163 154 c 0
 163 79 196 66 242 66 c 0
 283 66 331 95 384 151 c 1
 436 475 l 2
 438 491 449 500 465 500 c 2
 500 500 l 2
 514 500 521 493 521 480 c 2
 521 475 l 1
 450 30 l 2
 448 14 438 0 422 0 c 2
 385 0 l 2
 371 0 364 7 364 20 c 2
 364 25 l 1
186 607 m 2
 174 631 l 2
 171 635 170 640 170 644 c 0
 170 653 176 660 186 666 c 2
 301 732 l 2
 324 746 345 755 368 755 c 0
 391 755 411 744 429 732 c 2
 522 666 l 2
 529 661 532 656 532 650 c 0
 532 644 529 638 523 631 c 2
 502 608 l 2
 496 600 489 596 482 596 c 0
 477 596 472 598 467 602 c 2
 376 674 l 2
 369 679 367 683 357 683 c 0
 347 683 343 679 334 674 c 2
 221 602 l 2
 215 598 210 596 205 596 c 0
 198 596 191 600 186 607 c 2
EndSplineSet
EndChar

StartChar: udieresis
Encoding: 252 252 188
Width: 575
GlyphClass: 2
Flags: W
LayerCount: 2
Fore
SplineSet
364 25 m 1
 370 63 l 1
 318 15 263 -10 212 -10 c 0
 137 -10 76 19 76 139 c 0
 76 163 79 190 84 222 c 2
 124 475 l 2
 126 491 136 500 153 500 c 2
 188 500 l 2
 202 500 209 493 209 480 c 2
 209 475 l 1
 169 222 l 2
 165 195 163 173 163 154 c 0
 163 79 196 66 242 66 c 0
 283 66 331 95 384 151 c 1
 436 475 l 2
 438 491 449 500 465 500 c 2
 500 500 l 2
 514 500 521 493 521 480 c 2
 521 475 l 1
 450 30 l 2
 448 14 438 0 422 0 c 2
 385 0 l 2
 371 0 364 7 364 20 c 2
 364 25 l 1
296 685 m 2
 289 639 l 2
 286 622 277 614 260 614 c 2
 225 614 l 2
 211 614 203 621 203 633 c 0
 203 635 204 637 204 639 c 2
 211 685 l 2
 214 701 224 710 240 710 c 2
 275 710 l 2
 289 710 297 704 297 692 c 0
 297 690 296 687 296 685 c 2
503 685 m 2
 496 639 l 2
 493 622 483 614 467 614 c 2
 432 614 l 2
 418 614 410 620 410 632 c 0
 410 634 411 637 411 639 c 2
 418 685 l 2
 421 701 431 710 447 710 c 2
 482 710 l 2
 496 710 504 703 504 691 c 0
 504 689 503 687 503 685 c 2
EndSplineSet
EndChar

StartChar: yacute
Encoding: 253 253 189
Width: 575
GlyphClass: 2
Flags: W
LayerCount: 2
Fore
SplineSet
491 500 m 2
 527 500 l 2
 540 500 545 494 545 484 c 0
 545 480 544 476 543 472 c 0
 413 19 363 -245 103 -245 c 0
 63 -245 16 -245 -32 -225 c 0
 -41 -221 -46 -215 -46 -207 c 0
 -46 -203 -45 -198 -42 -193 c 2
 -30 -169 l 2
 -25 -158 -17 -152 -7 -152 c 0
 -4 -152 0 -152 4 -154 c 0
 31 -166 58 -167 82 -167 c 2
 101 -167 l 2
 201 -167 259 -115 308 -10 c 1
 257 -10 l 2
 182 -10 144 22 138 80 c 2
 102 472 l 1
 102 474 l 2
 102 490 112 500 129 500 c 2
 165 500 l 2
 180 500 187 493 188 479 c 2
 224 93 l 2
 225 74 237 63 268 63 c 2
 337 63 l 1
 374 166 409 304 459 479 c 0
 463 493 476 500 491 500 c 2
241 599 m 2
 235 617 l 2
 235 619 234 622 234 624 c 0
 234 635 241 644 254 650 c 2
 480 751 l 2
 485 753 489 754 493 754 c 0
 501 754 508 749 511 739 c 2
 524 693 l 2
 525 690 526 687 526 684 c 0
 526 673 518 665 505 661 c 2
 273 586 l 2
 269 585 265 584 261 584 c 0
 251 584 245 589 241 599 c 2
EndSplineSet
EndChar

StartChar: thorn
Encoding: 254 254 190
Width: 575
GlyphClass: 2
Flags: W
LayerCount: 2
Fore
SplineSet
237 676 m 2
 211 507 l 1
 247 511 278 512 300 512 c 0
 437 512 498 461 498 319 c 0
 498 122 416 -8 218 -8 c 0
 198 -8 167 -7 130 -4 c 1
 103 -174 l 2
 100 -190 91 -200 75 -200 c 2
 40 -200 l 2
 26 -200 17 -195 17 -182 c 0
 17 -180 18 -178 18 -176 c 2
 152 674 l 2
 155 689 164 700 180 700 c 2
 215 700 l 2
 230 700 238 694 238 682 c 0
 238 680 237 678 237 676 c 2
199 432 m 1
 142 72 l 1
 178 69 210 68 230 68 c 0
 366 68 412 168 412 305 c 0
 412 403 378 435 288 435 c 0
 270 435 238 435 199 432 c 1
EndSplineSet
EndChar

StartChar: ydieresis
Encoding: 255 255 191
Width: 575
GlyphClass: 2
Flags: W
LayerCount: 2
Fore
SplineSet
491 500 m 2
 527 500 l 2
 540 500 545 494 545 484 c 0
 545 480 544 476 543 472 c 0
 413 19 363 -245 103 -245 c 0
 63 -245 16 -245 -32 -225 c 0
 -41 -221 -46 -215 -46 -207 c 0
 -46 -203 -45 -198 -42 -193 c 2
 -30 -169 l 2
 -25 -158 -17 -152 -7 -152 c 0
 -4 -152 0 -152 4 -154 c 0
 31 -166 58 -167 82 -167 c 2
 101 -167 l 2
 201 -167 259 -115 308 -10 c 1
 257 -10 l 2
 182 -10 144 22 138 80 c 2
 102 472 l 1
 102 474 l 2
 102 490 112 500 129 500 c 2
 165 500 l 2
 180 500 187 493 188 479 c 2
 224 93 l 2
 225 74 237 63 268 63 c 2
 337 63 l 1
 374 166 409 304 459 479 c 0
 463 493 476 500 491 500 c 2
296 685 m 2
 289 639 l 2
 286 622 277 614 260 614 c 2
 225 614 l 2
 211 614 203 621 203 633 c 0
 203 635 204 637 204 639 c 2
 211 685 l 2
 214 701 224 710 240 710 c 2
 275 710 l 2
 289 710 297 704 297 692 c 0
 297 690 296 687 296 685 c 2
503 685 m 2
 496 639 l 2
 493 622 483 614 467 614 c 2
 432 614 l 2
 418 614 410 620 410 632 c 0
 410 634 411 637 411 639 c 2
 418 685 l 2
 421 701 431 710 447 710 c 2
 482 710 l 2
 496 710 504 703 504 691 c 0
 504 689 503 687 503 685 c 2
EndSplineSet
EndChar

StartChar: Amacron
Encoding: 256 256 192
Width: 575
GlyphClass: 2
Flags: W
LayerCount: 2
Fore
SplineSet
469 621 m 2
 523 28 l 1
 523 24 l 2
 523 9 513 0 497 0 c 2
 461 0 l 2
 446 0 438 7 437 22 c 2
 419 220 l 1
 147 220 l 1
 66 22 l 2
 60 7 49 0 34 0 c 2
 -1 0 l 2
 -14 0 -21 6 -21 16 c 0
 -21 20 -20 23 -18 28 c 2
 224 621 l 2
 248 679 296 710 355 710 c 0
 414 710 464 679 469 621 c 2
306 607 m 2
 178 296 l 1
 412 296 l 1
 384 607 l 2
 382 625 366 634 349 634 c 0
 332 634 312 625 306 607 c 2
280 859 m 1
 284 885 l 2
 287 901 297 910 313 910 c 2
 551 910 l 2
 565 910 573 903 573 891 c 0
 573 889 572 887 572 885 c 2
 568 858 l 2
 566 842 555 834 539 834 c 2
 301 834 l 2
 287 834 280 841 280 854 c 2
 280 859 l 1
EndSplineSet
EndChar

StartChar: amacron
Encoding: 257 257 193
Width: 575
GlyphClass: 2
Flags: W
LayerCount: 2
Fore
SplineSet
522 471 m 2
 454 30 l 2
 452 14 443 0 427 0 c 2
 390 0 l 2
 376 0 368 7 368 19 c 0
 368 21 369 23 369 25 c 2
 375 63 l 1
 322 15 263 -10 212 -10 c 0
 136 -10 77 36 77 189 c 0
 77 370 157 510 357 510 c 0
 386 510 440 508 501 500 c 0
 515 497 523 489 523 477 c 0
 523 475 522 473 522 471 c 2
388 151 m 1
 433 430 l 1
 395 433 363 434 345 434 c 0
 209 434 163 326 163 204 c 0
 163 94 195 66 242 66 c 0
 283 66 336 95 388 151 c 1
247 659 m 1
 251 685 l 2
 254 701 264 710 280 710 c 2
 518 710 l 2
 532 710 540 703 540 691 c 0
 540 689 539 687 539 685 c 2
 535 658 l 2
 533 642 522 634 506 634 c 2
 268 634 l 2
 254 634 247 641 247 654 c 2
 247 659 l 1
EndSplineSet
EndChar

StartChar: Abreve
Encoding: 258 258 194
Width: 575
GlyphClass: 2
Flags: W
LayerCount: 2
Fore
SplineSet
469 621 m 2
 523 28 l 1
 523 24 l 2
 523 9 513 0 497 0 c 2
 461 0 l 2
 446 0 438 7 437 22 c 2
 419 220 l 1
 147 220 l 1
 66 22 l 2
 60 7 49 0 34 0 c 2
 -1 0 l 2
 -14 0 -21 6 -21 16 c 0
 -21 20 -20 23 -18 28 c 2
 224 621 l 2
 248 679 296 710 355 710 c 0
 414 710 464 679 469 621 c 2
306 607 m 2
 178 296 l 1
 412 296 l 1
 384 607 l 2
 382 625 366 634 349 634 c 0
 332 634 312 625 306 607 c 2
536 951 m 2
 563 946 l 2
 574 944 580 938 580 929 c 0
 580 925 579 922 577 917 c 0
 543 838 472 793 376 793 c 0
 280 793 222 838 212 917 c 1
 212 919 l 2
 212 934 221 943 237 946 c 2
 266 951 l 2
 268 951 270 952 272 952 c 0
 283 952 289 945 291 931 c 0
 299 881 331 853 385 853 c 0
 438 853 480 881 503 931 c 0
 509 945 517 952 529 952 c 0
 531 952 534 951 536 951 c 2
EndSplineSet
EndChar

StartChar: abreve
Encoding: 259 259 195
Width: 575
GlyphClass: 2
Flags: W
LayerCount: 2
Fore
SplineSet
522 471 m 2
 454 30 l 2
 452 14 443 0 427 0 c 2
 390 0 l 2
 376 0 368 7 368 19 c 0
 368 21 369 23 369 25 c 2
 375 63 l 1
 322 15 263 -10 212 -10 c 0
 136 -10 77 36 77 189 c 0
 77 370 157 510 357 510 c 0
 386 510 440 508 501 500 c 0
 515 497 523 489 523 477 c 0
 523 475 522 473 522 471 c 2
388 151 m 1
 433 430 l 1
 395 433 363 434 345 434 c 0
 209 434 163 326 163 204 c 0
 163 94 195 66 242 66 c 0
 283 66 336 95 388 151 c 1
503 751 m 2
 530 746 l 2
 541 744 547 738 547 729 c 0
 547 725 546 722 544 717 c 0
 510 638 439 593 343 593 c 0
 247 593 189 638 179 717 c 1
 179 719 l 2
 179 734 188 743 204 746 c 2
 233 751 l 2
 235 751 237 752 239 752 c 0
 250 752 256 745 258 731 c 0
 266 681 298 653 352 653 c 0
 405 653 447 681 470 731 c 0
 476 745 484 752 496 752 c 0
 498 752 501 751 503 751 c 2
EndSplineSet
EndChar

StartChar: Aogonek
Encoding: 260 260 196
Width: 575
GlyphClass: 2
Flags: W
LayerCount: 2
Fore
SplineSet
469 621 m 2
 523 28 l 1
 523 24 l 2
 523 15 520 9 514 5 c 1
 514 1 l 2
 514 -3 513 -8 510 -14 c 0
 503 -34 495 -57 492 -73 c 0
 490 -88 489 -101 489 -112 c 0
 489 -140 495 -157 505 -172 c 0
 509 -178 510 -183 510 -188 c 0
 510 -195 507 -201 500 -208 c 2
 475 -231 l 2
 469 -237 462 -241 456 -241 c 0
 450 -241 445 -238 440 -232 c 0
 416 -203 400 -166 400 -126 c 0
 400 -119 401 -111 402 -103 c 0
 407 -75 414 -38 464 0 c 1
 461 0 l 2
 446 0 438 7 437 22 c 2
 419 220 l 1
 147 220 l 1
 66 22 l 2
 60 7 49 0 34 0 c 2
 -1 0 l 2
 -14 0 -21 6 -21 16 c 0
 -21 20 -20 23 -18 28 c 2
 224 621 l 2
 248 679 296 710 355 710 c 0
 414 710 464 679 469 621 c 2
306 607 m 2
 178 296 l 1
 412 296 l 1
 384 607 l 2
 382 625 366 634 349 634 c 0
 332 634 312 625 306 607 c 2
EndSplineSet
EndChar

StartChar: aogonek
Encoding: 261 261 197
Width: 575
GlyphClass: 2
Flags: W
LayerCount: 2
Fore
SplineSet
522 471 m 2
 454 30 l 2
 453 21 450 13 444 7 c 1
 445 6 445 5 445 3 c 0
 445 -1 443 -7 440 -14 c 0
 433 -34 425 -57 422 -73 c 0
 420 -88 419 -101 419 -112 c 0
 419 -140 425 -157 435 -172 c 0
 439 -178 440 -183 440 -188 c 0
 440 -195 437 -201 430 -208 c 2
 405 -231 l 2
 399 -237 392 -241 386 -241 c 0
 380 -241 375 -238 370 -232 c 0
 346 -203 330 -166 330 -126 c 0
 330 -119 331 -111 332 -103 c 0
 337 -75 344 -38 394 0 c 1
 390 0 l 2
 376 0 368 7 368 19 c 0
 368 21 369 23 369 25 c 2
 375 63 l 1
 322 15 263 -10 212 -10 c 0
 136 -10 77 36 77 189 c 0
 77 370 157 510 357 510 c 0
 386 510 440 508 501 500 c 0
 515 497 523 489 523 477 c 0
 523 475 522 473 522 471 c 2
388 151 m 1
 433 430 l 1
 395 433 363 434 345 434 c 0
 209 434 163 326 163 204 c 0
 163 94 195 66 242 66 c 0
 283 66 336 95 388 151 c 1
EndSplineSet
EndChar

StartChar: Cacute
Encoding: 262 262 198
Width: 575
GlyphClass: 2
Flags: W
LayerCount: 2
Fore
SplineSet
422 81 m 0
 426 83 430 83 434 83 c 0
 443 83 449 78 452 67 c 2
 458 43 l 2
 459 40 459 37 459 34 c 0
 459 23 453 15 440 10 c 0
 390 -10 342 -20 297 -20 c 0
 194 -20 85 33 85 207 c 0
 85 246 90 280 107 390 c 0
 147 640 295 710 413 710 c 0
 458 710 502 700 546 680 c 0
 555 676 559 671 559 663 c 0
 559 658 557 653 554 647 c 2
 540 623 l 2
 534 612 526 607 517 607 c 0
 513 607 510 607 506 609 c 0
 464 625 430 632 399 632 c 0
 320 632 224 586 193 390 c 0
 176 286 172 253 172 217 c 0
 172 91 241 58 308 58 c 0
 339 58 376 65 422 81 c 0
274 799 m 2
 268 817 l 2
 268 819 267 822 267 824 c 0
 267 835 274 844 287 850 c 2
 513 951 l 2
 518 953 522 954 526 954 c 0
 534 954 541 949 544 939 c 2
 557 893 l 2
 558 890 559 887 559 884 c 0
 559 873 551 865 538 861 c 2
 306 786 l 2
 302 785 298 784 294 784 c 0
 284 784 278 789 274 799 c 2
EndSplineSet
EndChar

StartChar: cacute
Encoding: 263 263 199
Width: 575
GlyphClass: 2
Flags: W
LayerCount: 2
Fore
SplineSet
522 447 m 2
 508 423 l 2
 502 412 494 407 485 407 c 0
 481 407 478 407 474 409 c 0
 433 425 398 432 357 432 c 0
 226 432 166 325 166 211 c 0
 166 102 222 68 299 68 c 0
 340 68 376 75 424 91 c 0
 428 93 432 93 436 93 c 0
 445 93 451 88 454 77 c 2
 460 53 l 2
 461 50 461 48 461 45 c 0
 461 34 455 25 442 20 c 0
 391 0 338 -10 287 -10 c 0
 176 -10 80 45 80 202 c 0
 80 370 187 510 369 510 c 0
 420 510 471 500 514 480 c 0
 523 476 527 471 527 463 c 0
 527 458 525 453 522 447 c 2
241 599 m 2
 235 617 l 2
 235 619 234 622 234 624 c 0
 234 635 241 644 254 650 c 2
 480 751 l 2
 485 753 489 754 493 754 c 0
 501 754 508 749 511 739 c 2
 524 693 l 2
 525 690 526 687 526 684 c 0
 526 673 518 665 505 661 c 2
 273 586 l 2
 269 585 265 584 261 584 c 0
 251 584 245 589 241 599 c 2
EndSplineSet
EndChar

StartChar: Ccircumflex
Encoding: 264 264 200
Width: 575
GlyphClass: 2
Flags: W
LayerCount: 2
Fore
SplineSet
422 81 m 0
 426 83 430 83 434 83 c 0
 443 83 449 78 452 67 c 2
 458 43 l 2
 459 40 459 37 459 34 c 0
 459 23 453 15 440 10 c 0
 390 -10 342 -20 297 -20 c 0
 194 -20 85 33 85 207 c 0
 85 246 90 280 107 390 c 0
 147 640 295 710 413 710 c 0
 458 710 502 700 546 680 c 0
 555 676 559 671 559 663 c 0
 559 658 557 653 554 647 c 2
 540 623 l 2
 534 612 526 607 517 607 c 0
 513 607 510 607 506 609 c 0
 464 625 430 632 399 632 c 0
 320 632 224 586 193 390 c 0
 176 286 172 253 172 217 c 0
 172 91 241 58 308 58 c 0
 339 58 376 65 422 81 c 0
219 807 m 2
 207 831 l 2
 204 835 203 840 203 844 c 0
 203 853 209 860 219 866 c 2
 334 932 l 2
 357 946 378 955 401 955 c 0
 424 955 444 944 462 932 c 2
 555 866 l 2
 562 861 565 856 565 850 c 0
 565 844 562 838 556 831 c 2
 535 808 l 2
 529 800 522 796 515 796 c 0
 510 796 505 798 500 802 c 2
 409 874 l 2
 402 879 400 883 390 883 c 0
 380 883 376 879 367 874 c 2
 254 802 l 2
 248 798 243 796 238 796 c 0
 231 796 224 800 219 807 c 2
EndSplineSet
EndChar

StartChar: ccircumflex
Encoding: 265 265 201
Width: 575
GlyphClass: 2
Flags: W
LayerCount: 2
Fore
SplineSet
522 447 m 2
 508 423 l 2
 502 412 494 407 485 407 c 0
 481 407 478 407 474 409 c 0
 433 425 398 432 357 432 c 0
 226 432 166 325 166 211 c 0
 166 102 222 68 299 68 c 0
 340 68 376 75 424 91 c 0
 428 93 432 93 436 93 c 0
 445 93 451 88 454 77 c 2
 460 53 l 2
 461 50 461 48 461 45 c 0
 461 34 455 25 442 20 c 0
 391 0 338 -10 287 -10 c 0
 176 -10 80 45 80 202 c 0
 80 370 187 510 369 510 c 0
 420 510 471 500 514 480 c 0
 523 476 527 471 527 463 c 0
 527 458 525 453 522 447 c 2
186 607 m 2
 174 631 l 2
 171 635 170 640 170 644 c 0
 170 653 176 660 186 666 c 2
 301 732 l 2
 324 746 345 755 368 755 c 0
 391 755 411 744 429 732 c 2
 522 666 l 2
 529 661 532 656 532 650 c 0
 532 644 529 638 523 631 c 2
 502 608 l 2
 496 600 489 596 482 596 c 0
 477 596 472 598 467 602 c 2
 376 674 l 2
 369 679 367 683 357 683 c 0
 347 683 343 679 334 674 c 2
 221 602 l 2
 215 598 210 596 205 596 c 0
 198 596 191 600 186 607 c 2
EndSplineSet
EndChar

StartChar: Cdotaccent
Encoding: 266 266 202
Width: 575
GlyphClass: 2
Flags: W
LayerCount: 2
Fore
SplineSet
422 81 m 0
 426 83 430 83 434 83 c 0
 443 83 449 78 452 67 c 2
 458 43 l 2
 459 40 459 37 459 34 c 0
 459 23 453 15 440 10 c 0
 390 -10 342 -20 297 -20 c 0
 194 -20 85 33 85 207 c 0
 85 246 90 280 107 390 c 0
 147 640 295 710 413 710 c 0
 458 710 502 700 546 680 c 0
 555 676 559 671 559 663 c 0
 559 658 557 653 554 647 c 2
 540 623 l 2
 534 612 526 607 517 607 c 0
 513 607 510 607 506 609 c 0
 464 625 430 632 399 632 c 0
 320 632 224 586 193 390 c 0
 176 286 172 253 172 217 c 0
 172 91 241 58 308 58 c 0
 339 58 376 65 422 81 c 0
430 885 m 2
 423 839 l 2
 420 822 411 814 394 814 c 2
 359 814 l 2
 345 814 337 821 337 833 c 0
 337 835 338 837 338 839 c 2
 345 885 l 2
 348 901 358 910 374 910 c 2
 409 910 l 2
 423 910 431 904 431 892 c 0
 431 890 430 887 430 885 c 2
EndSplineSet
EndChar

StartChar: cdotaccent
Encoding: 267 267 203
Width: 575
GlyphClass: 2
Flags: W
LayerCount: 2
Fore
SplineSet
522 447 m 2
 508 423 l 2
 502 412 494 407 485 407 c 0
 481 407 478 407 474 409 c 0
 433 425 398 432 357 432 c 0
 226 432 166 325 166 211 c 0
 166 102 222 68 299 68 c 0
 340 68 376 75 424 91 c 0
 428 93 432 93 436 93 c 0
 445 93 451 88 454 77 c 2
 460 53 l 2
 461 50 461 48 461 45 c 0
 461 34 455 25 442 20 c 0
 391 0 338 -10 287 -10 c 0
 176 -10 80 45 80 202 c 0
 80 370 187 510 369 510 c 0
 420 510 471 500 514 480 c 0
 523 476 527 471 527 463 c 0
 527 458 525 453 522 447 c 2
397 685 m 2
 390 639 l 2
 387 622 378 614 361 614 c 2
 326 614 l 2
 312 614 304 621 304 633 c 0
 304 635 305 637 305 639 c 2
 312 685 l 2
 315 701 325 710 341 710 c 2
 376 710 l 2
 390 710 398 704 398 692 c 0
 398 690 397 687 397 685 c 2
EndSplineSet
EndChar

StartChar: Ccaron
Encoding: 268 268 204
Width: 575
GlyphClass: 2
Flags: W
LayerCount: 2
Fore
SplineSet
422 81 m 0
 426 83 430 83 434 83 c 0
 443 83 449 78 452 67 c 2
 458 43 l 2
 459 40 459 37 459 34 c 0
 459 23 453 15 440 10 c 0
 390 -10 342 -20 297 -20 c 0
 194 -20 85 33 85 207 c 0
 85 246 90 280 107 390 c 0
 147 640 295 710 413 710 c 0
 458 710 502 700 546 680 c 0
 555 676 559 671 559 663 c 0
 559 658 557 653 554 647 c 2
 540 623 l 2
 534 612 526 607 517 607 c 0
 513 607 510 607 506 609 c 0
 464 625 430 632 399 632 c 0
 320 632 224 586 193 390 c 0
 176 286 172 253 172 217 c 0
 172 91 241 58 308 58 c 0
 339 58 376 65 422 81 c 0
221 920 m 2
 241 943 l 2
 248 951 256 955 263 955 c 0
 268 955 273 953 277 949 c 2
 368 878 l 2
 375 872 378 869 388 869 c 0
 398 869 401 873 410 878 c 2
 523 949 l 2
 529 953 534 955 539 955 c 0
 546 955 552 951 556 943 c 2
 570 920 l 2
 573 916 574 911 574 907 c 0
 574 899 569 891 558 885 c 2
 444 820 l 2
 422 807 399 797 376 797 c 0
 353 797 335 806 316 819 c 2
 222 885 l 2
 216 890 212 896 212 902 c 0
 212 908 215 914 221 920 c 2
EndSplineSet
EndChar

StartChar: ccaron
Encoding: 269 269 205
Width: 575
GlyphClass: 2
Flags: W
LayerCount: 2
Fore
SplineSet
522 447 m 2
 508 423 l 2
 502 412 494 407 485 407 c 0
 481 407 478 407 474 409 c 0
 433 425 398 432 357 432 c 0
 226 432 166 325 166 211 c 0
 166 102 222 68 299 68 c 0
 340 68 376 75 424 91 c 0
 428 93 432 93 436 93 c 0
 445 93 451 88 454 77 c 2
 460 53 l 2
 461 50 461 48 461 45 c 0
 461 34 455 25 442 20 c 0
 391 0 338 -10 287 -10 c 0
 176 -10 80 45 80 202 c 0
 80 370 187 510 369 510 c 0
 420 510 471 500 514 480 c 0
 523 476 527 471 527 463 c 0
 527 458 525 453 522 447 c 2
188 720 m 2
 208 743 l 2
 215 751 223 755 230 755 c 0
 235 755 240 753 244 749 c 2
 335 678 l 2
 342 672 345 669 355 669 c 0
 365 669 368 673 377 678 c 2
 490 749 l 2
 496 753 501 755 506 755 c 0
 513 755 519 751 523 743 c 2
 537 720 l 2
 540 716 541 711 541 707 c 0
 541 699 536 691 525 685 c 2
 411 620 l 2
 389 607 366 597 343 597 c 0
 320 597 302 606 283 619 c 2
 189 685 l 2
 183 690 179 696 179 702 c 0
 179 708 182 714 188 720 c 2
EndSplineSet
EndChar

StartChar: Dcaron
Encoding: 270 270 206
Width: 575
GlyphClass: 2
Flags: W
LayerCount: 2
Fore
SplineSet
133 700 m 2
 185 700 l 2
 402 700 546 648 546 473 c 0
 546 433 542 405 528 320 c 0
 494 102 394 0 143 0 c 2
 89 0 l 2
 74 0 65 8 65 21 c 0
 65 23 66 25 66 27 c 2
 161 624 l 1
 125 624 l 2
 110 624 101 632 101 645 c 0
 101 647 102 649 102 651 c 2
 106 677 l 2
 109 694 117 700 133 700 c 2
160 76 m 1
 345 80 415 145 444 332 c 0
 459 420 461 441 461 473 c 0
 461 570 405 614 247 622 c 1
 160 76 l 1
221 920 m 2
 241 943 l 2
 248 951 256 955 263 955 c 0
 268 955 273 953 277 949 c 2
 368 878 l 2
 375 872 378 869 388 869 c 0
 398 869 401 873 410 878 c 2
 523 949 l 2
 529 953 534 955 539 955 c 0
 546 955 552 951 556 943 c 2
 570 920 l 2
 573 916 574 911 574 907 c 0
 574 899 569 891 558 885 c 2
 444 820 l 2
 422 807 399 797 376 797 c 0
 353 797 335 806 316 819 c 2
 222 885 l 2
 216 890 212 896 212 902 c 0
 212 908 215 914 221 920 c 2
EndSplineSet
EndChar

StartChar: dcaron
Encoding: 271 271 207
Width: 575
GlyphClass: 2
Flags: W
LayerCount: 2
Fore
SplineSet
508 750 m 2
 543 750 l 2
 557 750 565 743 565 731 c 0
 565 729 564 727 564 725 c 2
 454 30 l 2
 452 14 443 0 427 0 c 2
 390 0 l 2
 376 0 368 7 368 19 c 0
 368 21 369 23 369 25 c 2
 375 63 l 1
 322 15 263 -10 212 -10 c 0
 136 -10 77 46 77 190 c 0
 77 380 157 510 357 510 c 0
 377 510 409 509 445 506 c 1
 479 725 l 2
 482 741 492 750 508 750 c 2
242 66 m 0
 283 66 336 95 388 151 c 1
 433 430 l 1
 395 433 363 434 345 434 c 0
 209 434 163 336 163 205 c 0
 163 104 195 66 242 66 c 0
628 750 m 2
 708 750 l 2
 722 750 729 743 729 730 c 2
 729 725 l 1
 714 633 l 2
 697 524 653 428 557 428 c 0
 543 428 535 434 535 447 c 2
 535 452 l 1
 540 479 l 2
 542 495 552 504 568 504 c 0
 607 504 624 560 634 635 c 1
 609 635 l 2
 595 635 588 642 588 655 c 2
 588 660 l 1
 599 725 l 2
 601 742 611 750 628 750 c 2
EndSplineSet
EndChar

StartChar: Dcroat
Encoding: 272 272 208
Width: 575
GlyphClass: 2
Flags: W
LayerCount: 2
Fore
SplineSet
123 700 m 2
 175 700 l 2
 392 700 536 648 536 473 c 0
 536 433 532 405 518 320 c 0
 484 102 384 0 133 0 c 2
 79 0 l 2
 64 0 55 8 55 21 c 0
 55 23 56 25 56 27 c 2
 101 312 l 1
 68 312 l 2
 54 312 46 319 46 331 c 0
 46 333 47 335 47 337 c 2
 51 363 l 2
 54 380 64 389 80 389 c 2
 114 389 l 1
 151 624 l 1
 115 624 l 2
 100 624 91 632 91 645 c 0
 91 647 92 649 92 651 c 2
 96 677 l 2
 99 694 107 700 123 700 c 2
150 76 m 1
 335 80 405 145 434 332 c 0
 449 420 451 441 451 473 c 0
 451 570 395 614 237 622 c 1
 200 389 l 1
 303 389 l 2
 317 389 325 382 325 370 c 0
 325 368 324 366 324 364 c 2
 320 337 l 2
 317 321 307 312 291 312 c 2
 188 312 l 1
 150 76 l 1
EndSplineSet
EndChar

StartChar: dcroat
Encoding: 273 273 209
Width: 575
GlyphClass: 2
Flags: W
LayerCount: 2
Fore
SplineSet
508 750 m 2
 543 750 l 2
 557 750 565 743 565 731 c 0
 565 729 564 727 564 725 c 2
 563 720 l 1
 589 720 l 2
 603 720 611 713 611 701 c 0
 611 699 610 697 610 695 c 2
 606 668 l 2
 604 652 593 644 577 644 c 2
 551 644 l 1
 454 30 l 2
 452 14 443 0 427 0 c 2
 390 0 l 2
 376 0 368 7 368 19 c 0
 368 21 369 23 369 25 c 2
 375 63 l 1
 322 15 263 -10 212 -10 c 0
 136 -10 77 46 77 190 c 0
 77 380 157 510 357 510 c 0
 377 510 409 509 445 506 c 1
 466 644 l 1
 339 644 l 2
 325 644 318 651 318 664 c 2
 318 669 l 1
 322 695 l 2
 325 711 335 720 351 720 c 2
 478 720 l 1
 479 725 l 2
 482 741 492 750 508 750 c 2
242 66 m 0
 283 66 336 95 388 151 c 1
 433 430 l 1
 395 433 363 434 345 434 c 0
 209 434 163 336 163 205 c 0
 163 104 195 66 242 66 c 0
EndSplineSet
EndChar

StartChar: Emacron
Encoding: 274 274 210
Width: 575
GlyphClass: 2
Flags: W
LayerCount: 2
Fore
SplineSet
143 77 m 1
 464 77 l 2
 478 77 486 71 486 59 c 0
 486 57 485 54 485 52 c 2
 481 25 l 2
 478 8 468 0 452 0 c 2
 70 0 l 2
 56 0 48 6 48 18 c 0
 48 20 49 23 49 25 c 2
 152 675 l 2
 155 692 165 700 181 700 c 2
 540 700 l 2
 554 700 562 694 562 682 c 0
 562 680 561 677 561 675 c 2
 557 649 l 2
 554 632 544 624 528 624 c 2
 229 624 l 1
 194 403 l 1
 472 403 l 2
 486 403 494 397 494 385 c 0
 494 383 493 380 493 378 c 2
 489 351 l 2
 486 334 476 326 460 326 c 2
 182 326 l 1
 143 77 l 1
280 859 m 1
 284 885 l 2
 287 901 297 910 313 910 c 2
 551 910 l 2
 565 910 573 903 573 891 c 0
 573 889 572 887 572 885 c 2
 568 858 l 2
 566 842 555 834 539 834 c 2
 301 834 l 2
 287 834 280 841 280 854 c 2
 280 859 l 1
EndSplineSet
EndChar

StartChar: emacron
Encoding: 275 275 211
Width: 575
GlyphClass: 2
Flags: W
LayerCount: 2
Fore
SplineSet
458 77 m 2
 464 53 l 2
 465 50 465 48 465 45 c 0
 465 34 459 25 446 20 c 0
 395 0 338 -10 287 -10 c 0
 176 -10 73 45 73 189 c 0
 73 354 183 510 333 510 c 0
 423 510 507 448 507 331 c 0
 507 310 504 292 499 262 c 0
 496 246 486 237 470 237 c 2
 162 237 l 1
 160 223 159 210 159 199 c 0
 159 102 222 68 299 68 c 0
 340 68 380 75 428 91 c 0
 432 93 436 93 440 93 c 0
 449 93 455 88 458 77 c 2
422 314 m 1
 423 321 424 328 424 334 c 0
 424 401 369 434 322 434 c 0
 269 434 200 392 181 314 c 1
 422 314 l 1
247 659 m 1
 251 685 l 2
 254 701 264 710 280 710 c 2
 518 710 l 2
 532 710 540 703 540 691 c 0
 540 689 539 687 539 685 c 2
 535 658 l 2
 533 642 522 634 506 634 c 2
 268 634 l 2
 254 634 247 641 247 654 c 2
 247 659 l 1
EndSplineSet
EndChar

StartChar: Ebreve
Encoding: 276 276 212
Width: 575
GlyphClass: 2
Flags: W
LayerCount: 2
Fore
SplineSet
143 77 m 1
 464 77 l 2
 478 77 486 71 486 59 c 0
 486 57 485 54 485 52 c 2
 481 25 l 2
 478 8 468 0 452 0 c 2
 70 0 l 2
 56 0 48 6 48 18 c 0
 48 20 49 23 49 25 c 2
 152 675 l 2
 155 692 165 700 181 700 c 2
 540 700 l 2
 554 700 562 694 562 682 c 0
 562 680 561 677 561 675 c 2
 557 649 l 2
 554 632 544 624 528 624 c 2
 229 624 l 1
 194 403 l 1
 472 403 l 2
 486 403 494 397 494 385 c 0
 494 383 493 380 493 378 c 2
 489 351 l 2
 486 334 476 326 460 326 c 2
 182 326 l 1
 143 77 l 1
536 951 m 2
 563 946 l 2
 574 944 580 938 580 929 c 0
 580 925 579 922 577 917 c 0
 543 838 472 793 376 793 c 0
 280 793 222 838 212 917 c 1
 212 919 l 2
 212 934 221 943 237 946 c 2
 266 951 l 2
 268 951 270 952 272 952 c 0
 283 952 289 945 291 931 c 0
 299 881 331 853 385 853 c 0
 438 853 480 881 503 931 c 0
 509 945 517 952 529 952 c 0
 531 952 534 951 536 951 c 2
EndSplineSet
EndChar

StartChar: ebreve
Encoding: 277 277 213
Width: 575
GlyphClass: 2
Flags: W
LayerCount: 2
Fore
SplineSet
458 77 m 2
 464 53 l 2
 465 50 465 48 465 45 c 0
 465 34 459 25 446 20 c 0
 395 0 338 -10 287 -10 c 0
 176 -10 73 45 73 189 c 0
 73 354 183 510 333 510 c 0
 423 510 507 448 507 331 c 0
 507 310 504 292 499 262 c 0
 496 246 486 237 470 237 c 2
 162 237 l 1
 160 223 159 210 159 199 c 0
 159 102 222 68 299 68 c 0
 340 68 380 75 428 91 c 0
 432 93 436 93 440 93 c 0
 449 93 455 88 458 77 c 2
422 314 m 1
 423 321 424 328 424 334 c 0
 424 401 369 434 322 434 c 0
 269 434 200 392 181 314 c 1
 422 314 l 1
503 751 m 2
 530 746 l 2
 541 744 547 738 547 729 c 0
 547 725 546 722 544 717 c 0
 510 638 439 593 343 593 c 0
 247 593 189 638 179 717 c 1
 179 719 l 2
 179 734 188 743 204 746 c 2
 233 751 l 2
 235 751 237 752 239 752 c 0
 250 752 256 745 258 731 c 0
 266 681 298 653 352 653 c 0
 405 653 447 681 470 731 c 0
 476 745 484 752 496 752 c 0
 498 752 501 751 503 751 c 2
EndSplineSet
EndChar

StartChar: Edotaccent
Encoding: 278 278 214
Width: 575
GlyphClass: 2
Flags: W
LayerCount: 2
Fore
SplineSet
143 77 m 1
 464 77 l 2
 478 77 486 71 486 59 c 0
 486 57 485 54 485 52 c 2
 481 25 l 2
 478 8 468 0 452 0 c 2
 70 0 l 2
 56 0 48 6 48 18 c 0
 48 20 49 23 49 25 c 2
 152 675 l 2
 155 692 165 700 181 700 c 2
 540 700 l 2
 554 700 562 694 562 682 c 0
 562 680 561 677 561 675 c 2
 557 649 l 2
 554 632 544 624 528 624 c 2
 229 624 l 1
 194 403 l 1
 472 403 l 2
 486 403 494 397 494 385 c 0
 494 383 493 380 493 378 c 2
 489 351 l 2
 486 334 476 326 460 326 c 2
 182 326 l 1
 143 77 l 1
430 885 m 2
 423 839 l 2
 420 822 411 814 394 814 c 2
 359 814 l 2
 345 814 337 821 337 833 c 0
 337 835 338 837 338 839 c 2
 345 885 l 2
 348 901 358 910 374 910 c 2
 409 910 l 2
 423 910 431 904 431 892 c 0
 431 890 430 887 430 885 c 2
EndSplineSet
EndChar

StartChar: edotaccent
Encoding: 279 279 215
Width: 575
GlyphClass: 2
Flags: W
LayerCount: 2
Fore
SplineSet
458 77 m 2
 464 53 l 2
 465 50 465 48 465 45 c 0
 465 34 459 25 446 20 c 0
 395 0 338 -10 287 -10 c 0
 176 -10 73 45 73 189 c 0
 73 354 183 510 333 510 c 0
 423 510 507 448 507 331 c 0
 507 310 504 292 499 262 c 0
 496 246 486 237 470 237 c 2
 162 237 l 1
 160 223 159 210 159 199 c 0
 159 102 222 68 299 68 c 0
 340 68 380 75 428 91 c 0
 432 93 436 93 440 93 c 0
 449 93 455 88 458 77 c 2
422 314 m 1
 423 321 424 328 424 334 c 0
 424 401 369 434 322 434 c 0
 269 434 200 392 181 314 c 1
 422 314 l 1
397 685 m 2
 390 639 l 2
 387 622 378 614 361 614 c 2
 326 614 l 2
 312 614 304 621 304 633 c 0
 304 635 305 637 305 639 c 2
 312 685 l 2
 315 701 325 710 341 710 c 2
 376 710 l 2
 390 710 398 704 398 692 c 0
 398 690 397 687 397 685 c 2
EndSplineSet
EndChar

StartChar: Eogonek
Encoding: 280 280 216
Width: 575
GlyphClass: 2
Flags: W
LayerCount: 2
Fore
SplineSet
143 77 m 1
 464 77 l 2
 478 77 486 71 486 59 c 0
 486 57 485 54 485 52 c 2
 481 25 l 2
 479 15 475 8 469 4 c 1
 469 0 l 2
 469 -4 468 -8 465 -14 c 0
 458 -34 450 -57 447 -73 c 0
 445 -88 444 -101 444 -112 c 0
 444 -140 450 -157 460 -172 c 0
 464 -178 465 -183 465 -188 c 0
 465 -195 462 -201 455 -208 c 2
 430 -231 l 2
 424 -237 417 -241 411 -241 c 0
 405 -241 400 -238 395 -232 c 0
 371 -203 355 -166 355 -126 c 0
 355 -119 356 -111 357 -103 c 0
 362 -75 369 -38 419 0 c 1
 70 0 l 2
 56 0 48 6 48 18 c 0
 48 20 49 23 49 25 c 2
 152 675 l 2
 155 692 165 700 181 700 c 2
 540 700 l 2
 554 700 562 694 562 682 c 0
 562 680 561 677 561 675 c 2
 557 649 l 2
 554 632 544 624 528 624 c 2
 229 624 l 1
 194 403 l 1
 472 403 l 2
 486 403 494 397 494 385 c 0
 494 383 493 380 493 378 c 2
 489 351 l 2
 486 334 476 326 460 326 c 2
 182 326 l 1
 143 77 l 1
EndSplineSet
EndChar

StartChar: eogonek
Encoding: 281 281 217
Width: 575
GlyphClass: 2
Flags: W
LayerCount: 2
Fore
SplineSet
458 77 m 2
 464 53 l 2
 465 50 465 48 465 45 c 0
 465 37 462 31 456 26 c 0
 456 22 455 17 452 11 c 0
 445 -9 437 -32 434 -48 c 0
 432 -63 431 -76 431 -87 c 0
 431 -115 437 -132 447 -147 c 0
 451 -153 452 -158 452 -163 c 0
 452 -170 449 -176 442 -183 c 2
 417 -206 l 2
 411 -212 404 -216 398 -216 c 0
 392 -216 387 -213 382 -207 c 0
 358 -178 342 -141 342 -101 c 0
 342 -94 343 -86 344 -78 c 0
 348 -56 353 -29 379 0 c 1
 348 -7 316 -10 287 -10 c 0
 176 -10 73 45 73 189 c 0
 73 354 183 510 333 510 c 0
 423 510 507 448 507 331 c 0
 507 310 504 292 499 262 c 0
 496 246 486 237 470 237 c 2
 162 237 l 1
 160 223 159 210 159 199 c 0
 159 102 222 68 299 68 c 0
 340 68 380 75 428 91 c 0
 432 93 436 93 440 93 c 0
 449 93 455 88 458 77 c 2
422 314 m 1
 423 321 424 328 424 334 c 0
 424 401 369 434 322 434 c 0
 269 434 200 392 181 314 c 1
 422 314 l 1
EndSplineSet
EndChar

StartChar: Ecaron
Encoding: 282 282 218
Width: 575
GlyphClass: 2
Flags: W
LayerCount: 2
Fore
SplineSet
143 77 m 1
 464 77 l 2
 478 77 486 71 486 59 c 0
 486 57 485 54 485 52 c 2
 481 25 l 2
 478 8 468 0 452 0 c 2
 70 0 l 2
 56 0 48 6 48 18 c 0
 48 20 49 23 49 25 c 2
 152 675 l 2
 155 692 165 700 181 700 c 2
 540 700 l 2
 554 700 562 694 562 682 c 0
 562 680 561 677 561 675 c 2
 557 649 l 2
 554 632 544 624 528 624 c 2
 229 624 l 1
 194 403 l 1
 472 403 l 2
 486 403 494 397 494 385 c 0
 494 383 493 380 493 378 c 2
 489 351 l 2
 486 334 476 326 460 326 c 2
 182 326 l 1
 143 77 l 1
221 920 m 2
 241 943 l 2
 248 951 256 955 263 955 c 0
 268 955 273 953 277 949 c 2
 368 878 l 2
 375 872 378 869 388 869 c 0
 398 869 401 873 410 878 c 2
 523 949 l 2
 529 953 534 955 539 955 c 0
 546 955 552 951 556 943 c 2
 570 920 l 2
 573 916 574 911 574 907 c 0
 574 899 569 891 558 885 c 2
 444 820 l 2
 422 807 399 797 376 797 c 0
 353 797 335 806 316 819 c 2
 222 885 l 2
 216 890 212 896 212 902 c 0
 212 908 215 914 221 920 c 2
EndSplineSet
EndChar

StartChar: ecaron
Encoding: 283 283 219
Width: 575
GlyphClass: 2
Flags: W
LayerCount: 2
Fore
SplineSet
458 77 m 2
 464 53 l 2
 465 50 465 48 465 45 c 0
 465 34 459 25 446 20 c 0
 395 0 338 -10 287 -10 c 0
 176 -10 73 45 73 189 c 0
 73 354 183 510 333 510 c 0
 423 510 507 448 507 331 c 0
 507 310 504 292 499 262 c 0
 496 246 486 237 470 237 c 2
 162 237 l 1
 160 223 159 210 159 199 c 0
 159 102 222 68 299 68 c 0
 340 68 380 75 428 91 c 0
 432 93 436 93 440 93 c 0
 449 93 455 88 458 77 c 2
422 314 m 1
 423 321 424 328 424 334 c 0
 424 401 369 434 322 434 c 0
 269 434 200 392 181 314 c 1
 422 314 l 1
188 720 m 2
 208 743 l 2
 215 751 223 755 230 755 c 0
 235 755 240 753 244 749 c 2
 335 678 l 2
 342 672 345 669 355 669 c 0
 365 669 368 673 377 678 c 2
 490 749 l 2
 496 753 501 755 506 755 c 0
 513 755 519 751 523 743 c 2
 537 720 l 2
 540 716 541 711 541 707 c 0
 541 699 536 691 525 685 c 2
 411 620 l 2
 389 607 366 597 343 597 c 0
 320 597 302 606 283 619 c 2
 189 685 l 2
 183 690 179 696 179 702 c 0
 179 708 182 714 188 720 c 2
EndSplineSet
EndChar

StartChar: Gcircumflex
Encoding: 284 284 220
Width: 575
GlyphClass: 2
Flags: W
LayerCount: 2
Fore
SplineSet
365 389 m 2
 497 389 l 2
 511 389 519 383 519 371 c 0
 519 369 518 366 518 364 c 2
 467 41 l 2
 465 27 457 17 443 11 c 0
 391 -10 342 -20 297 -20 c 0
 194 -20 85 33 85 206 c 0
 85 246 90 280 107 390 c 0
 147 640 295 710 413 710 c 0
 458 710 502 700 546 680 c 0
 555 676 559 671 559 663 c 0
 559 658 557 653 554 647 c 2
 540 623 l 2
 534 612 526 607 517 607 c 0
 513 607 510 607 506 609 c 0
 464 625 430 632 399 632 c 0
 320 632 224 586 193 390 c 0
 176 286 172 253 172 217 c 0
 172 91 241 58 308 58 c 0
 330 58 356 62 386 70 c 1
 425 312 l 1
 353 312 l 2
 339 312 331 318 331 330 c 0
 331 332 332 335 332 337 c 2
 336 363 l 2
 339 380 349 389 365 389 c 2
219 807 m 2
 207 831 l 2
 204 835 203 840 203 844 c 0
 203 853 209 860 219 866 c 2
 334 932 l 2
 357 946 378 955 401 955 c 0
 424 955 444 944 462 932 c 2
 555 866 l 2
 562 861 565 856 565 850 c 0
 565 844 562 838 556 831 c 2
 535 808 l 2
 529 800 522 796 515 796 c 0
 510 796 505 798 500 802 c 2
 409 874 l 2
 402 879 400 883 390 883 c 0
 380 883 376 879 367 874 c 2
 254 802 l 2
 248 798 243 796 238 796 c 0
 231 796 224 800 219 807 c 2
EndSplineSet
EndChar

StartChar: gcircumflex
Encoding: 285 285 221
Width: 575
GlyphClass: 2
Flags: W
LayerCount: 2
Fore
SplineSet
359 -39 m 2
 375 63 l 1
 322 15 263 -10 212 -10 c 0
 136 -10 77 46 77 190 c 0
 77 380 157 510 357 510 c 0
 386 510 440 508 501 500 c 0
 515 497 522 489 522 476 c 2
 522 471 l 1
 443 -38 l 2
 415 -212 330 -250 221 -250 c 0
 173 -250 122 -242 68 -236 c 0
 55 -235 50 -229 50 -219 c 0
 50 -216 51 -212 52 -207 c 2
 57 -181 l 2
 60 -168 69 -160 83 -160 c 2
 88 -160 l 1
 140 -168 185 -175 222 -175 c 0
 296 -175 342 -147 359 -39 c 2
388 151 m 1
 433 430 l 1
 395 433 363 434 345 434 c 0
 209 434 163 336 163 205 c 0
 163 104 195 66 242 66 c 0
 283 66 336 95 388 151 c 1
186 607 m 2
 174 631 l 2
 171 635 170 640 170 644 c 0
 170 653 176 660 186 666 c 2
 301 732 l 2
 324 746 345 755 368 755 c 0
 391 755 411 744 429 732 c 2
 522 666 l 2
 529 661 532 656 532 650 c 0
 532 644 529 638 523 631 c 2
 502 608 l 2
 496 600 489 596 482 596 c 0
 477 596 472 598 467 602 c 2
 376 674 l 2
 369 679 367 683 357 683 c 0
 347 683 343 679 334 674 c 2
 221 602 l 2
 215 598 210 596 205 596 c 0
 198 596 191 600 186 607 c 2
EndSplineSet
EndChar

StartChar: Gbreve
Encoding: 286 286 222
Width: 575
GlyphClass: 2
Flags: W
LayerCount: 2
Fore
SplineSet
365 389 m 2
 497 389 l 2
 511 389 519 383 519 371 c 0
 519 369 518 366 518 364 c 2
 467 41 l 2
 465 27 457 17 443 11 c 0
 391 -10 342 -20 297 -20 c 0
 194 -20 85 33 85 206 c 0
 85 246 90 280 107 390 c 0
 147 640 295 710 413 710 c 0
 458 710 502 700 546 680 c 0
 555 676 559 671 559 663 c 0
 559 658 557 653 554 647 c 2
 540 623 l 2
 534 612 526 607 517 607 c 0
 513 607 510 607 506 609 c 0
 464 625 430 632 399 632 c 0
 320 632 224 586 193 390 c 0
 176 286 172 253 172 217 c 0
 172 91 241 58 308 58 c 0
 330 58 356 62 386 70 c 1
 425 312 l 1
 353 312 l 2
 339 312 331 318 331 330 c 0
 331 332 332 335 332 337 c 2
 336 363 l 2
 339 380 349 389 365 389 c 2
536 951 m 2
 563 946 l 2
 574 944 580 938 580 929 c 0
 580 925 579 922 577 917 c 0
 543 838 472 793 376 793 c 0
 280 793 222 838 212 917 c 1
 212 919 l 2
 212 934 221 943 237 946 c 2
 266 951 l 2
 268 951 270 952 272 952 c 0
 283 952 289 945 291 931 c 0
 299 881 331 853 385 853 c 0
 438 853 480 881 503 931 c 0
 509 945 517 952 529 952 c 0
 531 952 534 951 536 951 c 2
EndSplineSet
EndChar

StartChar: gbreve
Encoding: 287 287 223
Width: 575
GlyphClass: 2
Flags: W
LayerCount: 2
Fore
SplineSet
359 -39 m 2
 375 63 l 1
 322 15 263 -10 212 -10 c 0
 136 -10 77 46 77 190 c 0
 77 380 157 510 357 510 c 0
 386 510 440 508 501 500 c 0
 515 497 522 489 522 476 c 2
 522 471 l 1
 443 -38 l 2
 415 -212 330 -250 221 -250 c 0
 173 -250 122 -242 68 -236 c 0
 55 -235 50 -229 50 -219 c 0
 50 -216 51 -212 52 -207 c 2
 57 -181 l 2
 60 -168 69 -160 83 -160 c 2
 88 -160 l 1
 140 -168 185 -175 222 -175 c 0
 296 -175 342 -147 359 -39 c 2
388 151 m 1
 433 430 l 1
 395 433 363 434 345 434 c 0
 209 434 163 336 163 205 c 0
 163 104 195 66 242 66 c 0
 283 66 336 95 388 151 c 1
503 751 m 2
 530 746 l 2
 541 744 547 738 547 729 c 0
 547 725 546 722 544 717 c 0
 510 638 439 593 343 593 c 0
 247 593 189 638 179 717 c 1
 179 719 l 2
 179 734 188 743 204 746 c 2
 233 751 l 2
 235 751 237 752 239 752 c 0
 250 752 256 745 258 731 c 0
 266 681 298 653 352 653 c 0
 405 653 447 681 470 731 c 0
 476 745 484 752 496 752 c 0
 498 752 501 751 503 751 c 2
EndSplineSet
EndChar

StartChar: Gdotaccent
Encoding: 288 288 224
Width: 575
GlyphClass: 2
Flags: W
LayerCount: 2
Fore
SplineSet
365 389 m 2
 497 389 l 2
 511 389 519 383 519 371 c 0
 519 369 518 366 518 364 c 2
 467 41 l 2
 465 27 457 17 443 11 c 0
 391 -10 342 -20 297 -20 c 0
 194 -20 85 33 85 206 c 0
 85 246 90 280 107 390 c 0
 147 640 295 710 413 710 c 0
 458 710 502 700 546 680 c 0
 555 676 559 671 559 663 c 0
 559 658 557 653 554 647 c 2
 540 623 l 2
 534 612 526 607 517 607 c 0
 513 607 510 607 506 609 c 0
 464 625 430 632 399 632 c 0
 320 632 224 586 193 390 c 0
 176 286 172 253 172 217 c 0
 172 91 241 58 308 58 c 0
 330 58 356 62 386 70 c 1
 425 312 l 1
 353 312 l 2
 339 312 331 318 331 330 c 0
 331 332 332 335 332 337 c 2
 336 363 l 2
 339 380 349 389 365 389 c 2
430 885 m 2
 423 839 l 2
 420 822 411 814 394 814 c 2
 359 814 l 2
 345 814 337 821 337 833 c 0
 337 835 338 837 338 839 c 2
 345 885 l 2
 348 901 358 910 374 910 c 2
 409 910 l 2
 423 910 431 904 431 892 c 0
 431 890 430 887 430 885 c 2
EndSplineSet
EndChar

StartChar: gdotaccent
Encoding: 289 289 225
Width: 575
GlyphClass: 2
Flags: W
LayerCount: 2
Fore
SplineSet
359 -39 m 2
 375 63 l 1
 322 15 263 -10 212 -10 c 0
 136 -10 77 46 77 190 c 0
 77 380 157 510 357 510 c 0
 386 510 440 508 501 500 c 0
 515 497 522 489 522 476 c 2
 522 471 l 1
 443 -38 l 2
 415 -212 330 -250 221 -250 c 0
 173 -250 122 -242 68 -236 c 0
 55 -235 50 -229 50 -219 c 0
 50 -216 51 -212 52 -207 c 2
 57 -181 l 2
 60 -168 69 -160 83 -160 c 2
 88 -160 l 1
 140 -168 185 -175 222 -175 c 0
 296 -175 342 -147 359 -39 c 2
388 151 m 1
 433 430 l 1
 395 433 363 434 345 434 c 0
 209 434 163 336 163 205 c 0
 163 104 195 66 242 66 c 0
 283 66 336 95 388 151 c 1
397 685 m 2
 390 639 l 2
 387 622 378 614 361 614 c 2
 326 614 l 2
 312 614 304 621 304 633 c 0
 304 635 305 637 305 639 c 2
 312 685 l 2
 315 701 325 710 341 710 c 2
 376 710 l 2
 390 710 398 704 398 692 c 0
 398 690 397 687 397 685 c 2
EndSplineSet
EndChar

StartChar: Gcommaaccent
Encoding: 290 290 226
Width: 575
GlyphClass: 2
Flags: W
LayerCount: 2
Fore
SplineSet
365 389 m 2
 497 389 l 2
 511 389 519 383 519 371 c 0
 519 369 518 366 518 364 c 2
 467 41 l 2
 465 27 457 17 443 11 c 0
 391 -10 342 -20 297 -20 c 0
 194 -20 85 33 85 206 c 0
 85 246 90 280 107 390 c 0
 147 640 295 710 413 710 c 0
 458 710 502 700 546 680 c 0
 555 676 559 671 559 663 c 0
 559 658 557 653 554 647 c 2
 540 623 l 2
 534 612 526 607 517 607 c 0
 513 607 510 607 506 609 c 0
 464 625 430 632 399 632 c 0
 320 632 224 586 193 390 c 0
 176 286 172 253 172 217 c 0
 172 91 241 58 308 58 c 0
 330 58 356 62 386 70 c 1
 425 312 l 1
 353 312 l 2
 339 312 331 318 331 330 c 0
 331 332 332 335 332 337 c 2
 336 363 l 2
 339 380 349 389 365 389 c 2
195 -63 m 2
 275 -63 l 2
 289 -63 296 -70 296 -83 c 2
 296 -88 l 1
 281 -180 l 2
 264 -289 220 -385 124 -385 c 0
 110 -385 102 -379 102 -366 c 2
 102 -361 l 1
 107 -334 l 2
 109 -318 119 -309 135 -309 c 0
 174 -309 191 -253 201 -178 c 1
 176 -178 l 2
 162 -178 155 -171 155 -158 c 2
 155 -153 l 1
 166 -88 l 2
 168 -71 178 -63 195 -63 c 2
EndSplineSet
EndChar

StartChar: gcommaaccent
Encoding: 291 291 227
Width: 575
GlyphClass: 2
Flags: W
LayerCount: 2
Fore
SplineSet
359 -39 m 2
 375 63 l 1
 322 15 263 -10 212 -10 c 0
 136 -10 77 46 77 190 c 0
 77 380 157 510 357 510 c 0
 386 510 440 508 501 500 c 0
 515 497 522 489 522 476 c 2
 522 471 l 1
 443 -38 l 2
 415 -212 330 -250 221 -250 c 0
 173 -250 122 -242 68 -236 c 0
 55 -235 50 -229 50 -219 c 0
 50 -216 51 -212 52 -207 c 2
 57 -181 l 2
 60 -168 69 -160 83 -160 c 2
 88 -160 l 1
 140 -168 185 -175 222 -175 c 0
 296 -175 342 -147 359 -39 c 2
388 151 m 1
 433 430 l 1
 395 433 363 434 345 434 c 0
 209 434 163 336 163 205 c 0
 163 104 195 66 242 66 c 0
 283 66 336 95 388 151 c 1
387 554 m 2
 307 554 l 2
 293 554 286 561 286 574 c 2
 286 579 l 1
 301 671 l 2
 318 780 362 876 458 876 c 0
 472 876 480 870 480 857 c 2
 480 852 l 1
 475 825 l 2
 473 809 463 800 447 800 c 0
 408 800 391 744 381 669 c 1
 406 669 l 2
 420 669 427 662 427 649 c 2
 427 644 l 1
 416 579 l 2
 414 562 404 554 387 554 c 2
EndSplineSet
EndChar

StartChar: Hcircumflex
Encoding: 292 292 228
Width: 575
GlyphClass: 2
Flags: W
LayerCount: 2
Fore
SplineSet
518 700 m 2
 553 700 l 2
 567 700 575 694 575 682 c 0
 575 680 574 677 574 675 c 2
 471 25 l 2
 468 8 458 0 442 0 c 2
 407 0 l 2
 393 0 385 6 385 18 c 0
 385 20 386 23 386 25 c 2
 435 333 l 1
 166 333 l 1
 117 25 l 2
 114 8 104 0 88 0 c 2
 53 0 l 2
 39 0 31 6 31 18 c 0
 31 20 32 23 32 25 c 2
 135 675 l 2
 138 692 148 700 164 700 c 2
 199 700 l 2
 213 700 221 694 221 682 c 0
 221 680 220 677 220 675 c 2
 178 410 l 1
 447 410 l 1
 489 675 l 2
 492 692 502 700 518 700 c 2
219 807 m 2
 207 831 l 2
 204 835 203 840 203 844 c 0
 203 853 209 860 219 866 c 2
 334 932 l 2
 357 946 378 955 401 955 c 0
 424 955 444 944 462 932 c 2
 555 866 l 2
 562 861 565 856 565 850 c 0
 565 844 562 838 556 831 c 2
 535 808 l 2
 529 800 522 796 515 796 c 0
 510 796 505 798 500 802 c 2
 409 874 l 2
 402 879 400 883 390 883 c 0
 380 883 376 879 367 874 c 2
 254 802 l 2
 248 798 243 796 238 796 c 0
 231 796 224 800 219 807 c 2
EndSplineSet
EndChar

StartChar: hcircumflex
Encoding: 293 293 229
Width: 575
GlyphClass: 2
Flags: W
LayerCount: 2
Fore
SplineSet
249 725 m 2
 204 437 l 1
 256 485 311 510 372 510 c 0
 439 510 497 481 497 359 c 0
 497 336 495 309 490 278 c 2
 450 25 l 2
 448 9 438 0 421 0 c 2
 386 0 l 2
 372 0 365 7 365 20 c 2
 365 25 l 1
 405 278 l 2
 409 304 411 326 411 344 c 0
 411 421 381 434 343 434 c 0
 291 434 243 405 190 349 c 1
 138 25 l 2
 136 9 125 0 109 0 c 2
 74 0 l 2
 60 0 53 7 53 20 c 2
 53 25 l 1
 163 720 l 2
 166 736 175 750 191 750 c 2
 228 750 l 2
 242 750 250 743 250 731 c 0
 250 729 249 727 249 725 c 2
219 822 m 2
 207 846 l 2
 204 850 203 855 203 859 c 0
 203 868 209 875 219 881 c 2
 334 947 l 2
 357 961 378 970 401 970 c 0
 424 970 444 959 462 947 c 2
 555 881 l 2
 562 876 565 871 565 865 c 0
 565 859 562 853 556 846 c 2
 535 823 l 2
 529 815 522 811 515 811 c 0
 510 811 505 813 500 817 c 2
 409 889 l 2
 402 894 400 898 390 898 c 0
 380 898 376 894 367 889 c 2
 254 817 l 2
 248 813 243 811 238 811 c 0
 231 811 224 815 219 822 c 2
EndSplineSet
EndChar

StartChar: Itilde
Encoding: 296 296 230
Width: 575
GlyphClass: 2
Flags: W
LayerCount: 2
Fore
SplineSet
191 700 m 2
 526 700 l 2
 540 700 548 694 548 682 c 0
 548 680 547 677 547 675 c 2
 543 649 l 2
 540 632 530 624 514 624 c 2
 389 624 l 1
 303 77 l 1
 438 77 l 2
 452 77 460 71 460 59 c 0
 460 57 459 54 459 52 c 2
 455 25 l 2
 452 8 442 0 426 0 c 2
 71 0 l 2
 57 0 49 6 49 18 c 0
 49 20 50 23 50 25 c 2
 54 52 l 2
 57 69 67 77 83 77 c 2
 218 77 l 1
 304 624 l 1
 179 624 l 2
 165 624 157 630 157 642 c 0
 157 644 158 647 158 649 c 2
 162 675 l 2
 165 692 175 700 191 700 c 2
206 840 m 2
 194 849 l 2
 188 853 185 859 185 865 c 0
 185 871 188 877 194 884 c 0
 235 928 278 953 317 953 c 0
 341 953 372 940 404 916 c 0
 425 901 444 893 461 893 c 0
 480 893 500 902 518 919 c 0
 525 926 532 930 539 930 c 0
 544 930 549 928 554 925 c 2
 565 916 l 2
 571 911 575 906 575 900 c 0
 575 894 571 887 565 881 c 0
 523 836 480 812 442 812 c 0
 419 812 388 825 355 848 c 0
 334 863 311 871 293 871 c 0
 277 871 260 862 242 846 c 0
 235 839 227 835 220 835 c 0
 215 835 210 837 206 840 c 2
EndSplineSet
EndChar

StartChar: itilde
Encoding: 297 297 231
Width: 575
GlyphClass: 2
Flags: W
LayerCount: 2
Fore
SplineSet
224 150 m 2
 266 350 l 2
 269 363 270 374 270 384 c 0
 270 417 254 432 215 433 c 0
 199 433 180 431 150 426 c 0
 147 425 145 425 142 425 c 0
 131 425 123 431 121 443 c 2
 117 470 l 1
 117 477 l 2
 117 488 121 496 135 499 c 0
 173 508 207 510 227 510 c 0
 313 510 357 475 357 402 c 0
 357 386 355 369 351 350 c 2
 309 150 l 2
 306 137 305 126 305 116 c 0
 305 83 321 68 360 67 c 0
 376 67 395 69 425 74 c 0
 428 75 430 75 433 75 c 0
 444 75 452 69 454 57 c 2
 458 30 l 1
 458 23 l 2
 458 12 454 4 440 1 c 0
 402 -8 368 -10 348 -10 c 0
 262 -10 218 25 218 98 c 0
 218 114 220 131 224 150 c 2
173 640 m 2
 161 649 l 2
 155 653 152 659 152 665 c 0
 152 671 155 677 161 684 c 0
 202 728 245 753 284 753 c 0
 308 753 339 740 371 716 c 0
 392 701 411 693 428 693 c 0
 447 693 467 702 485 719 c 0
 492 726 499 730 506 730 c 0
 511 730 516 728 521 725 c 2
 532 716 l 2
 538 711 542 706 542 700 c 0
 542 694 538 687 532 681 c 0
 490 636 447 612 409 612 c 0
 386 612 355 625 322 648 c 0
 301 663 278 671 260 671 c 0
 244 671 227 662 209 646 c 0
 202 639 194 635 187 635 c 0
 182 635 177 637 173 640 c 2
EndSplineSet
EndChar

StartChar: Imacron
Encoding: 298 298 232
Width: 575
GlyphClass: 2
Flags: W
LayerCount: 2
Fore
SplineSet
191 700 m 2
 526 700 l 2
 540 700 548 694 548 682 c 0
 548 680 547 677 547 675 c 2
 543 649 l 2
 540 632 530 624 514 624 c 2
 389 624 l 1
 303 77 l 1
 438 77 l 2
 452 77 460 71 460 59 c 0
 460 57 459 54 459 52 c 2
 455 25 l 2
 452 8 442 0 426 0 c 2
 71 0 l 2
 57 0 49 6 49 18 c 0
 49 20 50 23 50 25 c 2
 54 52 l 2
 57 69 67 77 83 77 c 2
 218 77 l 1
 304 624 l 1
 179 624 l 2
 165 624 157 630 157 642 c 0
 157 644 158 647 158 649 c 2
 162 675 l 2
 165 692 175 700 191 700 c 2
280 859 m 1
 284 885 l 2
 287 901 297 910 313 910 c 2
 551 910 l 2
 565 910 573 903 573 891 c 0
 573 889 572 887 572 885 c 2
 568 858 l 2
 566 842 555 834 539 834 c 2
 301 834 l 2
 287 834 280 841 280 854 c 2
 280 859 l 1
EndSplineSet
EndChar

StartChar: imacron
Encoding: 299 299 233
Width: 575
GlyphClass: 2
Flags: W
LayerCount: 2
Fore
SplineSet
224 150 m 2
 266 350 l 2
 269 363 270 374 270 384 c 0
 270 417 254 432 215 433 c 0
 199 433 180 431 150 426 c 0
 147 425 145 425 142 425 c 0
 131 425 123 431 121 443 c 2
 117 470 l 1
 117 477 l 2
 117 488 121 496 135 499 c 0
 173 508 207 510 227 510 c 0
 313 510 357 475 357 402 c 0
 357 386 355 369 351 350 c 2
 309 150 l 2
 306 137 305 126 305 116 c 0
 305 83 321 68 360 67 c 0
 376 67 395 69 425 74 c 0
 428 75 430 75 433 75 c 0
 444 75 452 69 454 57 c 2
 458 30 l 1
 458 23 l 2
 458 12 454 4 440 1 c 0
 402 -8 368 -10 348 -10 c 0
 262 -10 218 25 218 98 c 0
 218 114 220 131 224 150 c 2
247 659 m 1
 251 685 l 2
 254 701 264 710 280 710 c 2
 518 710 l 2
 532 710 540 703 540 691 c 0
 540 689 539 687 539 685 c 2
 535 658 l 2
 533 642 522 634 506 634 c 2
 268 634 l 2
 254 634 247 641 247 654 c 2
 247 659 l 1
EndSplineSet
EndChar

StartChar: Ibreve
Encoding: 300 300 234
Width: 575
GlyphClass: 2
Flags: W
LayerCount: 2
Fore
SplineSet
191 700 m 2
 526 700 l 2
 540 700 548 694 548 682 c 0
 548 680 547 677 547 675 c 2
 543 649 l 2
 540 632 530 624 514 624 c 2
 389 624 l 1
 303 77 l 1
 438 77 l 2
 452 77 460 71 460 59 c 0
 460 57 459 54 459 52 c 2
 455 25 l 2
 452 8 442 0 426 0 c 2
 71 0 l 2
 57 0 49 6 49 18 c 0
 49 20 50 23 50 25 c 2
 54 52 l 2
 57 69 67 77 83 77 c 2
 218 77 l 1
 304 624 l 1
 179 624 l 2
 165 624 157 630 157 642 c 0
 157 644 158 647 158 649 c 2
 162 675 l 2
 165 692 175 700 191 700 c 2
536 951 m 2
 563 946 l 2
 574 944 580 938 580 929 c 0
 580 925 579 922 577 917 c 0
 543 838 472 793 376 793 c 0
 280 793 222 838 212 917 c 1
 212 919 l 2
 212 934 221 943 237 946 c 2
 266 951 l 2
 268 951 270 952 272 952 c 0
 283 952 289 945 291 931 c 0
 299 881 331 853 385 853 c 0
 438 853 480 881 503 931 c 0
 509 945 517 952 529 952 c 0
 531 952 534 951 536 951 c 2
EndSplineSet
EndChar

StartChar: ibreve
Encoding: 301 301 235
Width: 575
GlyphClass: 2
Flags: W
LayerCount: 2
Fore
SplineSet
224 150 m 2
 266 350 l 2
 269 363 270 374 270 384 c 0
 270 417 254 432 215 433 c 0
 199 433 180 431 150 426 c 0
 147 425 145 425 142 425 c 0
 131 425 123 431 121 443 c 2
 117 470 l 1
 117 477 l 2
 117 488 121 496 135 499 c 0
 173 508 207 510 227 510 c 0
 313 510 357 475 357 402 c 0
 357 386 355 369 351 350 c 2
 309 150 l 2
 306 137 305 126 305 116 c 0
 305 83 321 68 360 67 c 0
 376 67 395 69 425 74 c 0
 428 75 430 75 433 75 c 0
 444 75 452 69 454 57 c 2
 458 30 l 1
 458 23 l 2
 458 12 454 4 440 1 c 0
 402 -8 368 -10 348 -10 c 0
 262 -10 218 25 218 98 c 0
 218 114 220 131 224 150 c 2
503 751 m 2
 530 746 l 2
 541 744 547 738 547 729 c 0
 547 725 546 722 544 717 c 0
 510 638 439 593 343 593 c 0
 247 593 189 638 179 717 c 1
 179 719 l 2
 179 734 188 743 204 746 c 2
 233 751 l 2
 235 751 237 752 239 752 c 0
 250 752 256 745 258 731 c 0
 266 681 298 653 352 653 c 0
 405 653 447 681 470 731 c 0
 476 745 484 752 496 752 c 0
 498 752 501 751 503 751 c 2
EndSplineSet
EndChar

StartChar: Iogonek
Encoding: 302 302 236
Width: 575
GlyphClass: 2
Flags: W
LayerCount: 2
Fore
SplineSet
191 700 m 2
 526 700 l 2
 540 700 548 694 548 682 c 0
 548 680 547 677 547 675 c 2
 543 649 l 2
 540 632 530 624 514 624 c 2
 389 624 l 1
 303 77 l 1
 438 77 l 2
 452 77 460 71 460 59 c 0
 460 57 459 54 459 52 c 2
 455 25 l 2
 453 15 449 8 443 4 c 1
 443 0 l 2
 443 -4 442 -8 439 -14 c 0
 432 -34 424 -57 421 -73 c 0
 419 -88 418 -101 418 -112 c 0
 418 -140 424 -157 434 -172 c 0
 438 -178 439 -183 439 -188 c 0
 439 -195 436 -201 429 -208 c 2
 404 -231 l 2
 398 -237 391 -241 385 -241 c 0
 379 -241 374 -238 369 -232 c 0
 345 -203 329 -166 329 -126 c 0
 329 -119 330 -111 331 -103 c 0
 336 -75 343 -38 393 0 c 1
 71 0 l 2
 57 0 49 6 49 18 c 0
 49 20 50 23 50 25 c 2
 54 52 l 2
 57 69 67 77 83 77 c 2
 218 77 l 1
 304 624 l 1
 179 624 l 2
 165 624 157 630 157 642 c 0
 157 644 158 647 158 649 c 2
 162 675 l 2
 165 692 175 700 191 700 c 2
EndSplineSet
EndChar

StartChar: iogonek
Encoding: 303 303 237
Width: 575
GlyphClass: 2
Flags: W
LayerCount: 2
Fore
SplineSet
224 150 m 2
 266 350 l 2
 269 363 270 374 270 384 c 0
 270 417 254 432 215 433 c 0
 199 433 180 431 150 426 c 0
 147 425 145 425 142 425 c 0
 131 425 123 431 121 443 c 2
 117 470 l 1
 117 477 l 2
 117 488 121 496 135 499 c 0
 173 508 207 510 227 510 c 0
 313 510 357 475 357 402 c 0
 357 386 355 369 351 350 c 2
 309 150 l 2
 306 137 305 126 305 116 c 0
 305 83 321 68 360 67 c 0
 376 67 395 69 425 74 c 0
 428 75 430 75 433 75 c 0
 444 75 452 69 454 57 c 2
 458 30 l 1
 458 23 l 2
 458 13 455 5 443 2 c 1
 437 -16 431 -34 428 -48 c 0
 426 -63 425 -76 425 -87 c 0
 425 -115 431 -132 441 -147 c 0
 445 -153 446 -158 446 -163 c 0
 446 -170 443 -176 436 -183 c 2
 411 -206 l 2
 405 -212 398 -216 392 -216 c 0
 386 -216 381 -213 376 -207 c 0
 352 -178 336 -141 336 -101 c 0
 336 -94 337 -86 338 -78 c 0
 341 -59 346 -35 365 -10 c 1
 348 -10 l 2
 262 -10 218 25 218 98 c 0
 218 114 220 131 224 150 c 2
377 644 m 2
 312 644 l 2
 298 644 291 651 291 664 c 2
 291 669 l 1
 302 735 l 2
 304 751 315 760 331 760 c 2
 396 760 l 2
 410 760 418 754 418 742 c 0
 418 740 417 737 417 735 c 2
 406 669 l 2
 404 653 394 644 377 644 c 2
EndSplineSet
EndChar

StartChar: Idotaccent
Encoding: 304 304 238
Width: 575
GlyphClass: 2
Flags: W
LayerCount: 2
Fore
SplineSet
191 700 m 2
 526 700 l 2
 540 700 548 694 548 682 c 0
 548 680 547 677 547 675 c 2
 543 649 l 2
 540 632 530 624 514 624 c 2
 389 624 l 1
 303 77 l 1
 438 77 l 2
 452 77 460 71 460 59 c 0
 460 57 459 54 459 52 c 2
 455 25 l 2
 452 8 442 0 426 0 c 2
 71 0 l 2
 57 0 49 6 49 18 c 0
 49 20 50 23 50 25 c 2
 54 52 l 2
 57 69 67 77 83 77 c 2
 218 77 l 1
 304 624 l 1
 179 624 l 2
 165 624 157 630 157 642 c 0
 157 644 158 647 158 649 c 2
 162 675 l 2
 165 692 175 700 191 700 c 2
430 885 m 2
 423 839 l 2
 420 822 411 814 394 814 c 2
 359 814 l 2
 345 814 337 821 337 833 c 0
 337 835 338 837 338 839 c 2
 345 885 l 2
 348 901 358 910 374 910 c 2
 409 910 l 2
 423 910 431 904 431 892 c 0
 431 890 430 887 430 885 c 2
EndSplineSet
EndChar

StartChar: dotlessi
Encoding: 305 305 239
Width: 575
GlyphClass: 2
Flags: W
AnchorPoint: "Anchor-3" 423 25 basechar 0
AnchorPoint: "Anchor-2" 248 0 basechar 0
AnchorPoint: "Anchor-1" 327 500 basechar 0
LayerCount: 2
Fore
SplineSet
224 150 m 2
 266 350 l 2
 269 363 270 374 270 384 c 0
 270 417 254 432 215 433 c 0
 199 433 180 431 150 426 c 0
 147 425 145 425 142 425 c 0
 131 425 123 431 121 443 c 2
 117 470 l 1
 117 477 l 2
 117 488 121 496 135 499 c 0
 173 508 207 510 227 510 c 0
 313 510 357 475 357 402 c 0
 357 386 355 369 351 350 c 2
 309 150 l 2
 306 137 305 126 305 116 c 0
 305 83 321 68 360 67 c 0
 376 67 395 69 425 74 c 0
 428 75 430 75 433 75 c 0
 444 75 452 69 454 57 c 2
 458 30 l 1
 458 23 l 2
 458 12 454 4 440 1 c 0
 402 -8 368 -10 348 -10 c 0
 262 -10 218 25 218 98 c 0
 218 114 220 131 224 150 c 2
EndSplineSet
EndChar

StartChar: IJ
Encoding: 306 306 240
Width: 575
GlyphClass: 2
Flags: W
LayerCount: 2
Fore
SplineSet
161 700 m 2
 296 700 l 2
 310 700 318 694 318 682 c 0
 318 680 317 677 317 675 c 2
 313 649 l 2
 311 632 300 624 284 624 c 2
 259 624 l 1
 173 77 l 1
 208 77 l 2
 223 77 229 71 229 58 c 2
 229 52 l 1
 224 25 l 2
 222 9 212 0 195 0 c 2
 40 0 l 2
 26 0 19 7 19 20 c 2
 19 25 l 1
 24 52 l 2
 26 68 37 77 53 77 c 2
 88 77 l 1
 174 624 l 1
 149 624 l 2
 135 624 128 631 128 644 c 2
 128 649 l 1
 132 675 l 2
 135 692 145 700 161 700 c 2
423 700 m 2
 536 700 l 2
 550 700 558 694 558 682 c 0
 558 680 557 678 557 675 c 2
 470 125 l 2
 454 24 398 1 302 1 c 0
 287 1 279 7 279 20 c 2
 279 25 l 1
 284 52 l 2
 286 68 297 77 313 77 c 0
 350 77 379 86 385 125 c 2
 464 624 l 1
 411 624 l 2
 397 624 390 631 390 644 c 2
 390 649 l 1
 394 675 l 2
 397 691 407 700 423 700 c 2
EndSplineSet
EndChar

StartChar: ij
Encoding: 307 307 241
Width: 575
GlyphClass: 2
Flags: W
LayerCount: 2
Fore
SplineSet
319 654 m 2
 284 654 l 2
 270 654 262 661 262 673 c 0
 262 675 263 677 263 679 c 2
 270 725 l 2
 273 741 283 750 299 750 c 2
 334 750 l 2
 348 750 356 744 356 732 c 0
 356 730 355 727 355 725 c 2
 348 679 l 2
 345 662 336 654 319 654 c 2
509 750 m 2
 544 750 l 2
 558 750 566 744 566 732 c 0
 566 730 565 727 565 725 c 2
 558 679 l 2
 555 663 546 654 529 654 c 2
 494 654 l 2
 480 654 472 661 472 673 c 0
 472 675 473 677 473 679 c 2
 480 725 l 2
 483 741 493 750 509 750 c 2
155 500 m 2
 510 500 l 2
 521 500 526 493 526 481 c 2
 526 475 l 1
 454 24 l 2
 425 -163 324 -248 140 -248 c 0
 112 -248 71 -246 24 -237 c 0
 13 -235 7 -229 7 -220 c 0
 7 -216 8 -212 10 -207 c 2
 21 -181 l 2
 26 -168 34 -161 46 -161 c 0
 48 -161 51 -162 54 -162 c 0
 95 -170 130 -171 152 -171 c 0
 286 -171 348 -107 369 24 c 2
 433 424 l 1
 308 424 l 1
 244 25 l 2
 242 9 232 0 215 0 c 2
 180 0 l 2
 166 0 159 7 159 20 c 2
 159 25 l 1
 223 424 l 1
 143 424 l 2
 129 424 121 431 121 443 c 0
 121 445 122 447 122 449 c 2
 126 475 l 2
 128 492 139 500 155 500 c 2
EndSplineSet
EndChar

